<?xml version="1.0" encoding="utf-8"?>
<!-- Generator: Adobe Illustrator 28.2.0, SVG Export Plug-In . SVG Version: 6.00 Build 0)  -->
<svg version="1.1" id="Слой_1" xmlns="http://www.w3.org/2000/svg" xmlns:xlink="http://www.w3.org/1999/xlink" x="0px" y="0px"
	 viewBox="0 0 1330 324" style="enable-background:new 0 0 1330 324;" xml:space="preserve">
<style type="text/css">
	.st0{clip-path:url(#SVGID_00000178193675463806077590000017119387290211286688_);}
	.st1{fill:#FFFFFF;}
	.st2{fill-rule:evenodd;clip-rule:evenodd;fill:#FFFFFF;}
	.st3{fill-rule:evenodd;clip-rule:evenodd;fill:#6DA5F8;}
	.st4{fill-rule:evenodd;clip-rule:evenodd;fill:#D20001;}
</style>
<g>
	<defs>
		<rect id="SVGID_1_" width="1330" height="324"/>
	</defs>
	<clipPath id="SVGID_00000079452378746599612340000004760484397355233952_">
		<use xlink:href="#SVGID_1_"  style="overflow:visible;"/>
	</clipPath>
	<g style="clip-path:url(#SVGID_00000079452378746599612340000004760484397355233952_);">
		<path class="st1" d="M1293,2h17c11,0,20,9,20,20v76c0,11-9,20-20,20h-17c-11,0-20-9-20-20V22C1273,11,1282,2,1293,2z"/>
		<path class="st2" d="M340,320V99.5L226.8,294.8l-15.2,28.7H187l-17.2-28.7L1.7,5C1,3.7,1.9,2,3.5,2h52.4c0.7,0,1.4,0.4,1.7,1
			l133.8,230.7c3.1,5.3,10.8,5.3,13.8,0L338.9,3c0.4-0.6,1-1,1.7-1h1.3h51h2c1.1,0,2,0.9,2,2v316c0,1.1-0.9,2-2,2h-53
			C340.9,322,340,321.1,340,320z M0,193c0-1.1,0.9-2,2-2h53c1.1,0,2,0.9,2,2v127c0,1.1-0.9,2-2,2H2c-1.1,0-2-0.9-2-2V193z"/>
		<path class="st2" d="M1040,2c-11.1,0-20,9-20,20v76c0,11,8.9,20,20,20h17c11.1,0,20-9,20-20V22c0-11-8.9-20-20-20H1040z
			 M1020.2,194.3c-0.1,2.2-0.2,4.5-0.2,6.7c0,67.4,69.4,122,155,122s155-54.6,155-122c0-2.3-0.1-4.5-0.2-6.7
			c-0.4-5.4-5-9.3-10.4-9.3H1291c-9.3,0-17.3,6.2-21,14.6c-17.3,39.3-53.4,66.4-95,66.4s-77.6-27-95-66.4
			c-3.7-8.5-11.8-14.6-21-14.6h-28.4C1025.3,185,1020.6,188.9,1020.2,194.3z"/>
		<path class="st2" d="M605,319c-9.2-1.8-27.6-13.9-28-47.5c-0.5-42,41-94.5,83-136.5S754,32.5,719.5,0H780c20,0,111,10.5,111,85
			c0,54.5-23.5,78.5-80.3,87.5l87.1,142.4c2,3.3-0.4,7.6-4.3,7.6h-39.9c-1.3,0-2.6-0.7-3.3-1.8l-95.5-143.9
			c-6,0.1-12.3,0.2-18.8,0.2v142c0,1.7-1.3,3-3,3h-43c-1.7,0-3-1.3-3-3V212.8l48.4-54.3H771c16,0,69.5-6.5,64.5-73.5s-53-69-92.5-69
			c7.7,20.8,12.4,73.8-30,119c-6.1,6.5-12.6,13.2-19.3,20.2l0,0l0,0C641.9,209.1,578,275.6,605,319z M526.7,9.8
			c-2.2-3.3,0.2-7.8,4.2-7.8h47.5c1.3,0,2.6,0.7,3.3,1.8l76.1,114.7l-34.3,37.3L526.7,9.8z"/>
		<path class="st3" d="M1281.8,5.4L1330,61v37c0,11-8.9,20-20,20h-17c-11.1,0-20-9-20-20V22C1273,15.1,1276.5,9,1281.8,5.4z"/>
		<path class="st4" d="M1323.1,113.1c-3.5,3.1-8.1,4.9-13.1,4.9h-17c-11.1,0-20-9-20-20V55.3L1323.1,113.1z"/>
	</g>
</g>
</svg>
