<?xml version="1.0" encoding="UTF-8"?>
<svg id="_Слой_1" data-name="Слой 1" xmlns="http://www.w3.org/2000/svg" viewBox="0 0 554.09 554.07">
  <defs>
    <style>
      .cls-1 {
        fill: #20232b;
      }

      .cls-1, .cls-2, .cls-3, .cls-4 {
        stroke-width: 0px;
      }

      .cls-2 {
        fill: #eac947;
      }

      .cls-3 {
        fill: #68aec7;
      }

      .cls-4 {
        fill: #68af85;
      }
    </style>
  </defs>
  <g>
    <circle class="cls-4" cx="214.17" cy="198.42" r="23.64"/>
    <circle class="cls-2" cx="367.81" cy="295.92" r="23.64"/>
  </g>
  <path class="cls-1" d="m232.95,3.47c56.82-9.07,116.47-.3,167.88,25.65,55.4,27.45,101.02,74.13,127.11,130.18,27.74,58.74,33.62,127.31,16.63,189.98-15.98,60.13-53.12,114.37-103.38,151.01-37.94,28.07-83.2,46.12-130.03,51.65-63.05,7.95-128.88-6.41-182.42-40.8-60.69-38.09-105.33-100.72-121.46-170.54C-7.15,278.87-.08,212.18,28.07,155.31,66.4,75.47,145.37,16.85,232.95,3.47Zm6,23.46c-39.03,5.91-76.55,21.24-108.64,44.17-45.38,32.15-79.54,79.77-95.43,133.08-16.16,52.56-14.09,110.36,5.41,161.74,20.53,55.52,61.63,102.91,113.19,131.86,45.8,25.5,99.6,36.93,151.75,30.64,53.74-5.85,105.39-29.69,144.66-66.92,39-36.16,66.01-85.12,75.73-137.45,11.05-57.73,1.21-119.34-27.89-170.48-22.72-40.66-56.85-74.84-97.62-97.41-48.49-27.33-106.16-37.73-161.14-29.22Z"/>
  <g>
    <g>
      <path class="cls-4" d="m302.76,219.64c-16.49-9.32-37.99-16.5-56.06-21.78l.08,1.57c.12,4.55-.65,9.17-1.63,13.68,41.63,8.83,75.31,28.15,102.43,60.86,4.14-2.72,7.99-5.66,12.27-8.14-17.64-20.15-33.28-33.63-57.09-46.19Z"/>
      <path class="cls-1" d="m374.53,138.02c-36.61-25.17-83.5-34.57-127.05-25.85-47.27,8.92-89.67,39.71-113.37,81.49-20.36,35.04-26.98,77.71-18.67,117.33,8.21,40.98,32.56,78.45,66.69,102.58,36.46,26.68,84.12,37.14,128.47,28.72,47.86-8.39,91.03-39.27,115.11-81.4,19.56-33.62,26.5-74.19,19.86-112.45-7.15-44.53-33.83-85.12-71.03-110.41Zm40.24,90.38c-8.92-8.33-17.37-17.2-27.21-24.49-1.89-10.08-5.05-19.85-7.98-29.66,15.39,15.3,27.66,33.8,35.19,54.16Zm-168.11-35.89c36.34-9.78,79.76-7.18,113.39,10.48,5.17,3.13,12.03,5.08,15.33,10.34,3.1,16.43,1.09,33.33-2.1,49.58,4.28,1.36,8.57,2.78,12.85,4.2,3.1-14.74,4.05-29.81,3.63-44.85,12.35,12.59,25.11,25.65,32.59,41.84,3.37,31.61-4.93,64.2-22.4,90.74-1.95-11.17-4.88-22.16-8.27-32.97-3.99,2.28-8.01,4.55-12.03,6.77,4.76,13.35,7.39,27.33,9.31,41.36-7.74,8.39-16.16,16.13-25.08,23.25-17.67-.18-35.22-3.43-51.79-9.57-2.25,3.93-4.49,7.83-6.77,11.76,12.5,4.55,25.53,7.33,38.59,9.72-48.46,24.82-110.56,18.11-152.93-16.01,20.09,4.37,40.77,5.29,61.16,2.69-1.8-4.2-3.52-8.42-5.17-12.65-25.94,3.01-52.92-.3-76.7-11.32-9.9-9.93-16.52-22.78-22.25-35.46-4.17-8.15-2.07-17.4-.59-25.94,6.15-31.35,23.02-60.27,46.65-81.7-2.9-3.4-5.76-6.85-8.6-10.28-22.4,20.27-39.06,46.48-47.66,75.43-2.69-24.94,1.39-51.29,13.24-73.51,10.16-4.61,21.39-6.15,32.26-8.15-.38-4.58-.71-9.16-1-13.74-7.65,1.63-15.28,3.34-22.87,5.2,19.21-29.19,48.78-51.11,82.37-60.81-7.03,8.95-13.65,18.23-19.8,27.8,4.23,1.8,8.42,3.66,12.62,5.55,8.27-13.71,18.08-26.71,30.4-37.05,27.27-3.96,55.67,2.04,80.19,14.39,17.34,7.71,20.33,28.98,27.21,44.61-38.85-21.72-86.25-26.53-128.67-13.09"/>
    </g>
    <path class="cls-3" d="m195.42,228.26c4.67.71,9.37,1.45,14.03,2.16-3.84,44.61,12.97,90.5,44.7,122.11-2.98,3.81-5.91,7.71-8.75,11.67-35.46-35.22-54.31-86.13-49.99-135.94Z"/>
  </g>
  <path class="cls-2" d="m306.93,361.01c15.87-10.31,29.72-23.4,41.34-38.32,3.93,2.81,7.95,5.55,11.97,8.3-13.83,16.84-29.66,32-48.01,43.79-1.71-4.64-3.46-9.22-5.29-13.77Z"/>
  <circle class="cls-3" cx="279.17" cy="375.7" r="23.64"/>
  <g>
    <path class="cls-1" d="m155.46,67.56l22.55-10.36c3.06-1.4,6.02-2.32,8.88-2.76,2.86-.44,5.54-.32,8.04.36,2.5.68,4.78,1.96,6.87,3.86,2.08,1.9,3.87,4.47,5.37,7.73,3.08,6.72,3.6,12.4,1.55,17.04-2.05,4.65-6.31,8.45-12.78,11.42l-8.34,3.83,8.63,18.8-14.73,6.77-26.03-56.68Zm26.68,19.24l2.48-1.14c1.35-.62,2.64-1.26,3.86-1.91,1.22-.65,2.23-1.42,3.04-2.31.81-.89,1.3-1.93,1.47-3.13.18-1.2-.14-2.68-.94-4.44-.83-1.8-1.76-3.06-2.78-3.78-1.03-.71-2.12-1.07-3.28-1.09-1.16-.01-2.41.24-3.75.76-1.34.52-2.71,1.11-4.11,1.75l-2.48,1.14,6.49,14.13Z"/>
    <path class="cls-1" d="m270.42,87.71l-4.61,10.71-17.2-.49,25.78-61.66,17.7.51,21.69,63.03-17.28-.5-3.74-10.95-22.33-.64Zm12.26-31.93h-.17s-7.27,19.65-7.27,19.65l13.48.39-6.04-20.04Z"/>
    <path class="cls-1" d="m369.85,53.5l17.34,9.85.31,18.73,16.24-9.33,17.34,9.85-31.68,15.4,3.6,40.39-16.97-9.64-1.32-24.15-22.49,10.63-17.05-9.68,37.69-16.94-3-35.09Z"/>
    <path class="cls-1" d="m421.47,173.43l-10.03-12.74,49.03-38.57,10.03,12.74-49.03,38.57Z"/>
    <path class="cls-1" d="m501.18,186.08l4.1,15.69-29.4,38.37.04.16,36.9-9.63,4.1,15.69-60.35,15.76-4.1-15.69,29.48-38.4-.04-.16-36.98,9.66-4.1-15.69,60.36-15.76Z"/>
    <path class="cls-1" d="m449.49,320.12l3.16-15.9,47.71,9.49,2.61-13.14,13.47,2.68-8.39,42.19-13.47-2.68,2.61-13.14-47.71-9.49Z"/>
    <path class="cls-1" d="m405.93,403l11.55-16.56,28.43,1.18.1-.14-19.68-13.73,9.28-13.3,51.16,35.69-13.87,19.88c-1.77,2.53-3.71,4.67-5.84,6.42-2.13,1.75-4.38,2.96-6.78,3.64-2.39.68-4.9.78-7.52.3-2.62-.49-5.29-1.67-8-3.57-1.76-1.23-3.28-2.65-4.56-4.24-1.28-1.6-2.22-3.32-2.85-5.16-.62-1.85-.89-3.79-.79-5.8.1-2.02.62-4.05,1.56-6.07l-32.18,1.45Zm48.62-9.55l-.9,1.29c-.76,1.08-1.45,2.22-2.07,3.4-.62,1.18-1.02,2.37-1.18,3.57-.16,1.19-.02,2.37.42,3.52.44,1.15,1.36,2.21,2.77,3.19,1.4.98,2.72,1.47,3.95,1.49,1.23.02,2.38-.25,3.45-.82s2.05-1.34,2.94-2.33c.89-.99,1.72-2.03,2.48-3.12l.9-1.29-12.76-8.9Z"/>
    <path class="cls-1" d="m376.42,438.16l-1.41-11.57,15.1-8.24,8.81,66.25-15.55,8.48-50.49-43.51,15.18-8.28,8.75,7.57,19.61-10.7Zm5.5,33.75l.14-.08-3.62-20.64-11.84,6.46,15.32,14.26Z"/>
    <path class="cls-1" d="m306.61,517.51l-22.99.45c-4.36.08-8.47-.63-12.33-2.16-3.86-1.52-7.26-3.66-10.18-6.42-2.92-2.76-5.26-6.02-7.02-9.79-1.75-3.77-2.68-7.84-2.76-12.19-.09-4.41.67-8.52,2.28-12.33,1.61-3.81,3.82-7.15,6.63-10.02,2.81-2.87,6.14-5.14,9.96-6.82,3.83-1.68,7.89-2.56,12.2-2.64l22.99-.45,1.23,62.37Zm-17.17-48.32l-3.64.07c-2.43.05-4.72.44-6.89,1.17-2.16.73-4.05,1.81-5.64,3.25-1.6,1.44-2.86,3.27-3.78,5.49-.92,2.22-1.35,4.85-1.29,7.89.05,2.81.55,5.29,1.47,7.42.92,2.13,2.19,3.93,3.79,5.39s3.5,2.55,5.69,3.28c2.2.73,4.59,1.07,7.18,1.02l3.81-.08-.69-34.9Z"/>
    <path class="cls-1" d="m186.66,486.05l4.15-9.56-16.77-7.29,5.47-12.59,16.77,7.29,4.29-9.87-17.68-7.68,5.47-12.59,32.55,14.14-24.85,57.21-32.55-14.14,5.47-12.59,17.68,7.68Z"/>
  </g>
  <path class="cls-1" d="m64.73,246.03c2.6,7.97,5.15,15.95,7.74,23.93,8.39-.03,16.77-.03,25.16-.05-6.79,4.92-13.59,9.84-20.38,14.75,2.61,7.97,5.21,15.95,7.83,23.92-6.78-4.94-13.56-9.89-20.33-14.83-6.78,4.95-13.55,9.89-20.33,14.83,2.62-7.97,5.22-15.95,7.83-23.92-6.79-4.92-13.59-9.83-20.38-14.75,8.39.02,16.77.03,25.16.05,2.58-7.97,5.15-15.95,7.73-23.92Z"/>
  <path class="cls-1" d="m78.02,328.24c2.6,7.97,5.15,15.95,7.74,23.93,8.39-.03,16.77-.03,25.16-.05-6.79,4.92-13.59,9.84-20.38,14.75,2.61,7.97,5.21,15.95,7.83,23.92-6.78-4.94-13.56-9.89-20.33-14.83-6.78,4.95-13.55,9.89-20.33,14.83,2.62-7.97,5.22-15.95,7.83-23.92-6.79-4.92-13.59-9.83-20.38-14.75,8.39.02,16.77.03,25.16.05,2.58-7.97,5.15-15.95,7.73-23.92Z"/>
  <path class="cls-1" d="m130.88,396.59c2.6,7.97,5.15,15.95,7.74,23.93,8.39-.03,16.77-.03,25.16-.05-6.79,4.92-13.59,9.84-20.38,14.75,2.61,7.97,5.21,15.95,7.83,23.92-6.78-4.94-13.56-9.89-20.33-14.83-6.78,4.95-13.55,9.89-20.33,14.83,2.62-7.97,5.22-15.95,7.83-23.92-6.79-4.92-13.59-9.83-20.38-14.75,8.39.02,16.77.03,25.16.05,2.58-7.97,5.15-15.95,7.73-23.92Z"/>
  <path class="cls-1" d="m85.13,159.86c2.6,7.97,5.15,15.95,7.74,23.93,8.39-.03,16.77-.03,25.16-.05-6.74,4.88-12.69,9.19-20.38,14.75,2.61,7.97,5.21,15.95,7.83,23.92-6.78-4.94-13.56-9.89-20.33-14.83-6.78,4.95-13.55,9.89-20.33,14.83,2.62-7.97,5.22-15.95,7.83-23.92-6.79-4.92-13.59-9.83-20.38-14.75,8.39.02,16.77.03,25.16.05,2.58-7.97,5.15-15.95,7.73-23.92Z"/>
  <path class="cls-1" d="m124.49,91.13c2.6,7.97,5.15,15.95,7.74,23.93,8.39-.03,16.77-.03,25.16-.05-6.79,4.92-13.59,9.84-20.38,14.75,2.61,7.97,5.21,15.95,7.83,23.92-6.78-4.94-13.56-9.89-20.33-14.83-6.78,4.95-13.55,9.89-20.33,14.83,2.62-7.97,5.22-15.95,7.83-23.92-6.79-4.92-13.59-9.83-20.38-14.75,8.39.02,16.77.03,25.16.05,2.58-7.97,5.15-15.95,7.73-23.92Z"/>
</svg>