<?xml version="1.0" encoding="utf-8"?>
<!-- Generator: Adobe Illustrator 27.9.0, SVG Export Plug-In . SVG Version: 6.00 Build 0)  -->
<svg version="1.1" id="_Слой_1" xmlns="http://www.w3.org/2000/svg" xmlns:xlink="http://www.w3.org/1999/xlink" x="0px"
	 y="0px" viewBox="0 0 554.1 554.1" style="enable-background:new 0 0 554.1 554.1;" xml:space="preserve">
<style type="text/css">
	.st0{fill:#68AF85;}
	.st1{fill:#EAC947;}
	.st2{fill:#FFFFFF;}
	.st3{fill:#68AEC7;}
</style>
<g>
	<circle class="st0" cx="214.2" cy="198.4" r="23.6"/>
	<circle class="st1" cx="367.8" cy="295.9" r="23.6"/>
</g>
<path class="st2" d="M232.9,3.5c56.8-9.1,116.5-0.3,167.9,25.6c55.4,27.5,101,74.1,127.1,130.2c27.7,58.7,33.6,127.3,16.6,190
	c-16,60.1-53.1,114.4-103.4,151c-37.9,28.1-83.2,46.1-130,51.7c-63.1,8-128.9-6.4-182.4-40.8C68.1,473.1,23.4,410.4,7.3,340.6
	c-14.4-61.7-7.4-128.4,20.8-185.3C66.4,75.5,145.4,16.9,232.9,3.5z M238.9,26.9c-39,5.9-76.6,21.2-108.6,44.2
	c-45.4,32.2-79.5,79.8-95.4,133.1c-16.2,52.6-14.1,110.4,5.4,161.7c20.5,55.5,61.6,102.9,113.2,131.9
	c45.8,25.5,99.6,36.9,151.7,30.6c53.7-5.8,105.4-29.7,144.7-66.9c39-36.2,66-85.1,75.7-137.5c11-57.7,1.2-119.3-27.9-170.5
	c-22.7-40.7-56.9-74.8-97.6-97.4C351.6,28.8,293.9,18.4,238.9,26.9L238.9,26.9z"/>
<g>
	<g>
		<path class="st0" d="M302.8,219.6c-16.5-9.3-38-16.5-56.1-21.8l0.1,1.6c0.1,4.6-0.6,9.2-1.6,13.7c41.6,8.8,75.3,28.1,102.4,60.9
			c4.1-2.7,8-5.7,12.3-8.1C342.2,245.7,326.6,232.2,302.8,219.6L302.8,219.6z"/>
		<path class="st2" d="M374.5,138c-36.6-25.2-83.5-34.6-127.1-25.8c-47.3,8.9-89.7,39.7-113.4,81.5c-20.4,35-27,77.7-18.7,117.3
			c8.2,41,32.6,78.5,66.7,102.6c36.5,26.7,84.1,37.1,128.5,28.7c47.9-8.4,91-39.3,115.1-81.4c19.6-33.6,26.5-74.2,19.9-112.4
			C438.4,203.9,411.7,163.3,374.5,138L374.5,138z M414.8,228.4c-8.9-8.3-17.4-17.2-27.2-24.5c-1.9-10.1-5-19.9-8-29.7
			C395,189.5,407.2,208,414.8,228.4L414.8,228.4z M246.7,192.5c36.3-9.8,79.8-7.2,113.4,10.5c5.2,3.1,12,5.1,15.3,10.3
			c3.1,16.4,1.1,33.3-2.1,49.6c4.3,1.4,8.6,2.8,12.9,4.2c3.1-14.7,4-29.8,3.6-44.9c12.4,12.6,25.1,25.6,32.6,41.8
			c3.4,31.6-4.9,64.2-22.4,90.7c-2-11.2-4.9-22.2-8.3-33c-4,2.3-8,4.5-12,6.8C384.4,342,387,356,389,370
			c-7.7,8.4-16.2,16.1-25.1,23.2c-17.7-0.2-35.2-3.4-51.8-9.6c-2.2,3.9-4.5,7.8-6.8,11.8c12.5,4.5,25.5,7.3,38.6,9.7
			c-48.5,24.8-110.6,18.1-152.9-16c20.1,4.4,40.8,5.3,61.2,2.7c-1.8-4.2-3.5-8.4-5.2-12.6c-25.9,3-52.9-0.3-76.7-11.3
			c-9.9-9.9-16.5-22.8-22.2-35.5c-4.2-8.1-2.1-17.4-0.6-25.9c6.1-31.4,23-60.3,46.6-81.7c-2.9-3.4-5.8-6.9-8.6-10.3
			c-22.4,20.3-39.1,46.5-47.7,75.4c-2.7-24.9,1.4-51.3,13.2-73.5c10.2-4.6,21.4-6.1,32.3-8.1c-0.4-4.6-0.7-9.2-1-13.7
			c-7.6,1.6-15.3,3.3-22.9,5.2c19.2-29.2,48.8-51.1,82.4-60.8c-7,8.9-13.6,18.2-19.8,27.8c4.2,1.8,8.4,3.7,12.6,5.6
			c8.3-13.7,18.1-26.7,30.4-37.1c27.3-4,55.7,2,80.2,14.4c17.3,7.7,20.3,29,27.2,44.6c-38.9-21.7-86.2-26.5-128.7-13.1"/>
	</g>
	<path class="st3" d="M195.4,228.3c4.7,0.7,9.4,1.4,14,2.2c-3.8,44.6,13,90.5,44.7,122.1c-3,3.8-5.9,7.7-8.8,11.7
		C209.9,329,191.1,278.1,195.4,228.3L195.4,228.3z"/>
</g>
<path class="st1" d="M306.9,361c15.9-10.3,29.7-23.4,41.3-38.3c3.9,2.8,8,5.5,12,8.3c-13.8,16.8-29.7,32-48,43.8
	C310.5,370.1,308.8,365.6,306.9,361L306.9,361z"/>
<ellipse transform="matrix(7.088906e-02 -0.9975 0.9975 7.088906e-02 -115.3749 627.5347)" class="st3" cx="279.2" cy="375.7" rx="23.6" ry="23.6"/>
<g>
	<path class="st2" d="M155.5,67.6L178,57.2c3.1-1.4,6-2.3,8.9-2.8s5.5-0.3,8,0.4s4.8,2,6.9,3.9c2.1,1.9,3.9,4.5,5.4,7.7
		c3.1,6.7,3.6,12.4,1.6,17c-2.1,4.7-6.3,8.4-12.8,11.4l-8.3,3.8l8.6,18.8l-14.7,6.8L155.5,67.6L155.5,67.6z M182.1,86.8l2.5-1.1
		c1.4-0.6,2.6-1.3,3.9-1.9s2.2-1.4,3-2.3s1.3-1.9,1.5-3.1c0.2-1.2-0.1-2.7-0.9-4.4c-0.8-1.8-1.8-3.1-2.8-3.8c-1-0.7-2.1-1.1-3.3-1.1
		c-1.2,0-2.4,0.2-3.8,0.8c-1.3,0.5-2.7,1.1-4.1,1.8l-2.5,1.1L182.1,86.8L182.1,86.8z"/>
	<path class="st2" d="M270.4,87.7l-4.6,10.7l-17.2-0.5l25.8-61.7l17.7,0.5l21.7,63l-17.3-0.5l-3.7-10.9L270.4,87.7L270.4,87.7z
		 M282.7,55.8h-0.2l-7.3,19.7l13.5,0.4L282.7,55.8z"/>
	<path class="st2" d="M369.9,53.5l17.3,9.8l0.3,18.7l16.2-9.3l17.3,9.8L389.4,98l3.6,40.4l-17-9.6l-1.3-24.2l-22.5,10.6l-17-9.7
		l37.7-16.9L369.9,53.5L369.9,53.5z"/>
	<path class="st2" d="M421.5,173.4l-10-12.7l49-38.6l10,12.7L421.5,173.4z"/>
	<path class="st2" d="M501.2,186.1l4.1,15.7l-29.4,38.4l0,0.2l36.9-9.6l4.1,15.7l-60.4,15.8l-4.1-15.7l29.5-38.4l0-0.2l-37,9.7
		l-4.1-15.7L501.2,186.1L501.2,186.1z"/>
	<path class="st2" d="M449.5,320.1l3.2-15.9l47.7,9.5l2.6-13.1l13.5,2.7l-8.4,42.2l-13.5-2.7l2.6-13.1L449.5,320.1L449.5,320.1z"/>
	<path class="st2" d="M405.9,403l11.5-16.6l28.4,1.2l0.1-0.1l-19.7-13.7l9.3-13.3l51.2,35.7L472.9,416c-1.8,2.5-3.7,4.7-5.8,6.4
		s-4.4,3-6.8,3.6c-2.4,0.7-4.9,0.8-7.5,0.3c-2.6-0.5-5.3-1.7-8-3.6c-1.8-1.2-3.3-2.6-4.6-4.2c-1.3-1.6-2.2-3.3-2.9-5.2
		c-0.6-1.9-0.9-3.8-0.8-5.8c0.1-2,0.6-4,1.6-6.1L405.9,403L405.9,403z M454.5,393.5l-0.9,1.3c-0.8,1.1-1.5,2.2-2.1,3.4
		s-1,2.4-1.2,3.6c-0.2,1.2,0,2.4,0.4,3.5s1.4,2.2,2.8,3.2c1.4,1,2.7,1.5,4,1.5s2.4-0.2,3.5-0.8s2-1.3,2.9-2.3s1.7-2,2.5-3.1l0.9-1.3
		L454.5,393.5L454.5,393.5z"/>
	<path class="st2" d="M376.4,438.2l-1.4-11.6l15.1-8.2l8.8,66.2l-15.5,8.5l-50.5-43.5l15.2-8.3l8.8,7.6L376.4,438.2L376.4,438.2z
		 M381.9,471.9l0.1-0.1l-3.6-20.6l-11.8,6.5L381.9,471.9L381.9,471.9z"/>
	<path class="st2" d="M306.6,517.5l-23,0.5c-4.4,0.1-8.5-0.6-12.3-2.2c-3.9-1.5-7.3-3.7-10.2-6.4c-2.9-2.8-5.3-6-7-9.8
		c-1.8-3.8-2.7-7.8-2.8-12.2c-0.1-4.4,0.7-8.5,2.3-12.3s3.8-7.1,6.6-10s6.1-5.1,10-6.8c3.8-1.7,7.9-2.6,12.2-2.6l23-0.5L306.6,517.5
		L306.6,517.5z M289.4,469.2l-3.6,0.1c-2.4,0-4.7,0.4-6.9,1.2c-2.2,0.7-4,1.8-5.6,3.2c-1.6,1.4-2.9,3.3-3.8,5.5s-1.4,4.9-1.3,7.9
		c0,2.8,0.5,5.3,1.5,7.4s2.2,3.9,3.8,5.4s3.5,2.5,5.7,3.3c2.2,0.7,4.6,1.1,7.2,1l3.8-0.1L289.4,469.2L289.4,469.2z"/>
	<path class="st2" d="M186.7,486l4.1-9.6l-16.8-7.3l5.5-12.6l16.8,7.3l4.3-9.9l-17.7-7.7l5.5-12.6l32.6,14.1l-24.9,57.2L163.5,491
		l5.5-12.6L186.7,486L186.7,486z"/>
</g>
<path class="st2" d="M78,328.2c2.6,8,5.2,16,7.7,23.9c8.4,0,16.8,0,25.2,0c-6.8,4.9-13.6,9.8-20.4,14.8c2.6,8,5.2,16,7.8,23.9
	c-6.8-4.9-13.6-9.9-20.3-14.8c-6.8,5-13.6,9.9-20.3,14.8c2.6-8,5.2-16,7.8-23.9c-6.8-4.9-13.6-9.8-20.4-14.8c8.4,0,16.8,0,25.2,0
	C72.9,344.2,75.5,336.2,78,328.2L78,328.2z"/>
<path class="st2" d="M130.9,396.6c2.6,8,5.1,16,7.7,23.9c8.4,0,16.8,0,25.2,0c-6.8,4.9-13.6,9.8-20.4,14.8c2.6,8,5.2,16,7.8,23.9
	c-6.8-4.9-13.6-9.9-20.3-14.8c-6.8,5-13.6,9.9-20.3,14.8c2.6-8,5.2-16,7.8-23.9c-6.8-4.9-13.6-9.8-20.4-14.8c8.4,0,16.8,0,25.2,0
	C125.8,412.5,128.3,404.6,130.9,396.6L130.9,396.6z"/>
<g>
	<path class="st2" d="M64.7,246c2.6,8,5.2,16,7.7,23.9c8.4,0,16.8,0,25.2,0c-6.8,4.9-13.6,9.8-20.4,14.8c2.6,8,5.2,16,7.8,23.9
		c-6.8-4.9-13.6-9.9-20.3-14.8c-6.8,5-13.5,9.9-20.3,14.8c2.6-8,5.2-16,7.8-23.9c-6.8-4.9-13.6-9.8-20.4-14.8c8.4,0,16.8,0,25.2,0
		C59.6,262,62.2,254,64.7,246L64.7,246z"/>
	<path class="st2" d="M85.1,159.9c2.6,8,5.2,15.9,7.7,23.9c8.4,0,16.8,0,25.2-0.1c-6.7,4.9-12.7,9.2-20.4,14.8
		c2.6,8,5.2,15.9,7.8,23.9c-6.8-4.9-13.6-9.9-20.3-14.8c-6.8,4.9-13.6,9.9-20.3,14.8c2.6-8,5.2-15.9,7.8-23.9
		c-6.8-4.9-13.6-9.8-20.4-14.8c8.4,0,16.8,0,25.2,0.1C80,175.8,82.6,167.8,85.1,159.9L85.1,159.9z"/>
	<path class="st2" d="M124.5,91.1c2.6,8,5.2,15.9,7.7,23.9c8.4,0,16.8,0,25.2-0.1c-6.8,4.9-13.6,9.8-20.4,14.8
		c2.6,8,5.2,15.9,7.8,23.9c-6.8-4.9-13.6-9.9-20.3-14.8c-6.8,4.9-13.6,9.9-20.3,14.8c2.6-8,5.2-15.9,7.8-23.9
		c-6.8-4.9-13.6-9.8-20.4-14.8c8.4,0,16.8,0,25.2,0.1C119.4,107.1,121.9,99.1,124.5,91.1L124.5,91.1z"/>
</g>
</svg>
