<svg width="77" height="76" viewBox="0 0 77 76" fill="none" xmlns="http://www.w3.org/2000/svg">
<g id="Frame 1000003559">
<path id="Vector" d="M28.6092 24.4375C30.7971 23.5458 33.3092 25.7749 32.742 28.0446C32.1747 30.3142 29.0144 31.368 27.3937 29.6252C25.773 27.8825 26.5023 25.086 28.6092 24.4375Z" fill="#00B887"/>
<path id="Vector_2" d="M49.7997 37.7309C51.9066 36.8393 54.4187 38.8252 54.0136 41.0543C53.6084 43.2834 50.8127 44.6209 49.0299 43.2429C47.2471 41.8649 47.4902 38.4199 49.7997 37.7309Z" fill="#FFCE00"/>
<path id="Vector_3" d="M32.458 0.485107C53.203 -2.83828 72.6919 11.2658 76.0144 32.0168C78.2833 46.0803 72.4893 60.225 60.9824 68.6551C55.7556 72.5459 49.5969 74.9776 43.1546 75.7071C23.9088 78.0983 5.9595 65.6154 1.50256 46.7288C-0.482796 38.1772 0.489625 29.2202 4.33879 21.3171C9.60608 10.3742 20.4243 2.30892 32.458 0.485107ZM33.2683 3.72743C14.3466 6.605 1.34049 24.3162 4.21724 43.2433C7.09399 62.1704 24.8002 75.1802 43.7219 72.3027C62.6436 69.4251 75.6497 51.7139 72.773 32.7868C72.1652 28.6528 70.7876 24.7215 68.7617 21.0739C65.6014 15.4809 60.9418 10.8606 55.3504 7.69929C48.6245 3.97061 40.8856 2.55209 33.2683 3.72743Z" fill="white"/>
<path id="Vector_4" d="M42.0201 30.152C39.7511 28.855 37.2795 28.085 34.7674 27.3555H34.3217C34.3217 28.0039 34.2812 28.6524 34.1191 29.2603C39.8321 30.4762 44.4511 33.1106 48.1787 37.6093L49.84 36.4745C47.4089 33.7185 45.2615 31.8542 42.0201 30.152Z" fill="#00B887"/>
<path id="Vector_5" d="M51.8662 18.9666C41.4532 11.6713 27.0695 14.2247 19.8168 24.6406C12.5642 35.0566 15.0763 49.4445 25.4893 56.7397C30.554 60.4278 36.9152 61.8464 43.0739 60.671C55.5128 58.4014 63.7784 46.5264 61.5904 34.0839C60.537 27.9235 57.012 22.4521 51.8662 18.9666ZM57.3766 31.3279C56.2016 30.1526 54.9456 29.0178 53.649 28.0046C53.3654 26.586 52.9602 25.2486 52.555 23.9111C54.6619 26.0186 56.3232 28.5314 57.3766 31.3279ZM34.7678 26.4644C39.7515 25.127 45.2619 25.4512 49.8809 27.8424C50.5697 28.2883 51.5016 28.572 51.9878 29.261C52.3929 31.5306 52.1093 33.8407 51.7042 36.0698L53.4464 36.6373C53.8921 34.6108 54.0542 32.5843 53.9326 30.5174C55.6343 32.2196 57.3766 34.0029 58.4301 36.232C58.8352 40.6091 57.7818 44.9862 55.3507 48.6744C55.0671 47.1748 54.6619 45.6347 54.2162 44.1757L52.555 45.1078C53.1628 46.9722 53.6085 48.8365 53.8516 50.7819C52.7576 51.9167 51.6231 52.9705 50.4076 53.9432C47.9765 53.9432 45.5455 53.4974 43.2765 52.6462C42.9929 53.1731 42.6687 53.7 42.3851 54.2674C44.0868 54.8754 45.8696 55.3212 47.6524 55.6049C41.0075 59.0093 32.4988 58.0772 26.7048 53.3758C29.46 53.9837 32.2962 54.1053 35.0919 53.7811C34.8083 53.1731 34.6057 52.6057 34.3626 52.0383C30.7566 52.4841 27.11 51.9573 23.8281 50.4577C22.491 49.1202 21.5996 47.3369 20.7892 45.5942C20.222 44.4999 20.5056 43.2435 20.7082 42.0682C21.5996 37.7315 23.8281 33.8002 27.11 30.8416C26.7048 30.3958 26.3402 29.9094 25.935 29.4231C22.8556 32.2196 20.5867 35.8267 19.4116 39.7985C19.0065 36.313 19.6142 32.8275 21.1944 29.7068C22.6125 29.0583 24.1522 28.8557 25.6514 28.572C25.5703 27.964 25.5298 27.3156 25.4893 26.7076L22.3694 27.3966C25.0436 23.3842 29.0548 20.4256 33.6738 19.0881C32.7014 20.304 31.7695 21.5604 30.9592 22.8979L32.6609 23.6274C33.7954 21.7225 35.173 20.0203 36.8342 18.5613C40.6429 18.0749 44.4515 18.8044 47.855 20.5472C50.205 21.601 50.6102 24.5191 51.5826 26.6671C46.1938 23.6679 39.792 23.0195 33.9169 24.8433C34.2006 25.3296 34.3221 25.897 34.3221 26.4644" fill="white"/>
<path id="Vector_6" d="M27.3121 31.3281L29.2164 31.6118C28.7302 37.8128 30.9587 43.9327 35.3346 48.3909C34.9294 48.8772 34.5242 49.4446 34.1595 49.9715C29.2569 45.0675 26.7448 38.2586 27.3121 31.3281Z" fill="#01B6D3"/>
<path id="Vector_7" d="M42.5872 49.5251C44.7751 48.1066 46.6794 46.3233 48.2596 44.2969L49.8803 45.4317C48.0165 47.7824 45.8286 49.8088 43.3165 51.43L42.5872 49.5251Z" fill="#FFCE00"/>
<path id="Vector_8" d="M37.1582 48.472C39.5083 47.1345 42.5066 49.8905 41.4531 52.3627C40.3996 54.835 37.5634 55.1593 36.1048 53.376C34.6462 51.5927 35.2944 49.242 37.1582 48.472Z" fill="#01B6D3"/>
<path id="Vector_9" d="M21.8018 9.27961L24.9216 7.86109C25.2863 7.65845 25.732 7.53686 26.1371 7.49633C26.5018 7.41527 26.8665 7.4558 27.2311 7.53686C27.5958 7.65845 27.8794 7.82056 28.163 8.06374C28.4872 8.34744 28.7303 8.7122 28.8923 9.1175C29.338 10.0497 29.4191 10.8197 29.1354 11.4682C28.8518 12.1166 28.2441 12.603 27.3527 13.0083L26.2182 13.5352L27.3932 16.129L25.3673 17.0612L21.8018 9.27961ZM25.4889 11.914L25.813 11.7519L26.3397 11.5087C26.5018 11.4277 26.6233 11.3061 26.7449 11.1845C26.8665 11.1034 26.9475 10.9413 26.9475 10.7792C26.988 10.536 26.9475 10.3334 26.8259 10.1307C26.7449 9.92808 26.6233 9.76596 26.4613 9.64437C26.3397 9.52279 26.1777 9.48226 26.0156 9.48226C25.8535 9.48226 25.6509 9.52279 25.4889 9.60385C25.2863 9.64437 25.0837 9.72543 24.9216 9.84702L24.5975 9.96861L25.4889 11.914Z" fill="white"/>
<path id="Vector_10" d="M37.5635 12.0355L36.9557 13.535L34.6057 13.454L38.1307 4.9834L40.5618 5.06446L43.5196 13.6972H41.1696L40.6428 12.1571L37.5635 12.0355ZM39.2652 7.65832L38.2523 10.3738H40.0756L39.2652 7.65832Z" fill="white"/>
<path id="Vector_11" d="M51.2176 7.375L53.6081 8.71246V11.2658L55.8366 10.0094L58.1866 11.3469L53.8918 13.4544L54.378 19.0069L52.0685 17.6694L51.8659 14.346L48.7865 15.8051L46.4365 14.5081L51.6228 12.1574L51.2176 7.375Z" fill="white"/>
<path id="Vector_12" d="M58.3085 23.7889L56.9309 22.0461L63.6568 16.7773L65.0344 18.5201L58.3085 23.7889Z" fill="white"/>
<path id="Vector_13" d="M69.2075 25.5322L69.7747 27.6803L65.7635 32.9491L70.8282 31.6116L71.3954 33.7596L63.0893 35.9887L62.5626 33.8002L66.5738 28.5719L61.5091 29.9094L60.9419 27.7613L69.2075 25.5322Z" fill="white"/>
<path id="Vector_14" d="M62.1169 43.9327L62.5626 41.7442L69.1265 43.0411L69.4506 41.2578L71.3144 41.6226L70.1799 47.4182L68.3161 47.0129L68.6808 45.2297L62.1169 43.9327Z" fill="white"/>
<path id="Vector_15" d="M56.1609 55.2805L57.7411 53.0109L61.6308 53.173H61.6713L58.9566 51.2681L60.2126 49.4443L67.2627 54.3484L65.3584 57.1043C65.1153 57.4286 64.8317 57.7123 64.548 57.9554C64.2644 58.1986 63.9403 58.3607 63.6161 58.4823C63.292 58.5634 62.9273 58.5634 62.6032 58.5229C62.198 58.4418 61.8334 58.2392 61.4687 58.0365C61.2256 57.8744 61.023 57.6717 60.8609 57.4286C60.6989 57.2259 60.5368 56.9828 60.4558 56.7396C60.2937 56.2127 60.3342 55.6453 60.5773 55.1184L56.1609 55.2805ZM62.8463 53.9836L62.7247 54.1457C62.6032 54.3078 62.5221 54.4699 62.4411 54.6321C62.3196 54.7537 62.279 54.9563 62.279 55.1184C62.2385 55.2805 62.2385 55.4426 62.3196 55.6048C62.3601 55.7669 62.5221 55.8885 62.6842 56.0506C62.8463 56.1722 63.0489 56.2532 63.2515 56.2532C63.4135 56.2532 63.5756 56.2127 63.6972 56.1316C63.8592 56.0506 63.9808 55.929 64.1023 55.8074L64.467 55.4021L64.5885 55.1995L62.8463 53.9836Z" fill="white"/>
<path id="Vector_16" d="M52.1089 60.1031L51.9063 58.5225L53.9727 57.3877L55.1883 66.5067L53.0813 67.6416L46.1528 61.6838L48.2192 60.549L49.4348 61.6027L52.1089 60.1031ZM52.8788 64.764L52.3925 61.9675L50.7718 62.8186L52.8788 64.764Z" fill="white"/>
<path id="Vector_17" d="M42.547 71.0057H39.3866C38.8193 71.0463 38.2116 70.9247 37.6848 70.722C37.1581 70.5194 36.7124 70.2357 36.3072 69.8304C35.9021 69.4656 35.5779 69.0198 35.3348 68.4929C35.0917 67.9661 34.9702 67.3986 34.9702 66.8312C34.9296 66.2638 35.0512 65.6559 35.2538 65.129C35.4969 64.6021 35.7805 64.1563 36.1857 63.751C36.5909 63.3457 37.0366 63.062 37.5633 62.8189C38.09 62.6162 38.6573 62.4946 39.2245 62.4541H42.3849L42.547 71.0057ZM40.1969 64.359H39.6702C39.3461 64.359 39.0219 64.3995 38.7383 64.5211C38.4547 64.6021 38.1711 64.7643 37.9685 64.9669C37.7659 65.1695 37.5633 65.4127 37.4417 65.6964C37.3202 66.0612 37.2797 66.426 37.2797 66.7907C37.2797 67.1555 37.3607 67.4797 37.4823 67.8039C37.6038 68.0876 37.7659 68.3308 38.009 68.5335C38.2116 68.7361 38.4952 68.8982 38.7788 68.9793C39.103 69.1009 39.4271 69.1414 39.7512 69.1414H40.278L40.1969 64.359Z" fill="white"/>
<path id="Vector_18" d="M26.0971 66.6688L26.6644 65.3718L24.3549 64.3586L25.1247 62.6564L27.3937 63.6696L28.0015 62.2916L25.5704 61.2379L26.3402 59.4951L30.7972 61.4405L27.3937 69.3032L22.9368 67.3578L23.6661 65.6555L26.0971 66.6688Z" fill="white"/>
<path id="Vector_19" d="M9.36293 33.7598C9.72759 34.8541 10.0922 35.9483 10.4164 37.0426H13.9009L11.1052 39.0691C11.4293 40.1634 11.794 41.2576 12.1586 42.3519L9.36293 40.3255L6.56722 42.3519L7.66119 39.0691L4.86548 37.0426H8.30947C8.67413 35.9483 8.99827 34.8541 9.36293 33.7598Z" fill="white"/>
<path id="Vector_20" d="M11.1864 45.0264C11.5511 46.1207 11.9157 47.2149 12.2399 48.3092H15.7244L12.9287 50.3357C13.2528 51.43 13.6175 52.5243 13.9821 53.6185L11.1864 51.5921L8.3907 53.6185L9.48468 50.3357L6.68896 48.3092H10.133C10.4976 47.2149 10.8218 46.1207 11.1864 45.0264Z" fill="white"/>
<path id="Vector_21" d="M18.4393 54.4297C18.804 55.524 19.1687 56.6183 19.4928 57.7125H22.9368L20.1411 59.6985L21.2351 62.9813L18.4393 60.9549L15.6436 62.9813L16.7376 59.6985L13.9419 57.7125H17.3859C17.7505 56.6183 18.0747 55.524 18.4393 54.4297Z" fill="white"/>
<path id="Vector_22" d="M12.1586 21.9248C12.5232 23.0191 12.8879 24.1134 13.212 25.2077H16.6966L13.9008 27.2341C14.225 28.3284 14.5896 29.4227 14.9543 30.517L12.1586 28.4905L9.36287 30.517L10.4568 27.2341L7.66113 25.2077H11.1051C11.4698 24.1134 11.8344 23.0191 12.1586 21.9248Z" fill="white"/>
<path id="Vector_23" d="M17.5883 12.5225C17.9124 13.6167 18.2771 14.711 18.6417 15.8053H22.0857L19.29 17.8318C19.6547 18.9261 19.9788 20.0203 20.3435 21.1146L17.5883 19.0476L14.7925 21.1146C15.1572 20.0203 15.4813 18.9261 15.846 17.8318L13.0503 15.8053H16.4943L17.5883 12.5225Z" fill="white"/>
</g>
</svg>
