<?xml version="1.0" encoding="UTF-8"?>
<svg id="_Слой_1" data-name="Слой 1" xmlns="http://www.w3.org/2000/svg" xmlns:xlink="http://www.w3.org/1999/xlink" viewBox="0 0 1112.21 482.97">
  <defs>
    <style>
      .cls-1 {
        fill: url(#_Безымянный_градиент_25);
      }

      .cls-1, .cls-2, .cls-3, .cls-4 {
        stroke-width: 0px;
      }

      .cls-2 {
        fill: url(#_Безымянный_градиент_35);
      }

      .cls-3 {
        fill: url(#_Безымянный_градиент_41);
      }

      .cls-5 {
        fill: url(#_Безымянный_градиент_15);
        stroke: #000;
        stroke-miterlimit: 10;
      }

      .cls-4 {
        fill: url(#_Безымянный_градиент_831);
      }
    </style>
    <linearGradient id="_Безымянный_градиент_15" data-name="Безымянный градиент 15" x1="556.11" y1="379.21" x2="556.11" y2="482.47" gradientUnits="userSpaceOnUse">
      <stop offset="0" stop-color="#24324f"/>
      <stop offset="1" stop-color="#131c2b"/>
    </linearGradient>
    <radialGradient id="_Безымянный_градиент_831" data-name="Безымянный градиент 831" cx="556.11" cy="430.84" fx="556.11" fy="430.84" r="367.24" gradientTransform="translate(8.45) scale(.98 1)" gradientUnits="userSpaceOnUse">
      <stop offset="0" stop-color="#fffff2"/>
      <stop offset=".53" stop-color="#fff"/>
      <stop offset="1" stop-color="#fff"/>
    </radialGradient>
    <linearGradient id="_Безымянный_градиент_35" data-name="Безымянный градиент 35" x1="410.18" y1="94.88" x2="705.13" y2="389.83" gradientUnits="userSpaceOnUse">
      <stop offset="0" stop-color="#01addb"/>
      <stop offset="1" stop-color="#028af8"/>
    </linearGradient>
    <linearGradient id="_Безымянный_градиент_25" data-name="Безымянный градиент 25" x1="778.67" y1="9.51" x2="1111.31" y2="342.14" gradientUnits="userSpaceOnUse">
      <stop offset="0" stop-color="#fec200"/>
      <stop offset="1" stop-color="#ff8601"/>
    </linearGradient>
    <linearGradient id="_Безымянный_градиент_41" data-name="Безымянный градиент 41" x1="-3.61" y1="14.88" x2="279.4" y2="297.89" gradientUnits="userSpaceOnUse">
      <stop offset="0" stop-color="#01b882"/>
      <stop offset="1" stop-color="#0fb66e"/>
    </linearGradient>
  </defs>
  <g>
    <rect class="cls-5" x=".5" y="379.21" width="1111.21" height="103.26" rx="15.9" ry="15.9"/>
    <path class="cls-4" d="m45.53,400.25h18.66v61.18h-18.66v-61.18Zm133.98,0h17.39l22.69,33.85v-33.85h17.55v61.18h-17.55l-22.56-33.59v33.59h-17.51v-61.18Zm167.6,0h56.59v15.11h-18.99v46.07h-18.62v-46.07h-18.99v-15.11Zm167.11,61.18v-61.18h31.03c5.75,0,10.15.5,13.19,1.5,3.04,1,5.49,2.86,7.36,5.57,1.86,2.71,2.79,6.02,2.79,9.91,0,3.39-.71,6.32-2.14,8.78s-3.39,4.46-5.88,5.99c-1.59.97-3.77,1.78-6.54,2.42,2.22.75,3.83,1.5,4.85,2.26.68.5,1.68,1.57,2.98,3.22,1.3,1.64,2.17,2.91,2.61,3.8l9.02,17.73h-21.04l-9.95-18.7c-1.26-2.42-2.38-3.99-3.37-4.72-1.34-.95-2.86-1.42-4.56-1.42h-1.64v24.83h-18.7Zm18.7-36.39h7.85c.85,0,2.49-.28,4.93-.83,1.23-.25,2.24-.89,3.02-1.92s1.17-2.21,1.17-3.55c0-1.98-.62-3.49-1.85-4.55s-3.55-1.59-6.95-1.59h-8.18v12.44Zm185.41,26.29h-21.14l-2.94,10.1h-19.01l22.65-61.18h20.31l22.64,61.18h-19.5l-3.01-10.1Zm-3.86-13.23l-6.65-21.99-6.58,21.99h13.23Zm134.38-37.85h27.66c5.45,0,9.86.75,13.21,2.25,3.36,1.5,6.13,3.66,8.32,6.47s3.78,6.08,4.77,9.81,1.48,7.68,1.48,11.85c0,6.54-.73,11.61-2.2,15.21-1.47,3.6-3.5,6.62-6.1,9.06-2.6,2.43-5.4,4.06-8.38,4.86-4.08,1.11-7.78,1.67-11.1,1.67h-27.66v-61.18Zm18.62,13.86v33.43h4.56c3.89,0,6.66-.44,8.3-1.31s2.93-2.41,3.86-4.59,1.4-5.72,1.4-10.62c0-6.48-1.04-10.92-3.12-13.31s-5.53-3.59-10.36-3.59h-4.64Zm148.41-13.86h49.89v13.06h-31.23v9.72h28.97v12.48h-28.97v12.06h32.14v13.86h-50.8v-61.18Z"/>
  </g>
  <g>
    <path class="cls-2" d="m751.61,327.31L619.45,11.13c-2.82-6.74-9.38-11.13-16.64-11.13h-90.3c-7.27,0-13.82,4.39-16.64,11.13l-132.16,316.18c-5.01,11.99,3.73,25.24,16.64,25.24h73.52c7.45,0,14.14-4.61,16.83-11.6l86.95-225.51,86.95,225.51c2.7,7,9.38,11.6,16.83,11.6h73.52c12.91,0,21.65-13.26,16.64-25.24Z"/>
    <path class="cls-1" d="m1107.99,323.61l-106.51-146.3,96.23-149.22c7.8-12.1-.82-28.09-15.14-28.09h-74.12c-6.17,0-11.91,3.17-15.23,8.41l-53.34,84.28-61.63-84.65c-3.4-4.67-8.81-7.43-14.56-7.43h-68.64c-14.73,0-23.26,16.8-14.65,28.83l105.91,147.9-93.21,147.26c-7.66,12.11.97,27.96,15.23,27.96h70.35c6.11,0,11.81-3.12,15.14-8.28l53.09-82.32,59.47,83.05c3.39,4.74,8.84,7.55,14.65,7.55h72.41c14.79,0,23.31-16.93,14.56-28.94Z"/>
    <path class="cls-3" d="m250.91,0H18.75C8.78,0,.69,8.09.69,18.06v67.34c0,9.97,8.09,18.06,18.06,18.06h203.27c15.95,0,28.89,12.93,28.89,28.89v20.42c0,15.95-12.93,28.89-28.89,28.89H18.75c-9.97,0-18.06,8.09-18.06,18.06v134.7c0,9.97,8.09,18.06,18.06,18.06h92.6c9.97,0,18.06-8.09,18.06-18.06v-43.28c0-9.97,8.09-18.06,18.06-18.06h103.44c71.09,0,128.72-57.63,128.72-128.72v-15.64C379.62,57.63,321.99,0,250.91,0h0Z"/>
  </g>
</svg>