<?xml version="1.0" encoding="UTF-8"?>
<svg id="_Слой_1" data-name=" Слой 1" xmlns="http://www.w3.org/2000/svg" xmlns:xlink="http://www.w3.org/1999/xlink" viewBox="0 0 1330 324">
  <defs>
    <style>
      .cls-1 {
        clip-path: url(#clippath);
      }

      .cls-2 {
        fill: none;
      }

      .cls-2, .cls-3, .cls-4 {
        stroke-width: 0px;
      }

      .cls-4 {
        fill-rule: evenodd;
      }
    </style>
    <clipPath id="clippath">
      <rect class="cls-2" width="1330" height="324"/>
    </clipPath>
  </defs>
  <g class="cls-1">
    <g>
      <rect class="cls-3" x="1273" y="2" width="57" height="116" rx="20" ry="20"/>
      <path class="cls-4" d="M340,320V99.47l-113.25,195.36-15.25,28.67h-24.5l-17.25-28.67L1.74,5c-.77-1.33.19-3,1.73-3h52.38c.71,0,1.37.38,1.73,1l133.75,230.73c3.08,5.32,10.76,5.32,13.84,0L338.92,3c.36-.62,1.02-1,1.73-1h54.35c1.11,0,2,.9,2,2v316c0,1.11-.89,2-2,2h-53c-1.11,0-2-.89-2-2h0ZM0,193c0-1.1.9-2,2-2h53c1.1,0,2,.9,2,2v127c0,1.11-.9,2-2,2H2c-1.1,0-2-.89-2-2v-127Z"/>
      <path class="cls-4" d="M1040,2c-11.05,0-20,8.95-20,20v76c0,11.05,8.95,20,20,20h17c11.05,0,20-8.95,20-20V22c0-11.05-8.95-20-20-20h-17ZM1020.23,194.25c-.15,2.23-.23,4.48-.23,6.75,0,67.38,69.4,122,155,122s155-54.62,155-122c0-2.26-.08-4.51-.23-6.75-.37-5.37-5.03-9.25-10.41-9.25h-28.38c-9.26,0-17.27,6.15-21.01,14.63-17.34,39.34-53.36,66.37-94.97,66.37s-77.63-27.03-94.97-66.37c-3.74-8.47-11.75-14.63-21.01-14.63h-28.38c-5.38,0-10.04,3.89-10.41,9.25h0Z"/>
      <path class="cls-4" d="M605,319c-9.17-1.83-27.6-13.9-28-47.5-.5-42,41-94.5,83-136.5S754,32.5,719.5,0h60.5c20,0,111,10.5,111,85,0,54.53-23.51,78.52-80.27,87.47l87.11,142.42c2.04,3.33-.36,7.61-4.27,7.61h-39.93c-1.34,0-2.59-.67-3.33-1.79l-95.48-143.93c-6.05.14-12.32.21-18.83.21v142c0,1.66-1.34,3-3,3h-43c-1.66,0-3-1.34-3-3v-106.18l48.38-54.32h35.62c16,0,69.5-6.5,64.5-73.5s-53-69-92.5-69c7.67,20.83,12.4,73.8-30,119-6.08,6.48-12.58,13.25-19.29,20.23h0c-51.79,53.89-115.71,120.39-88.7,163.77h0ZM526.65,9.76c-2.21-3.32.18-7.76,4.17-7.76h47.54c1.34,0,2.59.67,3.33,1.79l76.1,114.71-34.27,37.27L526.65,9.76Z"/>
    </g>
  </g>
</svg>