<?xml version="1.0" encoding="UTF-8"?>
<svg xmlns="http://www.w3.org/2000/svg" viewBox="0 0 464.22 402">
  <defs>
    <style>
      .cls-1 {
        stroke: #e0e0e0;
        stroke-miterlimit: 10;
        stroke-width: 1.17px;
      }

      .cls-1, .cls-2 {
        fill: #fafafa;
      }

      .cls-3, .cls-4 {
        opacity: .1;
      }

      .cls-4, .cls-5, .cls-6, .cls-7, .cls-8, .cls-9, .cls-10, .cls-11, .cls-2, .cls-12, .cls-13, .cls-14 {
        stroke-width: 0px;
      }

      .cls-5 {
        opacity: .4;
      }

      .cls-5, .cls-11 {
        fill: #fff;
      }

      .cls-7 {
        fill: #27debf;
      }

      .cls-8 {
        fill: #455a64;
      }

      .cls-9 {
        fill: #37474f;
      }

      .cls-10 {
        fill: #e0e0e0;
      }

      .cls-12 {
        fill: #ebebeb;
      }

      .cls-13 {
        fill: #f5f5f5;
      }

      .cls-14 {
        opacity: .2;
      }
    </style>
  </defs>
  <g id="Floor">
    <path id="Floor-2" data-name="Floor" class="cls-13" d="m66.57,367.97c88.76,45.38,232.66,45.38,321.42,0,88.76-45.38,88.76-118.95,0-164.33-88.76-45.38-232.66-45.38-321.42,0-88.76,45.38-88.76,118.95,0,164.33Z"/>
  </g>
  <g id="Shadows">
    <path id="Shadow" class="cls-12" d="m356.85,295.47c4.86,2.81,14.42,1.84,21.35-2.16l39.94-23.19c6.93-4,8.59-9.52,3.72-12.34-4.87-2.81-14.44-1.85-21.37,2.15l-39.9,23.2c-6.93,4-8.6,9.53-3.73,12.33Z"/>
    <polygon id="Shadow-2" data-name="Shadow" class="cls-12" points="116.43 316.86 75.8 293.41 116.42 269.95 116.43 316.86"/>
    <polygon id="Shadow-3" data-name="Shadow" class="cls-12" points="231.23 330.89 165.76 293.07 231.25 255.32 231.23 330.89"/>
  </g>
  <g id="Plants">
    <g id="Plants-2" data-name="Plants">
      <g>
        <g>
          <path class="cls-7" d="m61.48,262.02c.11-9.5-6.52-29.26-16.23-41.72-9.71-12.46-25.1-21.66-36.16-18.03-10.3,3.38-9.35,16.85,2.99,25.92,12.34,9.06,30.9,20.49,36.19,35.97l11.25,19.05,1.96-21.19Z"/>
          <path class="cls-4" d="m61.48,262.02c.11-9.5-6.52-29.26-16.23-41.72-9.71-12.46-25.1-21.66-36.16-18.03-10.3,3.38-9.35,16.85,2.99,25.92,12.34,9.06,30.9,20.49,36.19,35.97l11.25,19.05,1.96-21.19Z"/>
        </g>
        <path class="cls-11" d="m62.02,275.03c-.3-.03-.56-.25-.62-.57-5.97-32.51-31.89-59.19-47.53-65.2-.36-.14-.54-.54-.4-.9.14-.36.53-.54.9-.4,15.93,6.13,42.33,33.24,48.39,66.25.07.38-.18.74-.56.81-.06.01-.13.01-.19,0Z"/>
      </g>
      <g>
        <path class="cls-7" d="m56.93,295.74c-1.46-5.36-7.88-14.25-18.34-21.66-11.57-8.19-26.3-12.07-29.63-18.38-4-7.58,2.43-14.62,14.4-12.99s32.85,18.24,35.93,42.91l-2.36,10.12Z"/>
        <path class="cls-11" d="m59.32,290.16c-.26-.02-.5-.2-.59-.47-9.61-27.9-30.69-37.91-40.5-39.3-.38-.05-.64-.41-.59-.78.05-.38.39-.64.78-.59,10.84,1.54,31.8,11.74,41.62,40.23.12.36-.07.76-.43.88-.1.03-.19.04-.29.04Z"/>
      </g>
    </g>
    <g id="Plants-3" data-name="Plants">
      <g>
        <path class="cls-7" d="m416.04,234.98s1.33-20.03,13.14-34.9c11.8-14.87,11.08-20.99,2.94-23.99-8.14-3-27.05,14.92-22.84,38.92,4.21,24,6.76,19.98,6.76,19.98Z"/>
        <path class="cls-4" d="m416.04,234.98s1.33-20.03,13.14-34.9c11.8-14.87,11.08-20.99,2.94-23.99-8.14-3-27.05,14.92-22.84,38.92,4.21,24,6.76,19.98,6.76,19.98Z"/>
        <path class="cls-11" d="m412.43,223.54c-.24,0-.45-.19-.46-.44-1.38-22.06,14.2-40.16,20.03-44.25.21-.15.5-.1.65.11.15.21.1.5-.11.65-5.72,4.02-20.99,21.77-19.64,43.44.02.26-.18.48-.44.49,0,0-.02,0-.03,0Z"/>
      </g>
      <g>
        <path class="cls-7" d="m412.83,251.52s7.11,2.47,16.26,3.91c9.14,1.45,13.18-2.92,13.18-2.92,0,0-3.6-8.57-8.79-10.98,0,0,8.8,1.79,15.87,6.51,0,0,5.58.08,7.8-8.43,0,0-3.31-5.13-14.4-7.9,0,0,6.75-1.7,16.48.78.73.29,3.84-10.73,4.78-15.81.94-5.08-1.1-5.03-5.06-6.09-3.96-1.06-17.08-4-19.56-1.83-2.48,2.18-3.74,9.63-3.74,9.63,0,0-1.63-4.4-.37-9.44,0,0-3.57-1.39-9.1.22-4.53,1.32-4.75,4.4-4.54,7.88.15,2.54.76,5.25,1.96,8.84,0,0-3.53-4.52-3.64-14.32,0,0-9.26,4.6-10.84,13.79-.85,4.97-2.07,19.56,3.73,26.17Z"/>
        <path class="cls-11" d="m414.58,249.74c.19,0,.37-.11.46-.29,7.38-15.33,34.8-33.13,44.63-35.04.28-.05.46-.32.41-.6-.05-.28-.33-.46-.6-.41-9.99,1.94-37.86,20.04-45.35,35.61-.12.26-.02.56.24.69.07.04.15.05.22.05Z"/>
      </g>
    </g>
  </g>
  <g id="Computer_Screen" data-name="Computer Screen">
    <g>
      <g>
        <g>
          <path class="cls-2" d="m57.9,302.82c-1.13,0-1.81-.94-1.81-2.51v-168.21L262.08,13.18v167.53c0,2.57-1.81,5.71-4.04,6.99l-198.5,114.61c-.58.34-1.15.51-1.64.51h0Z"/>
          <path class="cls-10" d="m261.49,14.19v166.52c0,2.34-1.71,5.31-3.74,6.49l-198.5,114.61c-.49.28-.96.43-1.35.43-1.11,0-1.23-1.34-1.23-1.92v-167.87L261.49,14.19m1.17-2.03L55.5,131.77v168.55c0,1.96.98,3.09,2.4,3.09.58,0,1.24-.19,1.93-.59l198.5-114.61c2.39-1.38,4.33-4.74,4.33-7.5V12.16h0Z"/>
        </g>
        <polygon class="cls-7" points="55.5 131.77 55.5 159.91 262.66 40.31 262.66 12.16 55.5 131.77"/>
        <path class="cls-2" d="m71.75,133.27v4.04c0,.82.59,1.16,1.3.75l63.69-36.77v-7.04s-63.69,36.77-63.69,36.77c-.71.41-1.3,1.43-1.3,2.25Z"/>
        <path class="cls-8" d="m143.56,90.31c.72-.41,1.3-.08,1.3.75v4.04c0,.83-.58,1.84-1.3,2.25l-6.83,3.94v-7.04s6.83-3.94,6.83-3.94Z"/>
        <path class="cls-8" d="m55.5,122.7c0-2.76,1.94-6.12,4.33-7.5L258.33.59c2.39-1.38,4.33-.26,4.33,2.5v9.07L55.5,131.77v-9.07Z"/>
        <g>
          <path class="cls-7" d="m239.64,16.09c-1.12.65-2.03,2.22-2.03,3.52s.91,1.82,2.03,1.17c1.12-.65,2.03-2.22,2.03-3.52s-.91-1.82-2.03-1.17Z"/>
          <path class="cls-7" d="m246.07,12.37c-1.12.65-2.03,2.22-2.03,3.52s.91,1.82,2.03,1.17c1.12-.65,2.03-2.22,2.03-3.52s-.91-1.82-2.03-1.17Z"/>
          <path class="cls-7" d="m252.51,8.65c-1.12.65-2.03,2.22-2.03,3.52s.91,1.82,2.03,1.17,2.03-2.22,2.03-3.52-.91-1.82-2.03-1.17Z"/>
        </g>
        <g class="cls-3">
          <path class="cls-6" d="m197.67,58.63c-2.45,1.42-4.44,4.86-4.44,7.69s1.99,3.98,4.44,2.56c2.45-1.42,4.44-4.86,4.44-7.69s-1.99-3.98-4.44-2.56Z"/>
          <path class="cls-6" d="m177.36,70.36c-2.45,1.42-4.44,4.86-4.44,7.69s1.99,3.98,4.44,2.56,4.44-4.86,4.44-7.69-1.99-3.98-4.44-2.56Z"/>
          <path class="cls-6" d="m217.98,46.91c-2.45,1.42-4.44,4.86-4.44,7.69s1.99,3.98,4.44,2.56,4.44-4.86,4.44-7.69-1.99-3.98-4.44-2.56Z"/>
          <path class="cls-6" d="m238.29,35.16c-2.45,1.42-4.44,4.86-4.44,7.69s1.99,3.98,4.44,2.56c2.45-1.42,4.44-4.86,4.44-7.69s-1.99-3.98-4.44-2.56Z"/>
        </g>
      </g>
      <path class="cls-10" d="m76.08,162.1l48.21-27.83c2.39-1.38,4.33-.26,4.33,2.5v46.29c0,2.76-1.94,6.12-4.33,7.5l-48.21,27.83c-2.39,1.38-4.33.26-4.33-2.5v-46.29c0-2.76,1.94-6.12,4.33-7.5Z"/>
      <path class="cls-10" d="m145.13,122.24l101.01-58.32c2.39-1.38,4.33-.26,4.33,2.5v46.29c0,2.76-1.94,6.12-4.33,7.5l-101.01,58.32c-2.39,1.38-4.33.26-4.33-2.5v-46.29c0-2.76,1.94-6.12,4.33-7.5Z"/>
      <g>
        <path class="cls-10" d="m76.08,232.46l76.64-44.25c2.39-1.38,4.33-.4,4.33,2.19s-1.94,5.81-4.33,7.19l-76.64,44.25c-2.39,1.38-4.33.4-4.33-2.19s1.94-5.81,4.33-7.19Z"/>
        <path class="cls-10" d="m76.08,248.88l76.64-44.25c2.39-1.38,4.33-.4,4.33,2.19s-1.94,5.81-4.33,7.19l-76.64,44.25c-2.39,1.38-4.33.4-4.33-2.19s1.94-5.81,4.33-7.19Z"/>
        <path class="cls-10" d="m76.08,265.29l76.64-44.25c2.39-1.38,4.33-.4,4.33,2.19s-1.94,5.81-4.33,7.19l-76.64,44.25c-2.39,1.38-4.33.4-4.33-2.19s1.94-5.81,4.33-7.19Z"/>
      </g>
    </g>
  </g>
  <g id="Envelope">
    <g id="Letter">
      <path class="cls-7" d="m112.37,209.63c0-1.66,1.16-3.67,2.6-4.5l132.91-76.74c1.43-.83,3.76-.83,5.2,0l2.93,1.69c1.43.83,2.6,2.84,2.6,4.5v101.88c0,1.65-1.17,3.67-2.6,4.5l-132.91,76.74c-1.43.82-3.77.82-5.2,0l-2.93-1.69c-1.43-.82-2.6-2.85-2.6-4.5v-101.88Z"/>
      <path class="cls-5" d="m113.12,207.07l7.37,4.25,137.34-79.3c-.47-.81-1.12-1.52-1.83-1.94l-2.94-1.68c-1.43-.84-3.76-.84-5.19,0l-132.91,76.73c-.73.42-1.38,1.13-1.84,1.94Z"/>
      <path class="cls-4" d="m112.36,209.63v101.88c0,1.66,1.17,3.67,2.61,4.5l2.93,1.7c.22.12.45.23.71.32.33.11.69.2,1.07.25.68.09,1.39.06,2.05-.07.17-.04.34-.09.5-.14.11-.04.21-.07.31-.12-.48.17-.9.15-1.24-.02-.49-.26-.8-.85-.8-1.71v-101.88c0-1.07.54-1.88,1.35-2.21l-1.35-.79-7.37-4.25c-.47.81-.76,1.73-.76,2.56Z"/>
      <path class="cls-14" d="m120.5,211.32l61.55,23c4.39,1.63,9.32.01,11.87-3.91l9.88-15.14,54.52-83.53-52.55,84.1,52.82,20.67c-.01.84-.32,1.77-.81,2.59l-52.15-23.03-11.49,18.38c-2.64,4.22-7.98,5.86-12.52,3.85l-8.18-3.61-52.14,83.22c-.49-.26-.8-.85-.8-1.71v-1.7l52.69-79.92-52.69-23.26Z"/>
    </g>
  </g>
  <g id="Mobile_Screen" data-name="Mobile Screen">
    <g>
      <path class="cls-1" d="m230.17,94.36v233.9c0,2.76,1.94,3.88,4.33,2.5l105.08-60.67c2.39-1.38,4.33-4.74,4.33-7.5V28.7c0-2.76-1.94-3.88-4.33-2.5l-105.08,60.67c-2.39,1.38-4.33,4.74-4.33,7.5Z"/>
      <path class="cls-8" d="m236.26,98.72c0-.65.5-1.46,1.13-1.82l11.97-6.91c.62-.36,1.13-.12,1.13.52s-.5,1.46-1.13,1.82l-11.97,6.91c-.62.36-1.13.12-1.13-.52Z"/>
      <path class="cls-8" d="m236.26,103.38c0-.65.5-1.46,1.13-1.82l11.97-6.91c.62-.36,1.13-.12,1.13.52s-.5,1.46-1.13,1.82l-11.97,6.91c-.62.36-1.13.12-1.13-.52Z"/>
      <path class="cls-8" d="m236.26,108.04c0-.65.5-1.46,1.13-1.82l11.97-6.91c.62-.36,1.13-.12,1.13.52s-.5,1.46-1.13,1.82l-11.97,6.91c-.62.36-1.13.12-1.13-.52Z"/>
      <path class="cls-9" d="m335.78,48.06v-1.87c0-.11-.08-.16-.18-.12l-1.44.65c-.1.05-.21,0-.24-.11-.08-.26-.19-.5-.32-.71-.06-.1-.07-.25-.02-.35l.96-1.94c.05-.1.01-.23-.09-.28l-1.04-.6c-.1-.06-.22-.03-.29.07l-1.2,1.8c-.06.09-.2.16-.31.16-.25,0-.51.02-.78.08-.11.02-.2-.04-.22-.15l-.16-1.57c-.01-.11-.1-.16-.19-.1l-1.62.93c-.1.06-.18.19-.19.3l-.16,1.8c-.01.11-.09.26-.17.34-.31.29-.62.61-.9.95-.07.09-.21.13-.32.09l-1.04-.36c-.11-.04-.24.01-.29.11l-1.19,2.06c-.06.1-.03.23.05.31l.83.72c.08.07.12.22.08.32-.15.42-.28.84-.37,1.25-.02.11-.12.25-.21.31l-1.48,1.04c-.09.06-.17.21-.17.32v1.87c0,.11.08.16.18.12l1.44-.65c.1-.05.21,0,.24.11.08.26.19.5.32.71.06.1.07.25.02.35l-.96,1.93c-.05.1-.01.23.09.28l1.04.6c.1.06.22.03.29-.07l1.2-1.8c.06-.09.2-.16.31-.16.25,0,.51-.02.78-.08.11-.02.2.04.22.15l.16,1.57c.01.11.1.16.19.1l1.62-.93c.1-.06.18-.19.19-.3l.16-1.8c.01-.11.09-.26.17-.34.31-.29.62-.61.9-.95.07-.09.21-.13.32-.09l1.04.36c.11.04.24-.01.29-.11l1.19-2.06c.06-.1.03-.23-.05-.31l-.83-.72c-.08-.07-.12-.22-.08-.32.15-.42.28-.84.37-1.25.02-.11.12-.25.21-.31l1.48-1.04c.09-.06.17-.21.17-.32Zm-6.33,5.87c-1.51.87-2.73.16-2.73-1.58s1.22-3.86,2.73-4.73c1.51-.87,2.73-.16,2.73,1.58s-1.22,3.86-2.73,4.73Z"/>
      <g>
        <path class="cls-8" d="m287.04,94.16c12.28-7.09,22.23-1.34,22.23,12.83s-9.95,31.42-22.23,38.5c-12.28,7.09-22.23,1.34-22.23-12.84s9.95-31.42,22.23-38.5Z"/>
        <path class="cls-7" d="m286.88,105.32c3.98-2.3,7.21-.44,7.21,4.16s-3.23,10.19-7.21,12.49c-3.98,2.3-7.21.44-7.21-4.16s3.23-10.19,7.21-12.49Z"/>
        <path class="cls-7" d="m301.09,129.84c0-7.56-5.31-10.62-11.85-6.84l-4.09,2.36c-6.54,3.78-11.85,12.97-11.85,20.52v2.06c1.18.39,2.46.59,3.82.59,2.98,0,6.35-.98,9.91-3.04,5.33-3.08,10.23-8.08,14.06-13.91v-1.75Z"/>
      </g>
      <path class="cls-7" d="m266.97,166.59l40.13-23.17c1.2-.69,2.17-.2,2.17,1.1s-.97,2.9-2.17,3.6l-40.13,23.17c-1.2.69-2.17.2-2.17-1.1s.97-2.9,2.17-3.6Z"/>
      <path class="cls-8" d="m262.66,183.16l48.74-28.17c1.2-.69,2.17-.2,2.17,1.1s-.97,2.9-2.17,3.6l-48.74,28.17c-1.2.69-2.17.2-2.17-1.1s.97-2.9,2.17-3.6Z"/>
      <path class="cls-9" d="m312.71,177.7l13.65-7.88c.72-.41,1.3-.22,1.3.42s-.58,1.51-1.3,1.92l-13.65,7.88c-.72.41-1.3.23-1.3-.42s.58-1.51,1.3-1.92Z"/>
      <g>
        <path class="cls-7" d="m244.52,212.39l20.04-11.57c1.2-.69,2.17-.13,2.17,1.25v13.76c0,1.38-.97,3.06-2.16,3.75l-20.04,11.57c-1.2.69-2.17.13-2.17-1.25v-13.76c0-1.38.97-3.06,2.17-3.75Z"/>
        <path class="cls-2" d="m247.71,214.31l13.65-7.88c.72-.41,1.3-.22,1.3.42s-.58,1.51-1.3,1.92l-13.65,7.88c-.72.41-1.3.22-1.3-.42s.58-1.51,1.3-1.92Z"/>
        <path class="cls-2" d="m246.42,221.25v4.04c0,.83.58,1.16,1.3.75l13.65-7.88c.72-.41,1.3-1.42,1.3-2.25v-4.04c0-.83-.58-1.16-1.3-.75l-13.65,7.88c-.72.41-1.3,1.42-1.3,2.25Z"/>
      </g>
      <g>
        <path class="cls-7" d="m277.01,193.63l20.04-11.57c1.2-.69,2.17-.13,2.17,1.25v13.76c0,1.38-.97,3.06-2.17,3.75l-20.04,11.57c-1.2.69-2.17.13-2.17-1.25v-13.76c0-1.38.97-3.06,2.17-3.75Z"/>
        <path class="cls-2" d="m280.21,195.55l13.65-7.88c.72-.41,1.3-.22,1.3.42s-.58,1.51-1.3,1.92l-13.65,7.88c-.72.41-1.3.22-1.3-.42s.58-1.51,1.3-1.92Z"/>
        <path class="cls-2" d="m278.91,202.49v4.04c0,.83.58,1.16,1.3.75l13.65-7.88c.72-.41,1.3-1.42,1.3-2.25v-4.04c0-.83-.58-1.16-1.3-.75l-13.65,7.88c-.72.41-1.3,1.42-1.3,2.25Z"/>
      </g>
      <g>
        <path class="cls-7" d="m309.51,174.86l20.04-11.57c1.2-.69,2.17-.13,2.17,1.25v13.76c0,1.38-.97,3.06-2.17,3.75l-20.04,11.57c-1.2.69-2.17.13-2.17-1.25v-13.76c0-1.38.97-3.06,2.16-3.75Z"/>
        <path class="cls-2" d="m312.71,176.79l13.65-7.88c.72-.41,1.3-.23,1.3.42s-.58,1.51-1.3,1.92l-13.65,7.88c-.72.41-1.3.23-1.3-.42s.58-1.51,1.3-1.92Z"/>
        <path class="cls-2" d="m311.41,183.73v4.04c0,.83.58,1.16,1.3.75l13.65-7.88c.72-.41,1.3-1.42,1.3-2.25v-4.04c0-.83-.58-1.16-1.3-.75l-13.65,7.88c-.72.41-1.3,1.42-1.3,2.25Z"/>
      </g>
      <path class="cls-10" d="m246.68,243.97l80.7-46.59c2.39-1.38,4.33-.4,4.33,2.19s-1.94,5.81-4.33,7.19l-80.7,46.59c-2.39,1.38-4.33.4-4.33-2.19s1.94-5.81,4.33-7.19Z"/>
      <path class="cls-10" d="m246.68,262.73l80.7-46.59c2.39-1.38,4.33-.4,4.33,2.19s-1.94,5.81-4.33,7.19l-80.7,46.59c-2.39,1.38-4.33.4-4.33-2.19s1.94-5.81,4.33-7.19Z"/>
      <path class="cls-7" d="m272.95,271.02l28.17-16.26c1.2-.69,2.17-.13,2.17,1.25v9.07c0,1.38-.97,3.06-2.17,3.75l-28.17,16.26c-1.2.69-2.17.13-2.17-1.25v-9.07c0-1.38.97-3.06,2.16-3.75Z"/>
      <g>
        <path class="cls-2" d="m248.45,245.35c-1.12.65-2.03,2.22-2.03,3.52s.91,1.82,2.03,1.17c1.12-.65,2.03-2.22,2.03-3.52s-.91-1.82-2.03-1.17Z"/>
        <path class="cls-2" d="m254.88,241.63c-1.12.65-2.03,2.22-2.03,3.52s.91,1.82,2.03,1.17c1.12-.65,2.03-2.22,2.03-3.52s-.91-1.82-2.03-1.17Z"/>
        <path class="cls-2" d="m261.31,237.91c-1.12.65-2.03,2.22-2.03,3.52s.91,1.82,2.03,1.17,2.03-2.22,2.03-3.52-.91-1.82-2.03-1.17Z"/>
        <path class="cls-2" d="m267.75,234.19c-1.12.65-2.03,2.22-2.03,3.52s.91,1.82,2.03,1.17,2.03-2.22,2.03-3.52-.91-1.82-2.03-1.17Z"/>
        <path class="cls-2" d="m274.18,230.47c-1.12.65-2.03,2.22-2.03,3.52s.91,1.82,2.03,1.17c1.12-.65,2.03-2.22,2.03-3.52s-.91-1.82-2.03-1.17Z"/>
        <path class="cls-2" d="m280.62,226.75c-1.12.65-2.03,2.22-2.03,3.52s.91,1.82,2.03,1.17c1.12-.65,2.03-2.22,2.03-3.52s-.91-1.82-2.03-1.17Z"/>
        <path class="cls-2" d="m287.05,223.03c-1.12.65-2.03,2.22-2.03,3.52s.91,1.82,2.03,1.17c1.12-.65,2.03-2.22,2.03-3.52s-.91-1.82-2.03-1.17Z"/>
      </g>
      <g>
        <path class="cls-2" d="m248.45,264.13c-1.12.65-2.03,2.22-2.03,3.52s.91,1.82,2.03,1.17c1.12-.65,2.03-2.22,2.03-3.52s-.91-1.82-2.03-1.17Z"/>
        <path class="cls-2" d="m254.88,260.41c-1.12.65-2.03,2.22-2.03,3.52s.91,1.82,2.03,1.17c1.12-.65,2.03-2.22,2.03-3.52s-.91-1.82-2.03-1.17Z"/>
        <path class="cls-2" d="m261.31,256.69c-1.12.65-2.03,2.22-2.03,3.52s.91,1.82,2.03,1.17,2.03-2.22,2.03-3.52-.91-1.82-2.03-1.17Z"/>
        <path class="cls-2" d="m267.75,252.97c-1.12.65-2.03,2.22-2.03,3.52s.91,1.82,2.03,1.17,2.03-2.22,2.03-3.52-.91-1.82-2.03-1.17Z"/>
        <path class="cls-2" d="m274.18,249.25c-1.12.65-2.03,2.22-2.03,3.52s.91,1.82,2.03,1.17c1.12-.65,2.03-2.22,2.03-3.52s-.91-1.82-2.03-1.17Z"/>
        <path class="cls-2" d="m280.62,245.53c-1.12.65-2.03,2.22-2.03,3.52s.91,1.82,2.03,1.17c1.12-.65,2.03-2.22,2.03-3.52s-.91-1.82-2.03-1.17Z"/>
        <path class="cls-2" d="m287.05,241.81c-1.12.65-2.03,2.22-2.03,3.52s.91,1.82,2.03,1.17c1.12-.65,2.03-2.22,2.03-3.52s-.91-1.82-2.03-1.17Z"/>
      </g>
    </g>
  </g>
  <g id="Key">
    <g>
      <g>
        <path class="cls-8" d="m377.3,284.09c-3.51,0-6.83-.86-9.85-2.6-7.21-4.16-11.34-12.87-11.34-23.89,0-19.38,12.32-41.68,28.05-50.76,8.47-4.89,16.88-5.42,23.68-1.49,7.21,4.16,11.34,12.87,11.34,23.89,0,19.38-12.32,41.68-28.05,50.76-4.72,2.72-9.42,4.09-13.83,4.09Zm20.66-67.38c-2.52,0-5.19,1.27-6.83,2.21-11.42,6.59-21.07,24.31-21.07,38.68,0,5.82,1.63,10.23,4.36,11.81,3.11,1.8,7.43-.16,9.73-1.49,11.42-6.59,21.07-24.31,21.07-38.68,0-5.82-1.63-10.23-4.36-11.81-.89-.52-1.89-.72-2.9-.72Z"/>
        <path class="cls-9" d="m407.72,232.34c0-10.89-6.86-14.91-6.86-14.91h0c2.73,1.58,4.36,5.99,4.36,11.81,0,14.37-9.65,32.08-21.07,38.68-2.3,1.33-6.62,3.29-9.73,1.49,0,0,5.79,3.59,13.78-.77,11.58-6.32,19.51-21.92,19.51-36.29Z"/>
      </g>
      <path class="cls-9" d="m396.72,96.25c0-3.98-3.23-7.21-7.21-7.21s-7.21,3.23-7.21,7.21c0,0,0,.01,0,.02h0v114.71h0c0,1.07.7,2.13,2.11,2.94,2.82,1.63,7.38,1.63,10.2,0,1.41-.81,2.11-1.88,2.11-2.94h0v-114.71h0s0-.01,0-.02Z"/>
      <path class="cls-8" d="m390.96,121.88c0-2.66-1.86-5.89-4.17-7.21-1.17-.68-2.22-.72-2.98-.26h0s-17.8,10.25-17.8,10.25l-.43.26c-.06.03-.12.06-.17.1-.31.21-.59.44-.85.7-1.08,1.07-1.74,2.55-1.74,4.18,0,2.24,1.24,4.18,3.07,5.19.84.45,1.79.71,2.82.71s1.98-.26,2.81-.71c.11-.06.23-.13.34-.19l17.91-10.32h0c.74-.44,1.2-1.37,1.2-2.69Z"/>
      <path class="cls-8" d="m390.96,150.61c0-2.66-1.86-5.89-4.17-7.21-1.17-.68-2.22-.72-2.98-.26h0s-20.86,11.97-20.86,11.97l-.43.26c-.06.03-.12.06-.17.1-.31.2-.59.44-.85.7-1.08,1.07-1.74,2.55-1.74,4.18,0,2.24,1.24,4.18,3.07,5.19.84.45,1.79.71,2.82.71s1.98-.26,2.81-.71c.11-.06.23-.13.34-.19l20.97-12.04h0c.74-.44,1.2-1.37,1.2-2.69Z"/>
    </g>
  </g>
</svg>