<?xml version="1.0" encoding="utf-8"?>
<!-- Generator: Adobe Illustrator 28.2.0, SVG Export Plug-In . SVG Version: 6.00 Build 0)  -->
<svg version="1.1" id="Слой_1" xmlns="http://www.w3.org/2000/svg" xmlns:xlink="http://www.w3.org/1999/xlink" x="0px" y="0px"
	 viewBox="0 0 464.2 402" style="enable-background:new 0 0 464.2 402;" xml:space="preserve">
<style type="text/css">
	.st0{fill:#F5F5F5;}
	.st1{fill:#EBEBEB;}
	.st2{fill:#73A3FF;}
	.st3{opacity:0.1;enable-background:new    ;}
	.st4{fill:#FFFFFF;}
	.st5{fill:#6A6A85;}
	.st6{opacity:0.1;}
	.st7{opacity:0.4;fill:#FFFFFF;enable-background:new    ;}
	.st8{opacity:0.2;enable-background:new    ;}
	.st9{fill:#FFFFFF;stroke:#FFFFFF;stroke-width:1.17;stroke-miterlimit:10;}
	.st10{fill:#595A70;}
	.st11{fill:#455A64;}
	.st12{fill:#37474F;}
</style>
<g id="Floor">
	<path id="Floor-2" class="st0" d="M66.6,368c88.8,45.4,232.7,45.4,321.4,0s88.8-118.9,0-164.3s-232.7-45.4-321.4,0
		S-22.2,322.6,66.6,368z"/>
</g>
<g id="Shadows">
	<path id="Shadow" class="st1" d="M356.9,295.5c4.9,2.8,14.4,1.8,21.4-2.2l39.9-23.2c6.9-4,8.6-9.5,3.7-12.3
		c-4.9-2.8-14.4-1.9-21.4,2.1l-39.9,23.2C353.7,287.1,352,292.7,356.9,295.5L356.9,295.5z"/>
	<polygon id="Shadow-2" class="st1" points="116.4,316.9 75.8,293.4 116.4,270 	"/>
	<polygon id="Shadow-3" class="st1" points="231.2,330.9 165.8,293.1 231.2,255.3 	"/>
</g>
<g id="Plants">
	<g id="Plants-2">
		<g>
			<g>
				<path class="st2" d="M61.5,262c0.1-9.5-6.5-29.3-16.2-41.7s-25.1-21.7-36.2-18c-10.3,3.4-9.4,16.9,3,25.9
					c12.3,9.1,30.9,20.5,36.2,36l11.2,19L61.5,262L61.5,262z"/>
				<path class="st3" d="M61.5,262c0.1-9.5-6.5-29.3-16.2-41.7s-25.1-21.7-36.2-18c-10.3,3.4-9.4,16.9,3,25.9
					c12.3,9.1,30.9,20.5,36.2,36l11.2,19L61.5,262L61.5,262z"/>
			</g>
			<path class="st4" d="M62,275c-0.3,0-0.6-0.2-0.6-0.6c-6-32.5-31.9-59.2-47.5-65.2c-0.4-0.1-0.5-0.5-0.4-0.9s0.5-0.5,0.9-0.4
				c15.9,6.1,42.3,33.2,48.4,66.3c0.1,0.4-0.2,0.7-0.6,0.8C62.1,275,62.1,275,62,275L62,275z"/>
		</g>
		<g>
			<path class="st2" d="M56.9,295.7c-1.5-5.4-7.9-14.2-18.3-21.7C27,265.9,12.3,262,9,255.7c-4-7.6,2.4-14.6,14.4-13
				s32.8,18.2,35.9,42.9L56.9,295.7L56.9,295.7z"/>
			<path class="st4" d="M59.3,290.2c-0.3,0-0.5-0.2-0.6-0.5c-9.6-27.9-30.7-37.9-40.5-39.3c-0.4-0.1-0.6-0.4-0.6-0.8
				c0-0.4,0.4-0.6,0.8-0.6c10.8,1.5,31.8,11.7,41.6,40.2c0.1,0.4-0.1,0.8-0.4,0.9C59.5,290.2,59.4,290.2,59.3,290.2L59.3,290.2z"/>
		</g>
	</g>
	<g id="Plants-3">
		<g>
			<path class="st2" d="M416,235c0,0,1.3-20,13.1-34.9c11.8-14.9,11.1-21,2.9-24c-8.1-3-27,14.9-22.8,38.9S416,235,416,235L416,235z
				"/>
			<path class="st3" d="M416,235c0,0,1.3-20,13.1-34.9c11.8-14.9,11.1-21,2.9-24c-8.1-3-27,14.9-22.8,38.9S416,235,416,235L416,235z
				"/>
			<path class="st4" d="M412.4,223.5c-0.2,0-0.5-0.2-0.5-0.4c-1.4-22.1,14.2-40.2,20-44.2c0.2-0.1,0.5-0.1,0.6,0.1s0.1,0.5-0.1,0.6
				c-5.7,4-21,21.8-19.6,43.4C412.9,223.3,412.7,223.5,412.4,223.5C412.5,223.5,412.4,223.5,412.4,223.5L412.4,223.5z"/>
		</g>
		<g>
			<path class="st2" d="M412.8,251.5c0,0,7.1,2.5,16.3,3.9c9.1,1.4,13.2-2.9,13.2-2.9s-3.6-8.6-8.8-11c0,0,8.8,1.8,15.9,6.5
				c0,0,5.6,0.1,7.8-8.4c0,0-3.3-5.1-14.4-7.9c0,0,6.8-1.7,16.5,0.8c0.7,0.3,3.8-10.7,4.8-15.8s-1.1-5-5.1-6.1s-17.1-4-19.6-1.8
				c-2.5,2.2-3.7,9.6-3.7,9.6s-1.6-4.4-0.4-9.4c0,0-3.6-1.4-9.1,0.2c-4.5,1.3-4.8,4.4-4.5,7.9c0.1,2.5,0.8,5.2,2,8.8
				c0,0-3.5-4.5-3.6-14.3c0,0-9.3,4.6-10.8,13.8C408.3,230.3,407,244.9,412.8,251.5L412.8,251.5z"/>
			<path class="st4" d="M414.6,249.7c0.2,0,0.4-0.1,0.5-0.3c7.4-15.3,34.8-33.1,44.6-35c0.3-0.1,0.5-0.3,0.4-0.6s-0.3-0.5-0.6-0.4
				c-10,1.9-37.9,20-45.4,35.6c-0.1,0.3,0,0.6,0.2,0.7C414.4,249.7,414.5,249.8,414.6,249.7L414.6,249.7z"/>
		</g>
	</g>
</g>
<g id="Computer_Screen">
	<g>
		<g>
			<g>
				<path class="st4" d="M57.9,302.8c-1.1,0-1.8-0.9-1.8-2.5V132.1l206-118.9v167.5c0,2.6-1.8,5.7-4,7L59.5,302.3
					C59,302.6,58.4,302.8,57.9,302.8L57.9,302.8L57.9,302.8z"/>
				<path class="st4" d="M261.5,14.2v166.5c0,2.3-1.7,5.3-3.7,6.5L59.2,301.8c-0.5,0.3-1,0.4-1.3,0.4c-1.1,0-1.2-1.3-1.2-1.9V132.4
					L261.5,14.2 M262.7,12.2L55.5,131.8v168.6c0,2,1,3.1,2.4,3.1c0.6,0,1.2-0.2,1.9-0.6l198.5-114.6c2.4-1.4,4.3-4.7,4.3-7.5V12.2
					L262.7,12.2z"/>
			</g>
			<polygon class="st2" points="55.5,131.8 55.5,159.9 262.7,40.3 262.7,12.2 			"/>
			<path class="st4" d="M71.8,133.3v4c0,0.8,0.6,1.2,1.3,0.8l63.7-36.8v-7L73.1,131C72.3,131.4,71.8,132.4,71.8,133.3L71.8,133.3z"
				/>
			<path class="st5" d="M143.6,90.3c0.7-0.4,1.3-0.1,1.3,0.8v4c0,0.8-0.6,1.8-1.3,2.2l-6.8,3.9v-7L143.6,90.3z"/>
			<path class="st5" d="M55.5,122.7c0-2.8,1.9-6.1,4.3-7.5L258.3,0.6c2.4-1.4,4.3-0.3,4.3,2.5v9.1L55.5,131.8
				C55.5,131.8,55.5,122.7,55.5,122.7z"/>
			<g>
				<path class="st2" d="M239.6,16.1c-1.1,0.6-2,2.2-2,3.5s0.9,1.8,2,1.2s2-2.2,2-3.5S240.8,15.4,239.6,16.1z"/>
				<path class="st2" d="M246.1,12.4c-1.1,0.6-2,2.2-2,3.5s0.9,1.8,2,1.2s2-2.2,2-3.5S247.2,11.7,246.1,12.4z"/>
				<path class="st2" d="M252.5,8.6c-1.1,0.6-2,2.2-2,3.5s0.9,1.8,2,1.2s2-2.2,2-3.5S253.6,8,252.5,8.6z"/>
			</g>
			<g class="st6">
				<path d="M197.7,58.6c-2.4,1.4-4.4,4.9-4.4,7.7c0,2.8,2,4,4.4,2.6c2.4-1.4,4.4-4.9,4.4-7.7S200.1,57.2,197.7,58.6z"/>
				<path d="M177.4,70.4c-2.4,1.4-4.4,4.9-4.4,7.7s2,4,4.4,2.6s4.4-4.9,4.4-7.7S179.8,68.9,177.4,70.4z"/>
				<path d="M218,46.9c-2.4,1.4-4.4,4.9-4.4,7.7s2,4,4.4,2.6s4.4-4.9,4.4-7.7S220.4,45.5,218,46.9z"/>
				<path d="M238.3,35.2c-2.4,1.4-4.4,4.9-4.4,7.7s2,4,4.4,2.6s4.4-4.9,4.4-7.7S240.7,33.7,238.3,35.2z"/>
			</g>
		</g>
		<path class="st4" d="M76.1,162.1l48.2-27.8c2.4-1.4,4.3-0.3,4.3,2.5v46.3c0,2.8-1.9,6.1-4.3,7.5l-48.2,27.8
			c-2.4,1.4-4.3,0.3-4.3-2.5v-46.3C71.7,166.8,73.7,163.5,76.1,162.1z"/>
		<path class="st4" d="M145.1,122.2l101-58.3c2.4-1.4,4.3-0.3,4.3,2.5v46.3c0,2.8-1.9,6.1-4.3,7.5l-101,58.3
			c-2.4,1.4-4.3,0.3-4.3-2.5v-46.3C140.8,127,142.7,123.6,145.1,122.2z"/>
		<g>
			<path class="st4" d="M76.1,232.5l76.6-44.2c2.4-1.4,4.3-0.4,4.3,2.2s-1.9,5.8-4.3,7.2l-76.6,44.2c-2.4,1.4-4.3,0.4-4.3-2.2
				S73.7,233.8,76.1,232.5z"/>
			<path class="st4" d="M76.1,248.9l76.6-44.2c2.4-1.4,4.3-0.4,4.3,2.2s-1.9,5.8-4.3,7.2l-76.6,44.2c-2.4,1.4-4.3,0.4-4.3-2.2
				S73.7,250.3,76.1,248.9z"/>
			<path class="st4" d="M76.1,265.3l76.6-44.2c2.4-1.4,4.3-0.4,4.3,2.2s-1.9,5.8-4.3,7.2l-76.6,44.2c-2.4,1.4-4.3,0.4-4.3-2.2
				S73.7,266.7,76.1,265.3z"/>
		</g>
	</g>
</g>
<g id="Envelope">
	<g id="Letter">
		<path class="st2" d="M112.4,209.6c0-1.7,1.2-3.7,2.6-4.5l132.9-76.7c1.4-0.8,3.8-0.8,5.2,0l2.9,1.7c1.4,0.8,2.6,2.8,2.6,4.5v101.9
			c0,1.6-1.2,3.7-2.6,4.5l-132.9,76.7c-1.4,0.8-3.8,0.8-5.2,0L115,316c-1.4-0.8-2.6-2.9-2.6-4.5
			C112.4,311.5,112.4,209.6,112.4,209.6z"/>
		<path class="st7" d="M113.1,207.1l7.4,4.2L257.8,132c-0.5-0.8-1.1-1.5-1.8-1.9l-2.9-1.7c-1.4-0.8-3.8-0.8-5.2,0L115,205.1
			C114.2,205.6,113.6,206.3,113.1,207.1L113.1,207.1z"/>
		<path class="st3" d="M112.4,209.6v101.9c0,1.7,1.2,3.7,2.6,4.5l2.9,1.7c0.2,0.1,0.4,0.2,0.7,0.3c0.3,0.1,0.7,0.2,1.1,0.2
			c0.7,0.1,1.4,0.1,2.1-0.1c0.2,0,0.3-0.1,0.5-0.1c0.1,0,0.2-0.1,0.3-0.1c-0.5,0.2-0.9,0.1-1.2,0c-0.5-0.3-0.8-0.9-0.8-1.7V214.3
			c0-1.1,0.5-1.9,1.3-2.2l-1.3-0.8l-7.4-4.2C112.7,207.9,112.4,208.8,112.4,209.6L112.4,209.6z"/>
		<path class="st8" d="M120.5,211.3l61.6,23c4.4,1.6,9.3,0,11.9-3.9l9.9-15.1l54.5-83.5l-52.6,84.1l52.8,20.7c0,0.8-0.3,1.8-0.8,2.6
			l-52.1-23l-11.5,18.4c-2.6,4.2-8,5.9-12.5,3.9l-8.2-3.6l-52.1,83.2c-0.5-0.3-0.8-0.9-0.8-1.7v-1.7l52.7-79.9L120.5,211.3z"/>
	</g>
</g>
<g id="Mobile_Screen">
	<g>
		<path class="st9" d="M230.2,94.4v233.9c0,2.8,1.9,3.9,4.3,2.5l105.1-60.7c2.4-1.4,4.3-4.7,4.3-7.5V28.7c0-2.8-1.9-3.9-4.3-2.5
			L234.5,86.9C232.1,88.2,230.2,91.6,230.2,94.4L230.2,94.4z"/>
		<path class="st5" d="M236.3,98.7c0-0.7,0.5-1.5,1.1-1.8l12-6.9c0.6-0.4,1.1-0.1,1.1,0.5s-0.5,1.5-1.1,1.8l-12,6.9
			C236.8,99.6,236.3,99.4,236.3,98.7z"/>
		<path class="st5" d="M236.3,103.4c0-0.7,0.5-1.5,1.1-1.8l12-6.9c0.6-0.4,1.1-0.1,1.1,0.5s-0.5,1.5-1.1,1.8l-12,6.9
			C236.8,104.3,236.3,104,236.3,103.4z"/>
		<path class="st5" d="M236.3,108c0-0.7,0.5-1.5,1.1-1.8l12-6.9c0.6-0.4,1.1-0.1,1.1,0.5s-0.5,1.5-1.1,1.8l-12,6.9
			C236.8,108.9,236.3,108.7,236.3,108z"/>
		<path class="st10" d="M335.8,48.1v-1.9c0-0.1-0.1-0.2-0.2-0.1l-1.4,0.7c-0.1,0-0.2,0-0.2-0.1c-0.1-0.3-0.2-0.5-0.3-0.7
			c-0.1-0.1-0.1-0.2,0-0.3l1-1.9c0-0.1,0-0.2-0.1-0.3l-1-0.6c-0.1-0.1-0.2,0-0.3,0.1l-1.2,1.8c-0.1,0.1-0.2,0.2-0.3,0.2
			c-0.2,0-0.5,0-0.8,0.1c-0.1,0-0.2,0-0.2-0.2l-0.2-1.6c0-0.1-0.1-0.2-0.2-0.1l-1.6,0.9c-0.1,0.1-0.2,0.2-0.2,0.3l-0.2,1.8
			c0,0.1-0.1,0.3-0.2,0.3c-0.3,0.3-0.6,0.6-0.9,1c-0.1,0.1-0.2,0.1-0.3,0.1l-1-0.4c-0.1,0-0.2,0-0.3,0.1l-1.2,2.1
			c-0.1,0.1,0,0.2,0,0.3l0.8,0.7c0.1,0.1,0.1,0.2,0.1,0.3c-0.1,0.4-0.3,0.8-0.4,1.2c0,0.1-0.1,0.2-0.2,0.3l-1.5,1
			c-0.1,0.1-0.2,0.2-0.2,0.3v1.9c0,0.1,0.1,0.2,0.2,0.1l1.4-0.7c0.1,0,0.2,0,0.2,0.1c0.1,0.3,0.2,0.5,0.3,0.7c0.1,0.1,0.1,0.2,0,0.3
			l-1,1.9c0,0.1,0,0.2,0.1,0.3l1,0.6c0.1,0.1,0.2,0,0.3-0.1L327,57c0.1-0.1,0.2-0.2,0.3-0.2c0.2,0,0.5,0,0.8-0.1
			c0.1,0,0.2,0,0.2,0.2l0.2,1.6c0,0.1,0.1,0.2,0.2,0.1l1.6-0.9c0.1-0.1,0.2-0.2,0.2-0.3l0.2-1.8c0-0.1,0.1-0.3,0.2-0.3
			c0.3-0.3,0.6-0.6,0.9-1c0.1-0.1,0.2-0.1,0.3-0.1l1,0.4c0.1,0,0.2,0,0.3-0.1l1.2-2.1c0.1-0.1,0-0.2,0-0.3l-0.8-0.7
			c-0.1-0.1-0.1-0.2-0.1-0.3c0.1-0.4,0.3-0.8,0.4-1.2c0-0.1,0.1-0.2,0.2-0.3l1.5-1C335.7,48.3,335.8,48.2,335.8,48.1L335.8,48.1z
			 M329.5,53.9c-1.5,0.9-2.7,0.2-2.7-1.6s1.2-3.9,2.7-4.7s2.7-0.2,2.7,1.6S331,53.1,329.5,53.9z"/>
		<g>
			<path class="st5" d="M287,94.2c12.3-7.1,22.2-1.3,22.2,12.8s-10,31.4-22.2,38.5c-12.3,7.1-22.2,1.3-22.2-12.8
				S274.8,101.2,287,94.2L287,94.2z"/>
			<path class="st2" d="M286.9,105.3c4-2.3,7.2-0.4,7.2,4.2s-3.2,10.2-7.2,12.5c-4,2.3-7.2,0.4-7.2-4.2S282.9,107.6,286.9,105.3z"/>
			<path class="st2" d="M301.1,129.8c0-7.6-5.3-10.6-11.9-6.8l-4.1,2.4c-6.5,3.8-11.9,13-11.9,20.5v2.1c1.2,0.4,2.5,0.6,3.8,0.6
				c3,0,6.4-1,9.9-3c5.3-3.1,10.2-8.1,14.1-13.9V129.8L301.1,129.8z"/>
		</g>
		<path class="st2" d="M267,166.6l40.1-23.2c1.2-0.7,2.2-0.2,2.2,1.1s-1,2.9-2.2,3.6L267,171.3c-1.2,0.7-2.2,0.2-2.2-1.1
			S265.8,167.3,267,166.6z"/>
		<path class="st5" d="M262.7,183.2l48.7-28.2c1.2-0.7,2.2-0.2,2.2,1.1s-1,2.9-2.2,3.6l-48.7,28.2c-1.2,0.7-2.2,0.2-2.2-1.1
			S261.5,183.9,262.7,183.2z"/>
		<path class="st10" d="M312.7,177.7l13.6-7.9c0.7-0.4,1.3-0.2,1.3,0.4s-0.6,1.5-1.3,1.9l-13.6,7.9c-0.7,0.4-1.3,0.2-1.3-0.4
			S312,178.1,312.7,177.7z"/>
		<g>
			<path class="st2" d="M244.5,212.4l20-11.6c1.2-0.7,2.2-0.1,2.2,1.2v13.8c0,1.4-1,3.1-2.2,3.8l-20,11.6c-1.2,0.7-2.2,0.1-2.2-1.2
				v-13.8C242.4,214.8,243.3,213.1,244.5,212.4L244.5,212.4z"/>
			<path class="st4" d="M247.7,214.3l13.7-7.9c0.7-0.4,1.3-0.2,1.3,0.4s-0.6,1.5-1.3,1.9l-13.6,7.9c-0.7,0.4-1.3,0.2-1.3-0.4
				S247,214.7,247.7,214.3L247.7,214.3z"/>
			<path class="st4" d="M246.4,221.2v4c0,0.8,0.6,1.2,1.3,0.8l13.6-7.9c0.7-0.4,1.3-1.4,1.3-2.2v-4c0-0.8-0.6-1.2-1.3-0.8l-13.6,7.9
				C247,219.4,246.4,220.4,246.4,221.2z"/>
		</g>
		<g>
			<path class="st2" d="M277,193.6l20-11.6c1.2-0.7,2.2-0.1,2.2,1.2v13.8c0,1.4-1,3.1-2.2,3.8l-20,11.6c-1.2,0.7-2.2,0.1-2.2-1.2
				v-13.8C274.8,196,275.8,194.3,277,193.6L277,193.6z"/>
			<path class="st4" d="M280.2,195.6l13.6-7.9c0.7-0.4,1.3-0.2,1.3,0.4s-0.6,1.5-1.3,1.9l-13.6,7.9c-0.7,0.4-1.3,0.2-1.3-0.4
				S279.5,196,280.2,195.6z"/>
			<path class="st4" d="M278.9,202.5v4c0,0.8,0.6,1.2,1.3,0.8l13.6-7.9c0.7-0.4,1.3-1.4,1.3-2.2v-4c0-0.8-0.6-1.2-1.3-0.8l-13.6,7.9
				C279.5,200.7,278.9,201.7,278.9,202.5z"/>
		</g>
		<g>
			<path class="st2" d="M309.5,174.9l20-11.6c1.2-0.7,2.2-0.1,2.2,1.2v13.8c0,1.4-1,3.1-2.2,3.8l-20,11.6c-1.2,0.7-2.2,0.1-2.2-1.2
				v-13.8C307.3,177.2,308.3,175.6,309.5,174.9L309.5,174.9z"/>
			<path class="st4" d="M312.7,176.8l13.6-7.9c0.7-0.4,1.3-0.2,1.3,0.4s-0.6,1.5-1.3,1.9l-13.6,7.9c-0.7,0.4-1.3,0.2-1.3-0.4
				S312,177.2,312.7,176.8z"/>
			<path class="st4" d="M311.4,183.7v4c0,0.8,0.6,1.2,1.3,0.8l13.6-7.9c0.7-0.4,1.3-1.4,1.3-2.2v-4c0-0.8-0.6-1.2-1.3-0.8l-13.6,7.9
				C312,181.9,311.4,182.9,311.4,183.7z"/>
		</g>
		<path class="st4" d="M246.7,244l80.7-46.6c2.4-1.4,4.3-0.4,4.3,2.2s-1.9,5.8-4.3,7.2l-80.7,46.6c-2.4,1.4-4.3,0.4-4.3-2.2
			S244.3,245.4,246.7,244L246.7,244z"/>
		<path class="st4" d="M246.7,262.7l80.7-46.6c2.4-1.4,4.3-0.4,4.3,2.2s-1.9,5.8-4.3,7.2l-80.7,46.6c-2.4,1.4-4.3,0.4-4.3-2.2
			S244.3,264.1,246.7,262.7L246.7,262.7z"/>
		<path class="st2" d="M273,271l28.2-16.3c1.2-0.7,2.2-0.1,2.2,1.3v9.1c0,1.4-1,3.1-2.2,3.8L273,285.1c-1.2,0.7-2.2,0.1-2.2-1.2
			v-9.1C270.8,273.4,271.8,271.7,273,271L273,271z"/>
		<g>
			<path class="st4" d="M248.4,245.4c-1.1,0.6-2,2.2-2,3.5s0.9,1.8,2,1.2c1.1-0.6,2-2.2,2-3.5S249.6,244.7,248.4,245.4z"/>
			<path class="st4" d="M254.9,241.6c-1.1,0.6-2,2.2-2,3.5s0.9,1.8,2,1.2c1.1-0.6,2-2.2,2-3.5S256,241,254.9,241.6z"/>
			<path class="st4" d="M261.3,237.9c-1.1,0.6-2,2.2-2,3.5s0.9,1.8,2,1.2s2-2.2,2-3.5S262.4,237.3,261.3,237.9z"/>
			<path class="st4" d="M267.8,234.2c-1.1,0.6-2,2.2-2,3.5s0.9,1.8,2,1.2s2-2.2,2-3.5S268.9,233.5,267.8,234.2z"/>
			<path class="st4" d="M274.2,230.5c-1.1,0.6-2,2.2-2,3.5s0.9,1.8,2,1.2c1.1-0.6,2-2.2,2-3.5S275.3,229.8,274.2,230.5z"/>
			<path class="st4" d="M280.6,226.8c-1.1,0.6-2,2.2-2,3.5s0.9,1.8,2,1.2c1.1-0.6,2-2.2,2-3.5S281.7,226.1,280.6,226.8z"/>
			<path class="st4" d="M287,223c-1.1,0.6-2,2.2-2,3.5s0.9,1.8,2,1.2c1.1-0.6,2-2.2,2-3.5S288.2,222.4,287,223z"/>
		</g>
		<g>
			<path class="st4" d="M248.4,264.1c-1.1,0.6-2,2.2-2,3.5s0.9,1.8,2,1.2s2-2.2,2-3.5S249.6,263.5,248.4,264.1z"/>
			<path class="st4" d="M254.9,260.4c-1.1,0.6-2,2.2-2,3.5s0.9,1.8,2,1.2s2-2.2,2-3.5S256,259.8,254.9,260.4z"/>
			<path class="st4" d="M261.3,256.7c-1.1,0.6-2,2.2-2,3.5s0.9,1.8,2,1.2s2-2.2,2-3.5S262.4,256,261.3,256.7z"/>
			<path class="st4" d="M267.8,253c-1.1,0.6-2,2.2-2,3.5s0.9,1.8,2,1.2s2-2.2,2-3.5S268.9,252.3,267.8,253z"/>
			<path class="st4" d="M274.2,249.2c-1.1,0.6-2,2.2-2,3.5s0.9,1.8,2,1.2c1.1-0.6,2-2.2,2-3.5S275.3,248.6,274.2,249.2z"/>
			<path class="st4" d="M280.6,245.5c-1.1,0.6-2,2.2-2,3.5s0.9,1.8,2,1.2c1.1-0.6,2-2.2,2-3.5S281.7,244.9,280.6,245.5z"/>
			<path class="st4" d="M287,241.8c-1.1,0.6-2,2.2-2,3.5s0.9,1.8,2,1.2c1.1-0.6,2-2.2,2-3.5S288.2,241.2,287,241.8z"/>
		</g>
	</g>
</g>
<g id="Key">
	<g>
		<g>
			<path class="st11" d="M377.3,284.1c-3.5,0-6.8-0.9-9.9-2.6c-7.2-4.2-11.3-12.9-11.3-23.9c0-19.4,12.3-41.7,28-50.8
				c8.5-4.9,16.9-5.4,23.7-1.5c7.2,4.2,11.3,12.9,11.3,23.9c0,19.4-12.3,41.7-28,50.8C386.4,282.7,381.7,284.1,377.3,284.1
				L377.3,284.1z M398,216.7c-2.5,0-5.2,1.3-6.8,2.2c-11.4,6.6-21.1,24.3-21.1,38.7c0,5.8,1.6,10.2,4.4,11.8
				c3.1,1.8,7.4-0.2,9.7-1.5c11.4-6.6,21.1-24.3,21.1-38.7c0-5.8-1.6-10.2-4.4-11.8C400,216.9,399,216.7,398,216.7L398,216.7z"/>
			<path class="st12" d="M407.7,232.3c0-10.9-6.9-14.9-6.9-14.9l0,0c2.7,1.6,4.4,6,4.4,11.8c0,14.4-9.6,32.1-21.1,38.7
				c-2.3,1.3-6.6,3.3-9.7,1.5c0,0,5.8,3.6,13.8-0.8C399.8,262.3,407.7,246.7,407.7,232.3L407.7,232.3z"/>
		</g>
		<path class="st12" d="M396.7,96.2c0-4-3.2-7.2-7.2-7.2s-7.2,3.2-7.2,7.2c0,0,0,0,0,0l0,0V211l0,0c0,1.1,0.7,2.1,2.1,2.9
			c2.8,1.6,7.4,1.6,10.2,0c1.4-0.8,2.1-1.9,2.1-2.9l0,0V96.2L396.7,96.2C396.7,96.3,396.7,96.3,396.7,96.2z"/>
		<path class="st11" d="M391,121.9c0-2.7-1.9-5.9-4.2-7.2c-1.2-0.7-2.2-0.7-3-0.3l0,0L366,124.7l-0.4,0.3c-0.1,0-0.1,0.1-0.2,0.1
			c-0.3,0.2-0.6,0.4-0.9,0.7c-1.1,1.1-1.7,2.5-1.7,4.2c0,2.2,1.2,4.2,3.1,5.2c0.8,0.4,1.8,0.7,2.8,0.7s2-0.3,2.8-0.7
			c0.1-0.1,0.2-0.1,0.3-0.2l17.9-10.3l0,0C390.5,124.1,391,123.2,391,121.9L391,121.9z"/>
		<path class="st11" d="M391,150.6c0-2.7-1.9-5.9-4.2-7.2c-1.2-0.7-2.2-0.7-3-0.3l0,0l-20.9,12l-0.4,0.3c-0.1,0-0.1,0.1-0.2,0.1
			c-0.3,0.2-0.6,0.4-0.9,0.7c-1.1,1.1-1.7,2.6-1.7,4.2c0,2.2,1.2,4.2,3.1,5.2c0.8,0.4,1.8,0.7,2.8,0.7s2-0.3,2.8-0.7
			c0.1-0.1,0.2-0.1,0.3-0.2l21-12l0,0C390.5,152.9,391,151.9,391,150.6L391,150.6z"/>
	</g>
</g>
</svg>
