<?xml version="1.0" encoding="UTF-8"?>
<svg id="_Слой_1" data-name="Слой 1" xmlns="http://www.w3.org/2000/svg" viewBox="0 0 48.99 48.11">
  <defs>
    <style>
      .cls-1 {
        fill: none;
        stroke: #7b9cd2;
        stroke-linecap: round;
        stroke-linejoin: round;
        stroke-width: 3.25px;
      }
    </style>
  </defs>
  <circle class="cls-1" cx="24.5" cy="13.42" r="3.85"/>
  <path class="cls-1" d="M35.94,5.82c1.45,2.18,2.3,4.79,2.3,7.6s-.85,5.42-2.3,7.6"/>
  <path class="cls-1" d="M44.09,25.22c2.08-3.44,3.27-7.48,3.27-11.8s-1.2-8.35-3.27-11.8"/>
  <path class="cls-1" d="M13.05,21.02c-1.45-2.18-2.3-4.79-2.3-7.6s.85-5.42,2.3-7.6"/>
  <path class="cls-1" d="M4.9,1.62c-2.08,3.44-3.27,7.48-3.27,11.8s1.2,8.35,3.27,11.8"/>
  <path class="cls-1" d="M37,30.67l-8.61,4.76v-2.41c0-1.46-1.26-2.87-2.84-3.07-5.1-.63-7.72-.63-12.83,0-1.58.2-2.84,1.61-2.84,3.07,0,4.78,0,5.15,0,9.93,0,1.46,1.26,2.87,2.84,3.07,5.1.63,7.72.63,12.83,0,1.58-.2,2.84-1.61,2.84-3.07v-2.41l8.61,4.76c.94.52,2.1-.16,2.1-1.24v-12.15c0-1.08-1.16-1.76-2.1-1.24Z"/>
</svg>