<svg width="280" height="235" viewBox="0 0 280 235" fill="none" xmlns="http://www.w3.org/2000/svg">
<path d="M175.201 3.04158C138.51 -1.70479 108.438 16.3718 76.059 46.8024C49.7838 71.4768 7.11184 73.1038 4.59184 112.444C1.53424 160.334 80.8974 164.182 104.272 187.331C166.409 249.045 246.859 240.865 267.646 184.212C286.16 133.786 256.021 110.301 245.392 77.8502C230.014 31.071 213.92 8.04603 175.201 3.04158Z" fill="#B1DEEF" fill-opacity="0.5"/>
<path d="M123.737 145.083L87.427 190.64C85.4799 193.064 82.6547 194.618 79.5681 194.963C76.4814 195.307 73.384 194.415 70.9518 192.48C68.5297 190.529 66.9761 187.697 66.6299 184.603C66.2837 181.509 67.173 178.403 69.1038 175.963L105.414 130.418" fill="white"/>
<path d="M155.758 163.239C188.684 163.239 215.376 136.498 215.376 103.511C215.376 70.5243 188.684 43.7832 155.758 43.7832C122.832 43.7832 96.1406 70.5243 96.1406 103.511C96.1406 136.498 122.832 163.239 155.758 163.239Z" fill="white"/>
<path d="M129.147 156.046L92.848 201.591C90.9006 204.018 88.0732 205.574 84.9838 205.919C81.8944 206.264 78.7944 205.37 76.3616 203.431C73.9387 201.48 72.3853 198.647 72.0411 195.552C71.6969 192.457 72.5899 189.352 74.5248 186.914L113.344 138.07" fill="white"/>
<path d="M103.242 52.2099C94.4221 63.2362 89.6021 76.9366 89.5714 91.0665C89.5408 105.196 94.3013 118.918 103.073 129.982C111.845 141.047 124.107 148.799 137.852 151.967C151.596 155.136 166.008 153.534 178.725 147.424C191.441 141.313 201.709 131.057 207.847 118.335C213.984 105.613 215.626 91.1797 212.504 77.4004C209.383 63.621 201.682 51.3124 190.664 42.4914C179.646 33.6703 165.965 28.8599 151.861 28.8483C142.521 28.8055 133.293 30.8856 124.872 34.9321C116.45 38.9786 109.055 44.8861 103.242 52.2099ZM151.861 33.9425C164.782 33.9643 177.314 38.3808 187.403 46.4689C197.492 54.557 204.542 65.8374 207.397 78.463C210.252 91.0886 208.743 104.311 203.118 115.966C197.494 127.621 188.086 137.017 176.435 142.616C164.784 148.215 151.582 149.684 138.988 146.785C126.395 143.885 115.157 136.788 107.116 126.655C99.0741 116.522 94.7048 103.953 94.7233 91.0078C94.7418 78.0622 99.147 65.5065 107.218 55.3966C112.575 48.694 119.37 43.2853 127.098 39.5714C134.826 35.8576 143.29 33.9337 151.861 33.9425Z" fill="#B1DEEF"/>
<path d="M78.232 196.969C75.6659 196.958 73.1548 196.223 70.9862 194.848C68.8176 193.474 67.0793 191.515 65.9701 189.197C64.861 186.878 64.4259 184.294 64.7148 181.739C65.0036 179.185 66.0046 176.763 67.6032 174.752L103.902 129.207L106.926 131.619L70.616 177.176C69.0584 179.215 68.3606 181.786 68.6722 184.335C68.9838 186.884 70.28 189.209 72.283 190.812C74.2859 192.415 76.836 193.168 79.3865 192.91C81.937 192.651 84.2848 191.401 85.9264 189.429L122.226 143.884L125.25 146.296L88.9392 191.875C87.8203 193.281 86.4347 194.45 84.8623 195.317C83.2899 196.184 81.5618 196.73 79.7776 196.924C79.2636 196.967 78.7477 196.982 78.232 196.969Z" fill="#B1DEEF"/>
<path d="M146.366 88.6207L129.05 102.41L132.054 106.196L149.37 92.4065L146.366 88.6207Z" fill="#7BBFCD"/>
<path d="M132.055 88.6179L129.052 92.4043L146.37 106.191L149.373 102.404L132.055 88.6179Z" fill="#7BBFCD"/>
<path d="M146.575 133.526C145.971 133.525 145.383 133.335 144.893 132.983C144.402 132.632 144.033 132.135 143.837 131.564C143.642 130.992 143.628 130.374 143.8 129.794C143.971 129.215 144.319 128.703 144.794 128.331C149.392 124.837 154.986 122.908 160.757 122.825C166.528 122.742 172.174 124.51 176.871 127.871C177.412 128.345 177.758 129.004 177.84 129.72C177.922 130.436 177.735 131.157 177.315 131.742C176.895 132.326 176.272 132.733 175.569 132.883C174.865 133.032 174.131 132.914 173.511 132.55C169.916 129.981 165.606 128.607 161.191 128.623C156.575 128.595 152.08 130.103 148.411 132.909C147.888 133.32 147.239 133.538 146.575 133.526Z" fill="#7BBFCD"/>
<path d="M189.43 88.6266L172.114 102.416L175.118 106.202L192.434 92.4124L189.43 88.6266Z" fill="#7BBFCD"/>
<path d="M175.119 88.614L172.116 92.4004L189.434 106.187L192.437 102.4L175.119 88.614Z" fill="#7BBFCD"/>
<path d="M122.517 80.4074C121.986 80.4057 121.467 80.2583 121.014 79.9813C120.561 79.7043 120.193 79.3082 119.95 78.8363C119.706 78.3643 119.596 77.8344 119.632 77.3043C119.668 76.7741 119.848 76.264 120.154 75.8294C120.747 74.9878 121.352 74.1687 122.002 73.3608C130.299 62.9189 142.373 56.1773 155.602 54.5997C155.979 54.5533 156.362 54.5818 156.728 54.6836C157.094 54.7853 157.437 54.9584 157.736 55.1928C158.036 55.4272 158.286 55.7185 158.473 56.0499C158.661 56.3813 158.781 56.7465 158.827 57.1244C158.874 57.5024 158.845 57.8858 158.744 58.2527C158.642 58.6197 158.469 58.963 158.235 59.2631C158.001 59.5631 157.711 59.8141 157.38 60.0016C157.049 60.1892 156.684 60.3096 156.307 60.356C144.593 61.7674 133.905 67.7459 126.56 76.9963C125.989 77.7032 125.44 78.4326 124.925 79.1731C124.654 79.5601 124.294 79.8748 123.874 80.09C123.454 80.3051 122.988 80.4141 122.517 80.4074Z" fill="white"/>
</svg>
