<?xml version="1.0" encoding="UTF-8"?>
<svg id="OBJECTS" xmlns="http://www.w3.org/2000/svg" xmlns:xlink="http://www.w3.org/1999/xlink" viewBox="0 0 82.37 51.07">
  <defs>
    <style>
      .cls-1 {
        fill: none;
      }

      .cls-1, .cls-2, .cls-3, .cls-4, .cls-5, .cls-6, .cls-7, .cls-8, .cls-9, .cls-10 {
        stroke-width: 0px;
      }

      .cls-2 {
        fill: url(#_Безымянный_градиент_15-5);
      }

      .cls-3 {
        fill: url(#_Безымянный_градиент_15-3);
      }

      .cls-4 {
        fill: url(#_Безымянный_градиент_15-2);
      }

      .cls-5 {
        fill: url(#_Безымянный_градиент_15-4);
      }

      .cls-6 {
        fill: url(#_Безымянный_градиент_15-6);
      }

      .cls-7 {
        fill: url(#_Безымянный_градиент_15-7);
      }

      .cls-8 {
        fill: url(#_Безымянный_градиент_15-8);
      }

      .cls-9 {
        fill: url(#_Безымянный_градиент_15);
      }

      .cls-10 {
        fill: url(#Degradado_sin_nombre_2);
      }
    </style>
    <linearGradient id="Degradado_sin_nombre_2" data-name="Degradado sin nombre 2" x1="41.1" y1="45.38" x2="39.89" y2="1.35" gradientUnits="userSpaceOnUse">
      <stop offset="0" stop-color="#003f8a"/>
      <stop offset=".68" stop-color="#3c7ed0"/>
      <stop offset=".99" stop-color="#00aece"/>
    </linearGradient>
    <linearGradient id="_Безымянный_градиент_15" data-name="Безымянный градиент 15" x1="3.13" y1="47.26" x2="3.69" y2="2.76" gradientUnits="userSpaceOnUse">
      <stop offset="0" stop-color="#67ffd7"/>
      <stop offset=".54" stop-color="#83d6e2"/>
      <stop offset="1" stop-color="#9fb0ee"/>
    </linearGradient>
    <linearGradient id="_Безымянный_градиент_15-2" data-name="Безымянный градиент 15" x1="78.68" y1="48.21" x2="79.25" y2="3.71" xlink:href="#_Безымянный_градиент_15"/>
    <linearGradient id="_Безымянный_градиент_15-3" data-name="Безымянный градиент 15" x1="66.94" y1="48.06" x2="67.51" y2="3.56" xlink:href="#_Безымянный_градиент_15"/>
    <linearGradient id="_Безымянный_градиент_15-4" data-name="Безымянный градиент 15" x1="14.77" y1="47.4" x2="15.34" y2="2.9" xlink:href="#_Безымянный_градиент_15"/>
    <linearGradient id="_Безымянный_градиент_15-5" data-name="Безымянный градиент 15" x1="40.93" y1="47.74" x2="41.49" y2="3.23" xlink:href="#_Безымянный_градиент_15"/>
    <linearGradient id="_Безымянный_градиент_15-6" data-name="Безымянный градиент 15" x1="40.84" y1="43.58" x2="41.55" y2="8.93" xlink:href="#_Безымянный_градиент_15"/>
    <linearGradient id="_Безымянный_градиент_15-7" data-name="Безымянный градиент 15" x1="40.84" y1="43.58" x2="41.55" y2="8.93" xlink:href="#_Безымянный_градиент_15"/>
    <linearGradient id="_Безымянный_градиент_15-8" data-name="Безымянный градиент 15" x1="46.62" y1="18.66" x2="51.45" y2="18.66" xlink:href="#_Безымянный_градиент_15"/>
  </defs>
  <g>
    <path class="cls-10" d="m43.83,50.93c-.88.05-1.76.08-2.64.08-.84,0-1.67-.03-2.5-.07.83.08,1.67.13,2.53.13s1.76-.05,2.62-.13Z"/>
    <circle class="cls-1" cx="41.21" cy="25.53" r="22.07" transform="translate(-3.59 7.02) rotate(-9.33)"/>
    <path class="cls-9" d="m6.75,15.44c-2.66,3.01-4.94,6.38-6.75,10.02,1.79,3.61,4.05,6.95,6.68,9.94-.89-3.14-1.38-6.44-1.38-9.86s.51-6.89,1.45-10.09Z"/>
    <path class="cls-4" d="m75.76,35.31c2.6-2.97,4.83-6.28,6.61-9.86-1.79-3.61-4.04-6.94-6.67-9.93.92,3.18,1.42,6.54,1.42,10.01s-.48,6.67-1.36,9.78Z"/>
    <path class="cls-3" d="m69.52,9.67c-2.61-2.05-5.44-3.81-8.46-5.26,5.62,5.29,9.14,12.79,9.14,21.12s-3.38,15.54-8.82,20.81c2.96-1.45,5.74-3.21,8.3-5.24,2.53-4.62,3.98-9.93,3.98-15.57s-1.51-11.17-4.14-15.86Z"/>
    <path class="cls-5" d="m12.22,25.53c0-8.35,3.54-15.87,9.19-21.16-3.02,1.44-5.86,3.2-8.47,5.24-2.66,4.71-4.18,10.14-4.18,15.92s1.46,11.01,4.02,15.65c2.56,2.02,5.34,3.77,8.3,5.21-5.46-5.27-8.86-12.66-8.86-20.86Z"/>
    <path class="cls-2" d="m43.83,50.93c12.87-1.31,22.91-12.18,22.91-25.4,0-14.1-11.43-25.53-25.53-25.53S15.68,11.43,15.68,25.53c0,13.25,10.09,24.14,23.01,25.41.83.04,1.66.07,2.5.07.89,0,1.77-.03,2.64-.08Zm-24.69-25.4c0-12.19,9.88-22.07,22.07-22.07s22.07,9.88,22.07,22.07-9.88,22.07-22.07,22.07-22.07-9.88-22.07-22.07Z"/>
  </g>
  <g>
    <path class="cls-6" d="m41.21,6.92c-10.28,0-18.61,8.33-18.61,18.61s8.33,18.61,18.61,18.61,18.61-8.33,18.61-18.61S51.49,6.92,41.21,6.92Zm0,33.77c-8.37,0-15.15-6.78-15.15-15.15s6.78-15.15,15.15-15.15,15.15,6.78,15.15,15.15-6.78,15.15-15.15,15.15Z"/>
    <path class="cls-7" d="m49.14,23.34c.19.7.3,1.43.3,2.19,0,4.55-3.69,8.23-8.23,8.23s-8.23-3.69-8.23-8.23,3.69-8.23,8.23-8.23c1.13,0,2.21.23,3.2.64.19-1.21.84-2.27,1.76-2.99-1.51-.71-3.19-1.12-4.96-1.12-6.46,0-11.69,5.24-11.69,11.69s5.24,11.69,11.69,11.69,11.69-5.24,11.69-11.69c0-1.24-.2-2.44-.56-3.56-.83.83-1.96,1.34-3.21,1.37Z"/>
    <circle class="cls-8" cx="49.04" cy="18.66" r="2.42"/>
  </g>
</svg>