<?xml version="1.0" encoding="UTF-8"?>
<svg id="_Слой_1" data-name="Слой 1" xmlns="http://www.w3.org/2000/svg" viewBox="0 0 55.9 49.35">
  <defs>
    <style>
      .cls-1 {
        fill: none;
        stroke: #7b9cd2;
        stroke-linecap: round;
        stroke-linejoin: round;
        stroke-width: 3.25px;
      }
    </style>
  </defs>
  <path class="cls-1" d="M1.69,18.08c-1.09,10.84,10.93,7.42,13.32,11.82,1.72,3.17-.05,7.67-.05,7.67,3.73.26,24.44-13.94,20.63-27.32C30.86-6.36,3.15,3.67,1.69,18.08Z"/>
  <path class="cls-1" d="M23.95,32.71c.51,12.11,13.98,15.69,19.41,14.9,0,0-2.63-2.7-1.49-5.59,1.31-3.33,5.55-3.4,9.05-7.1,4.04-4.28,4.84-10.49.19-14.77-4.12-3.79-8.62-4.96-15.2-3.96"/>
  <circle class="cls-1" cx="11.89" cy="17.2" r=".83"/>
  <circle class="cls-1" cx="18.58" cy="14.53" r=".83"/>
  <circle class="cls-1" cx="25.9" cy="13.7" r=".83"/>
  <circle class="cls-1" cx="34.66" cy="34.24" r=".83"/>
  <circle class="cls-1" cx="39.11" cy="28.91" r=".83"/>
  <circle class="cls-1" cx="45.43" cy="25.7" r=".83"/>
</svg>