<svg width="40" height="40" viewBox="0 0 40 40" fill="none" xmlns="http://www.w3.org/2000/svg">
<g id="logos:facebook" clip-path="url(#clip0_1225_6445)">
<path id="Vector" d="M40 20C40 8.95438 31.0456 0 20 0C8.95437 0 0 8.95438 0 20C0 29.9825 7.31375 38.2567 16.875 39.757V25.7813H11.7969V20H16.875V15.5938C16.875 10.5813 19.8609 7.8125 24.4294 7.8125C26.6175 7.8125 28.9062 8.20313 28.9062 8.20313V13.125H26.3844C23.8998 13.125 23.125 14.6667 23.125 16.2484V20H28.6719L27.7852 25.7813H23.125V39.757C32.6862 38.2567 40 29.9827 40 20Z" fill="#1877F2"/>
<path id="Vector_2" d="M27.7852 25.7812L28.6719 20H23.125V16.2484C23.125 14.6666 23.8998 13.125 26.3844 13.125H28.9062V8.20312C28.9062 8.20312 26.6175 7.8125 24.4292 7.8125C19.8609 7.8125 16.875 10.5813 16.875 15.5938V20H11.7969V25.7812H16.875V39.757C17.9088 39.919 18.9536 40.0003 20 40C21.0464 40.0003 22.0912 39.9191 23.125 39.757V25.7812H27.7852Z" fill="white"/>
</g>
<defs>
<clipPath id="clip0_1225_6445">
<rect width="40" height="40" fill="white"/>
</clipPath>
</defs>
</svg>
