<svg width="15" height="21" viewBox="0 0 15 21" fill="none" xmlns="http://www.w3.org/2000/svg">
<g clip-path="url(#clip0_2_13)">
<path opacity="0.5" d="M5.60181 2.71103C5.47881 1.53103 5.36681 0.46603 6.66281 1.25003L8.08981 2.31602C8.88154 2.90749 9.52443 3.67543 9.96744 4.55884C10.4104 5.44224 10.6414 6.41677 10.6418 7.40503V10.136L12.0598 8.78003C12.9828 8.01203 14.8958 6.87203 14.8958 8.07103V12.479C14.4907 12.3199 14.0479 12.2825 13.6218 12.3713C13.1956 12.4601 12.8047 12.6713 12.4968 12.979L11.3508 14.125L10.2048 12.979C9.89693 12.6713 9.50599 12.4601 9.07986 12.3713C8.65374 12.2825 8.21098 12.3199 7.80582 12.479V11.969C7.80582 11.457 7.29583 11.15 6.90182 11.475C5.70682 12.462 4.2608 14.37 4.2608 16.31C4.2608 18.175 5.26281 18.988 6.51181 19.277C6.35111 19.7411 6.34654 20.2451 6.49881 20.712C3.20781 20.101 0.71582 17.223 0.71582 13.765V13.726C0.71582 12.302 0.91782 10.734 2.13382 9.46303C2.13382 9.46303 2.84282 8.78004 3.55182 8.04204C4.26082 7.30404 5.6788 5.20004 5.6788 3.77904C5.6788 3.44504 5.63981 3.07303 5.60181 2.71103Z" fill="#EB5757"/>
<path d="M9.20279 13.9821L11.3508 16.1301L13.4988 13.9821C13.6522 13.8286 13.8603 13.7424 14.0773 13.7424C14.2943 13.7424 14.5024 13.8286 14.6558 13.9821C14.8092 14.1355 14.8954 14.3436 14.8954 14.5606C14.8954 14.7775 14.8092 14.9856 14.6558 15.1391L12.5078 17.2871L14.6558 19.4351C14.8092 19.5885 14.8954 19.7966 14.8954 20.0136C14.8954 20.2305 14.8092 20.4386 14.6558 20.5921C14.5024 20.7455 14.2943 20.8317 14.0773 20.8317C13.8603 20.8317 13.6522 20.7455 13.4988 20.5921L11.3508 18.4441L9.20279 20.5921C9.12682 20.668 9.03661 20.7283 8.93735 20.7694C8.83809 20.8105 8.7317 20.8317 8.62427 20.8317C8.51683 20.8317 8.41045 20.8105 8.31119 20.7694C8.21193 20.7283 8.12175 20.668 8.04578 20.5921C7.96981 20.5161 7.90955 20.4259 7.86844 20.3266C7.82732 20.2274 7.80615 20.121 7.80615 20.0136C7.80615 19.9061 7.82732 19.7997 7.86844 19.7005C7.90955 19.6012 7.96981 19.511 8.04578 19.4351L10.1938 17.2871L8.04578 15.1391C7.96981 15.0631 7.90955 14.9729 7.86844 14.8736C7.82732 14.7744 7.80615 14.668 7.80615 14.5606C7.80615 14.4531 7.82732 14.3467 7.86844 14.2475C7.90955 14.1482 7.96981 14.058 8.04578 13.9821C8.12175 13.9061 8.21193 13.8458 8.31119 13.8047C8.41045 13.7636 8.51683 13.7424 8.62427 13.7424C8.7317 13.7424 8.83809 13.7636 8.93735 13.8047C9.03661 13.8458 9.12682 13.9061 9.20279 13.9821Z" fill="#EB5757"/>
</g>
<defs>
<clipPath id="clip0_2_13">
<rect width="15" height="21" fill="white"/>
</clipPath>
</defs>
</svg>
