<svg width="26" height="34" viewBox="0 0 26 34" fill="none" xmlns="http://www.w3.org/2000/svg">
<g clip-path="url(#clip0_4_19)">
<path opacity="0.5" d="M8.793 3.60897C8.593 1.69397 8.412 -0.0350226 10.515 1.23698L12.829 2.96697C14.1138 3.92651 15.1572 5.17244 15.8762 6.60578C16.5952 8.03913 16.9701 9.6204 16.971 11.224V15.656L19.271 13.455C20.77 12.21 23.873 10.36 23.873 12.305V19.982C21.9522 19.071 19.7491 18.9564 17.7441 19.6632C15.7391 20.37 14.0949 21.8408 13.17 23.755C12.9371 23.6806 12.7338 23.534 12.5898 23.3364C12.4458 23.1388 12.3685 22.9005 12.369 22.656V18.631C12.369 17.8 11.541 17.301 10.902 17.83C8.96199 19.431 6.61699 22.527 6.61699 25.675C6.61699 29.7 9.49299 30.706 12.369 30.706C12.632 30.706 12.884 30.693 13.123 30.668C13.4906 31.4523 13.9819 32.1725 14.578 32.801C13.863 32.94 13.125 33.012 12.369 33.012C6.01499 33.012 0.86499 27.878 0.86499 21.545V21.482C0.86499 19.171 1.193 16.627 3.166 14.564C3.166 14.564 4.31599 13.455 5.46599 12.258C6.61699 11.061 8.918 7.64597 8.918 5.33997C8.918 4.79997 8.854 4.19497 8.793 3.60897Z" fill="#FFC000"/>
<path d="M20.421 32.437C23.2802 32.437 25.598 30.1192 25.598 27.26C25.598 24.4008 23.2802 22.083 20.421 22.083C17.5618 22.083 15.244 24.4008 15.244 27.26C15.244 30.1192 17.5618 32.437 20.421 32.437Z" fill="#FFC000"/>
</g>
<defs>
<clipPath id="clip0_4_19">
<rect width="26" height="34" fill="white"/>
</clipPath>
</defs>
</svg>
