<svg width="35" height="44" viewBox="0 0 35 44" fill="none" xmlns="http://www.w3.org/2000/svg">
<g clip-path="url(#clip0_1_2)">
<g opacity="0.5">
<path d="M11.3299 3.868C11.0579 1.27 10.8129 -1.07499 13.6659 0.651007L16.8049 2.99801C18.5352 4.28983 19.9428 5.96478 20.9175 7.89159C21.8922 9.81841 22.4075 11.9448 22.4229 14.104C12.9429 14.104 5.25693 21.789 5.25693 31.27C5.25693 35.349 6.68094 39.097 9.05794 42.042C4.02094 39.462 0.575928 34.231 0.575928 28.198V28.113C0.575928 24.978 1.02093 21.527 3.69693 18.729C3.69693 18.729 5.25693 17.225 6.81793 15.601C8.37793 13.977 11.4989 9.345 11.4989 6.217C11.4989 5.483 11.4139 4.664 11.3299 3.868ZM31.7859 16.88V15.664C31.7859 14.057 30.2229 14.361 28.5409 15.226C29.6869 15.663 30.7739 16.22 31.7859 16.88Z" fill="#4CB782"/>
</g>
<path fillRule="evenodd" clipRule="evenodd" d="M22.423 43.754C29.318 43.754 34.907 38.164 34.907 31.27C34.907 24.375 29.318 18.785 22.423 18.785C15.528 18.785 9.93896 24.375 9.93896 31.27C9.93896 38.164 15.528 43.754 22.423 43.754ZM29.171 28.468C29.71 27.858 29.681 26.9 29.106 26.329C28.9729 26.1937 28.8132 26.0876 28.637 26.0172C28.4608 25.9469 28.2719 25.9139 28.0823 25.9204C27.8927 25.9269 27.7065 25.9727 27.5355 26.0549C27.3645 26.1371 27.2124 26.254 27.089 26.398L20.906 33.394L17.664 30.337C17.5272 30.2056 17.3646 30.104 17.1864 30.0387C17.0083 29.9734 16.8186 29.9458 16.6293 29.9577C16.44 29.9695 16.2551 30.0205 16.0866 30.1075C15.918 30.1945 15.7693 30.3156 15.65 30.463C15.3975 30.7689 15.2694 31.1586 15.2913 31.5546C15.3132 31.9506 15.4833 32.3238 15.768 32.6L19.356 35.983C20.32 36.891 21.789 36.82 22.671 35.823L29.171 28.468Z" fill="#4CB782"/>
</g>
<defs>
<clipPath id="clip0_1_2">
<rect width="35" height="44" fill="white"/>
</clipPath>
</defs>
</svg>
