<svg width="15" height="22" viewBox="0 0 15 22" fill="none" xmlns="http://www.w3.org/2000/svg">
<path fill-rule="evenodd" clip-rule="evenodd" d="M6.38805 1.037C4.65805 -0.00899738 5.38206 2.16899 5.38206 3.62199C5.38206 5.07399 3.93305 7.225 3.20805 7.979C2.48405 8.733 1.75906 9.431 1.75906 9.431C0.517056 10.731 0.310059 12.333 0.310059 13.789V13.828C0.310059 17.817 3.55405 21.051 7.55605 21.051C11.5581 21.051 14.8021 17.817 14.8021 13.828V8.008C14.8021 6.784 12.8481 7.949 11.9041 8.733L10.4541 10.119V7.328C10.4537 6.31798 10.2179 5.32195 9.76511 4.41908C9.31238 3.51621 8.65528 2.73139 7.84605 2.127L6.38805 1.037ZM7.55605 19.599C5.74505 19.599 3.93305 18.965 3.93305 16.43C3.93305 14.447 5.41006 12.497 6.63206 11.488C7.03506 11.155 7.55605 11.47 7.55605 11.993V14.528C7.55605 15.051 8.09205 15.403 8.57005 15.194L10.1651 14.496C10.6431 14.287 11.1851 14.639 11.1551 15.162C11.0501 16.992 10.4951 19.599 7.55605 19.599Z" fill="#6B6F76"/>
</svg>
