<svg width="15" height="22" viewBox="0 0 15 22" fill="none" xmlns="http://www.w3.org/2000/svg">
<path id="Vector" fillRule="evenodd" clipRule="evenodd" d="M6.38781 1.037C4.65781 -0.00899738 5.38181 2.16899 5.38181 3.62199C5.38181 5.07399 3.93281 7.225 3.20781 7.979C2.48381 8.733 1.75881 9.431 1.75881 9.431C0.516812 10.731 0.309814 12.333 0.309814 13.789V13.828C0.309814 17.817 3.55381 21.051 7.55581 21.051C11.5578 21.051 14.8018 17.817 14.8018 13.828V8.008C14.8018 6.784 12.8478 7.949 11.9038 8.733L10.4538 10.119V7.328C10.4535 6.31798 10.2176 5.32195 9.76487 4.41908C9.31213 3.51621 8.65504 2.73139 7.84581 2.127L6.38781 1.037ZM7.55581 19.599C5.74481 19.599 3.93281 18.965 3.93281 16.43C3.93281 14.447 5.40981 12.497 6.63181 11.488C7.03481 11.155 7.55581 11.47 7.55581 11.993V14.528C7.55581 15.051 8.09181 15.403 8.56981 15.194L10.1648 14.496C10.6428 14.287 11.1848 14.639 11.1548 15.162C11.0498 16.992 10.4948 19.599 7.55581 19.599Z" fill="#6B6F76"/>
</svg>
