<svg width="15" height="21" viewBox="0 0 15 21" fill="none" xmlns="http://www.w3.org/2000/svg">
<g clip-path="url(#clip0_4_25)">
<path opacity="0.5" d="M5.60205 2.71103C5.47905 1.53103 5.36706 0.46603 6.66306 1.25003L8.09006 2.31602C8.88178 2.90749 9.52468 3.67543 9.96768 4.55884C10.4107 5.44224 10.6416 6.41677 10.6421 7.40503V10.136L12.0601 8.78003C12.9831 8.01203 14.8961 6.87203 14.8961 8.07103V12.479C14.4909 12.3199 14.0481 12.2825 13.622 12.3713C13.1959 12.4601 12.8049 12.6713 12.497 12.979L11.351 14.125L10.205 12.979C9.89718 12.6713 9.50623 12.4601 9.08011 12.3713C8.65399 12.2825 8.21122 12.3199 7.80606 12.479V11.969C7.80606 11.457 7.29607 11.15 6.90207 11.475C5.70707 12.462 4.26105 14.37 4.26105 16.31C4.26105 18.175 5.26305 18.988 6.51205 19.277C6.35135 19.7411 6.34679 20.2451 6.49905 20.712C3.20805 20.101 0.716064 17.223 0.716064 13.765V13.726C0.716064 12.302 0.918064 10.734 2.13406 9.46303C2.13406 9.46303 2.84306 8.78004 3.55206 8.04204C4.26106 7.30404 5.67905 5.20004 5.67905 3.77904C5.67905 3.44504 5.64005 3.07303 5.60205 2.71103Z" fill="#FF0000"/>
<path d="M9.20303 13.9821L11.351 16.1301L13.499 13.9821C13.6525 13.8286 13.8605 13.7424 14.0775 13.7424C14.2945 13.7424 14.5026 13.8286 14.656 13.9821C14.8095 14.1355 14.8957 14.3436 14.8957 14.5606C14.8957 14.7775 14.8095 14.9856 14.656 15.1391L12.508 17.2871L14.656 19.4351C14.8095 19.5885 14.8957 19.7966 14.8957 20.0136C14.8957 20.2305 14.8095 20.4386 14.656 20.5921C14.5026 20.7455 14.2945 20.8317 14.0775 20.8317C13.8605 20.8317 13.6525 20.7455 13.499 20.5921L11.351 18.4441L9.20303 20.5921C9.12706 20.668 9.03685 20.7283 8.93759 20.7694C8.83833 20.8105 8.73195 20.8317 8.62451 20.8317C8.51707 20.8317 8.41069 20.8105 8.31143 20.7694C8.21217 20.7283 8.12199 20.668 8.04602 20.5921C7.97005 20.5161 7.9098 20.4259 7.86868 20.3266C7.82757 20.2274 7.8064 20.121 7.8064 20.0136C7.8064 19.9061 7.82757 19.7997 7.86868 19.7005C7.9098 19.6012 7.97005 19.511 8.04602 19.4351L10.194 17.2871L8.04602 15.1391C7.97005 15.0631 7.9098 14.9729 7.86868 14.8736C7.82757 14.7744 7.8064 14.668 7.8064 14.5606C7.8064 14.4531 7.82757 14.3467 7.86868 14.2475C7.9098 14.1482 7.97005 14.058 8.04602 13.9821C8.12199 13.9061 8.21217 13.8458 8.31143 13.8047C8.41069 13.7636 8.51707 13.7424 8.62451 13.7424C8.73195 13.7424 8.83833 13.7636 8.93759 13.8047C9.03685 13.8458 9.12706 13.9061 9.20303 13.9821Z" fill="#FF0000"/>
</g>
<defs>
<clipPath id="clip0_4_25">
<rect width="15" height="21" fill="white"/>
</clipPath>
</defs>
</svg>
