<svg width="26" height="34" viewBox="0 0 26 34" fill="none" xmlns="http://www.w3.org/2000/svg">
<g clip-path="url(#clip0_2_10)">
<path opacity="0.5" d="M8.418 3.60897C8.218 1.69397 8.03698 -0.0350245 10.14 1.23698L12.454 2.96697C13.7388 3.92651 14.7822 5.17244 15.5012 6.60578C16.2202 8.03913 16.5951 9.6204 16.596 11.224V15.656L18.896 13.455C20.395 12.21 23.498 10.36 23.498 12.305V19.982C21.5772 19.071 19.3741 18.9564 17.3691 19.6632C15.3641 20.37 13.7199 21.8408 12.795 23.755C12.562 23.6806 12.3589 23.534 12.2148 23.3364C12.0708 23.1388 11.9935 22.9005 11.994 22.656V18.631C11.994 17.8 11.166 17.301 10.527 17.83C8.58701 19.431 6.242 22.527 6.242 25.675C6.242 29.7 9.11799 30.706 11.994 30.706C12.257 30.706 12.509 30.693 12.748 30.668C13.1156 31.4523 13.6069 32.1725 14.203 32.801C13.488 32.94 12.75 33.012 11.994 33.012C5.63999 33.012 0.48999 27.878 0.48999 21.545V21.482C0.48999 19.171 0.817985 16.627 2.79099 14.564C2.79099 14.564 3.941 13.455 5.091 12.258C6.242 11.061 8.543 7.64597 8.543 5.33997C8.543 4.79997 8.479 4.19497 8.418 3.60897Z" fill="#FC7840"/>
<path d="M20.0459 32.437C22.9051 32.437 25.2229 30.1192 25.2229 27.26C25.2229 24.4008 22.9051 22.083 20.0459 22.083C17.1867 22.083 14.8689 24.4008 14.8689 27.26C14.8689 30.1192 17.1867 32.437 20.0459 32.437Z" fill="#FC7840"/>
</g>
<defs>
<clipPath id="clip0_2_10">
<rect width="26" height="34" fill="white"/>
</clipPath>
</defs>
</svg>
