<svg width="35" height="44" viewBox="0 0 35 44" fill="none" xmlns="http://www.w3.org/2000/svg">
<g clip-path="url(#clip0_4_15)">
<g opacity="0.5">
<path d="M11.33 3.868C11.058 1.27 10.8131 -1.07499 13.6661 0.651007L16.8051 2.99801C18.5353 4.28983 19.9429 5.96478 20.9176 7.89159C21.8923 9.81841 22.4076 11.9448 22.423 14.104C12.9431 14.104 5.25705 21.789 5.25705 31.27C5.25705 35.349 6.68106 39.097 9.05806 42.042C4.02106 39.462 0.57605 34.231 0.57605 28.198V28.113C0.57605 24.978 1.02105 21.527 3.69705 18.729C3.69705 18.729 5.25705 17.225 6.81805 15.601C8.37805 13.977 11.4991 9.345 11.4991 6.217C11.4991 5.483 11.414 4.664 11.33 3.868ZM31.786 16.88V15.664C31.786 14.057 30.223 14.361 28.541 15.226C29.687 15.663 30.774 16.22 31.786 16.88Z" fill="#00FF81"/>
</g>
<path fill-rule="evenodd" clip-rule="evenodd" d="M22.423 43.754C29.318 43.754 34.907 38.164 34.907 31.27C34.907 24.375 29.318 18.785 22.423 18.785C15.528 18.785 9.93903 24.375 9.93903 31.27C9.93903 38.164 15.528 43.754 22.423 43.754ZM29.171 28.468C29.71 27.858 29.681 26.9 29.106 26.329C28.973 26.1937 28.8133 26.0876 28.6371 26.0172C28.4609 25.9469 28.272 25.9139 28.0824 25.9204C27.8927 25.9269 27.7065 25.9727 27.5356 26.0549C27.3646 26.1371 27.2125 26.254 27.089 26.398L20.906 33.394L17.664 30.337C17.5272 30.2056 17.3646 30.104 17.1865 30.0387C17.0084 29.9734 16.8187 29.9458 16.6293 29.9577C16.44 29.9695 16.2552 30.0205 16.0866 30.1075C15.918 30.1945 15.7694 30.3156 15.65 30.463C15.3975 30.7689 15.2695 31.1586 15.2914 31.5546C15.3132 31.9506 15.4834 32.3238 15.768 32.6L19.356 35.983C20.32 36.891 21.789 36.82 22.671 35.823L29.171 28.468Z" fill="#00FF81"/>
</g>
<defs>
<clipPath id="clip0_4_15">
<rect width="35" height="44" fill="white"/>
</clipPath>
</defs>
</svg>
