<?xml version="1.0" encoding="utf-8"?>
<!-- Generator: Adobe Illustrator 28.2.0, SVG Export Plug-In . SVG Version: 6.00 Build 0)  -->
<svg version="1.1" id="Слой_1" xmlns="http://www.w3.org/2000/svg" xmlns:xlink="http://www.w3.org/1999/xlink" x="0px" y="0px"
	 viewBox="0 0 90.85 72.76" style="enable-background:new 0 0 90.85 72.76;" xml:space="preserve">
<style type="text/css">
	.st0{fill:#5F7578;}
	.st1{fill:#869CA1;}
	.st2{fill:#707373;}
	.st3{fill:#D2EAF2;}
	.st4{fill:#E8AF93;}
	.st5{fill:#DBA290;}
	.st6{fill:#FAD0B4;}
	.st7{fill:#3E3B37;}
	.st8{fill:#BAD1DD;}
	.st9{fill:#3E5973;}
	.st10{fill:#63777F;}
	.st11{fill:#54676E;}
	.st12{fill:#E4F4FE;}
	.st13{fill:#465357;}
	.st14{fill:#4F5E61;}
	.st15{fill:#D3D9DB;}
	.st16{fill:#414142;}
	.st17{fill:#595A5C;}
	.st18{fill:#E94847;}
	.st19{fill:#FFFFFF;}
	.st20{fill:#5A4B42;}
	.st21{fill:#624127;}
	.st22{fill:#596C73;}
</style>
<g id="_x31_6_1_">
	<g id="_x31_1_3_">
		<g>
			<g>
				<g>
					<g>
						<rect x="16.21" y="3.18" class="st0" width="58.01" height="36.79"/>
						<rect x="16.94" y="4.28" class="st1" width="56.55" height="34.61"/>
						<rect x="17.71" y="5.17" class="st2" width="55.01" height="33.24"/>
					</g>
				</g>
			</g>
			<polygon class="st3" points="56.27,6.59 18.41,6.59 18.41,36.31 56.27,36.31 70.54,36.31 70.54,6.59 			"/>
			<g>
				<g>
					<g>
						<g>
							<polygon class="st4" points="42.55,22.6 45.09,24.92 45.89,24.01 42.55,20.68 							"/>
							<polygon class="st5" points="47.2,20.17 42.55,20.44 42.55,20.68 45.89,24.01 47.2,22.53 							"/>
						</g>
						<path class="st6" d="M48.95,16.42c-0.01-0.16-0.1-0.43-0.31-0.28c-0.1,0.07-0.05,0.24-0.14,0.3
							c-0.21,0.14-0.24-0.18-0.25-0.32c-0.05-0.54,0.19-1.05,0.12-1.58c-0.09-0.73-0.78-1.23-1.42-1.48
							c-0.64-0.25-1.49-0.24-2.15-0.02c-0.66-0.23-1.51-0.23-2.15,0.02c-0.65,0.25-1.33,0.75-1.42,1.48
							c-0.06,0.53,0.18,1.04,0.12,1.58c-0.02,0.14-0.04,0.46-0.25,0.32c-0.09-0.06-0.04-0.23-0.14-0.3
							c-0.21-0.16-0.3,0.11-0.31,0.28c-0.03,0.58,0.05,1.21,0.31,1.73c0.15,0.31,0.36,0.39,0.56,0.61c0.23,0.24,0.19,0.72,0.28,1.03
							c0.06,0.21,0.15,0.4,0.27,0.56c0.25,0.35,0.7,0.52,0.99,0.84c0.27,0.3,0.52,0.6,0.9,0.79c0.23,0.11,0.54,0.12,0.83,0.1
							c0.29,0.01,0.6,0.01,0.83-0.1c0.37-0.19,0.63-0.49,0.9-0.79c0.29-0.32,0.74-0.49,0.99-0.84c0.12-0.17,0.21-0.35,0.27-0.56
							c0.09-0.3,0.05-0.78,0.28-1.03c0.21-0.22,0.42-0.3,0.56-0.61C48.89,17.63,48.98,17,48.95,16.42z"/>
						<path class="st7" d="M40.95,15.69c0.09,0.3,0.1,0.53,0.09,0.84c0,0.04-0.01,0.1-0.01,0.17h0.39c0.01-0.08,0-0.16,0-0.21
							c-0.01-0.22,0-0.4,0.01-0.62c0.01-0.3-0.02-0.6,0.01-0.9c0.08-0.78,0.74-1.32,1.48-1.38c0.54-0.04,1.08,0.07,1.62,0.07
							c0.67,0,0.97-0.32,1.5-0.65c0.14-0.09,0.06-0.1,0.21-0.06c0.1,0.02,0.22,0.15,0.3,0.21c0.5,0.31,1.4,0.61,1.55,1.26
							c0.12,0.51,0.09,1.03,0.08,1.55c0,0.07-0.07,0.47-0.05,0.73h0.3c0.09-0.31,0.22-0.74,0.26-0.9c0.13-0.66,0.1-0.95,0.13-1.23
							c0.11-0.99,0.16-1.94-0.45-2.78c-0.65-0.89-1.63-1.41-2.14-1.35c-0.03,0-0.38,0.04-0.33,0.08c-0.18-0.17-0.51-0.18-0.74-0.23
							c-1.22-0.29-2.76,0.47-3.64,1.27c-0.93,0.85-0.79,1.95-0.69,3C40.85,14.93,40.85,15.34,40.95,15.69z"/>
					</g>
					<g>
						<path class="st8" d="M42.55,26.67c-0.01-0.17,2.23-2.53,2.23-2.53h0.29l2.13,2.38l-2.23,5.96L42.55,26.67z"/>
						<path class="st9" d="M46.04,29.17l-0.76-3.45c-0.02-0.11-0.01-0.22,0.05-0.32l0.29-0.54c0.01-0.03,0.01-0.07-0.02-0.1
							c-0.11-0.11-0.22-0.22-0.33-0.33c-0.08-0.08-0.17-0.15-0.21-0.24c-0.03-0.07-0.12-0.23-0.22-0.16
							c-0.09,0.06-0.12,0.15-0.17,0.23c-0.06,0.08-0.15,0.14-0.21,0.21c-0.1,0.1-0.2,0.2-0.3,0.3c-0.02,0.03-0.03,0.06-0.02,0.1
							l0.29,0.54c0.05,0.1,0.07,0.21,0.05,0.32l-0.76,3.45c0,0.02,0,0.04,0,0.05l1.05,2.7c0.02,0.05,0.07,0.06,0.11,0.05
							c0.04,0.02,0.1,0,0.11-0.05l1.05-2.7C46.05,29.2,46.05,29.18,46.04,29.17z"/>
						<g>
							<path class="st10" d="M44.74,31.27L43,25.49l-0.73-2.43c0,0-0.03,0.01-0.08,0.02c-0.18,0.05-0.67,0.2-1.29,0.39
								c-1.66,0.5-4.25,1.29-4.32,1.34c-0.07,0.04-0.94,1.81-1.47,2.91v4.37c0.11,0.43,0.26,0.78,0.43,0.96
								c2.23,2.24,8.12,2.14,9.24,2.28L44.74,31.27z"/>
							<path class="st11" d="M54.58,27.6c-0.54-1.1-1.34-2.74-1.41-2.79c-0.07-0.05-2.66-0.84-4.32-1.34
								c-0.62-0.18-1.11-0.33-1.29-0.39c-0.05-0.02-0.08-0.02-0.08-0.02l-1.02,3.29l-1.61,5.2v0.05l-0.1-0.34l0.04,4.07l0.04,0.01
								c0.52-0.04,8-0.01,9.39-2.29c0.14-0.23,0.27-0.63,0.37-1.11V27.6z"/>
						</g>
						<path class="st12" d="M47.24,21.87l-2.3,2.08c-0.04,0.03-0.09,0.03-0.12,0l-2.3-2.08L42,23.37l0.99,3.29l1.81-2.54
							c0.04-0.05,0.11-0.05,0.15,0l1.81,2.54l0.99-3.29L47.24,21.87z"/>
						<path class="st13" d="M47.85,25.19l1.21,0.51l-4.22,7.99l-4.16-7.99l1.21-0.51l-1.39-0.68c0.07-0.21,0.22-0.64,0.4-1.03
							c0.62-0.18,1.11-0.33,1.29-0.39l0.81,2.4l0.64,1.91l1.16,3.81l1.3-3.81l0.35-1.05l1.1-3.26c0.18,0.05,0.67,0.2,1.29,0.39
							c0.18,0.39,0.33,0.82,0.4,1.03L47.85,25.19z"/>
					</g>
				</g>
				<g>
					<path class="st14" d="M57.77,33.78v1.44c0,0.43-0.35,0.78-0.78,0.78H31.46c-0.43,0-0.78-0.35-0.78-0.78v-1.44
						c0-0.43,0.35-0.78,0.78-0.78h25.52C57.42,33,57.77,33.35,57.77,33.78z"/>
					<path class="st13" d="M57.77,34.92v0.3c0,0.43-0.35,0.78-0.78,0.78H31.46c-0.43,0-0.78-0.35-0.78-0.78v-0.3H57.77z"/>
				</g>
				<g>
					<path class="st1" d="M52.01,26.67H37.75c-0.08,0-0.14,0.04-0.18,0.09c-0.02,0.03-0.03,0.07-0.02,0.11l0.84,7.48
						c0.01,0.08,0.11,0.15,0.21,0.15h12.55h0c0.11,0,0.2-0.07,0.21-0.15l0.84-7.48C52.22,26.76,52.13,26.67,52.01,26.67z
						 M46.35,31.52c0,0.02-0.03,0.04-0.05,0.04h-3.11c-0.03,0-0.05-0.02-0.05-0.04l-0.21-1.86c0,0,0.02-0.05,0.05-0.05h2.11h1.43
						c0.03,0,0.05,0.02,0.05,0.02l-0.09,0.84L46.35,31.52z"/>
					<path class="st15" d="M46.51,29.61h-1.43h-2.11c-0.03,0-0.05,0.02-0.05,0.02l0.21,1.88c0,0.02,0.03,0.04,0.05,0.04h3.11
						c0.03,0,0.05-0.02,0.05-0.04l0.12-1.04l0.09-0.81C46.56,29.66,46.54,29.61,46.51,29.61z"/>
				</g>
				<path class="st13" d="M49.73,15.5c0.11-1.36,0-3.13-1.03-4.45c-0.75-0.97-2.32-1.75-3.89-1.75c-1.54,0-3.15,0.78-3.9,1.75
					c-1.03,1.33-1.14,3.1-1.03,4.45c-0.59,0.3-0.74,1.07-0.63,1.91c0.14,0.98,0.59,1.25,1.48,1.17l-0.5-3.2h0
					c-0.1-1.29,0.03-2.93,0.96-4.13c0.69-0.88,2.19-1.56,3.62-1.61c1.6,0.05,2.93,0.72,3.61,1.61c0.94,1.2,1.06,2.85,0.96,4.13h0
					l-0.5,3.2h0.02l-1.54,1.8c-0.09-0.08-0.23-0.08-0.32,0l-0.79,0.74c-0.09,0.08-0.09,0.23,0,0.32l0.16,0.16
					c0.09,0.09,0.24,0.09,0.33,0.01l0.79-0.74c0.06-0.06,0.08-0.15,0.06-0.22l1.77-2.06c0.58-0.06,0.9-0.38,1-1.17
					C50.47,16.57,50.32,15.8,49.73,15.5z"/>
			</g>
			<polygon class="st16" points="56.27,36.5 18.41,36.5 18.41,38.2 70.54,38.2 70.54,36.5 			"/>
			<g>
				<rect x="56.27" y="36.11" class="st17" width="14.27" height="0.73"/>
				<rect x="18.41" y="36.11" class="st18" width="37.85" height="0.73"/>
			</g>
			<g>
				<path class="st19" d="M57.11,36.26c0,0.53-0.43,0.97-0.97,0.97c-0.53,0-0.97-0.43-0.97-0.97c0-0.53,0.43-0.97,0.97-0.97
					C56.68,35.29,57.11,35.73,57.11,36.26z"/>
				<path class="st18" d="M56.63,36.26c0,0.27-0.22,0.48-0.48,0.48c-0.27,0-0.48-0.22-0.48-0.48c0-0.27,0.22-0.48,0.48-0.48
					C56.41,35.78,56.63,35.99,56.63,36.26z"/>
			</g>
			<polygon class="st19" points="18.98,36.94 19.94,37.49 18.98,38.04 			"/>
			<g>
				<polygon class="st19" points="21.47,37.24 21.19,37.24 21.19,37.69 21.47,37.69 21.9,38.04 21.9,36.9 				"/>
				<g>
					<path class="st19" d="M22.25,37.31c-0.02-0.04-0.04-0.07-0.07-0.1c-0.08-0.06-0.16-0.05-0.16-0.05c-0.01,0-0.02,0.01-0.02,0.03
						c0,0.01,0.01,0.02,0.03,0.02c0,0,0.06-0.01,0.12,0.04c0.02,0.02,0.05,0.05,0.07,0.1c0.03,0.07,0.03,0.14,0,0.21
						c-0.02,0.05-0.05,0.08-0.07,0.1c-0.06,0.05-0.12,0.04-0.12,0.04c-0.01,0-0.02,0.01-0.03,0.02c0,0.01,0,0.02,0.02,0.03
						c0,0,0.08,0.02,0.16-0.05c0.03-0.02,0.05-0.06,0.07-0.1C22.29,37.51,22.29,37.41,22.25,37.31z"/>
					<path class="st19" d="M22.08,37.55c-0.01,0-0.02,0.01-0.02,0.02c0,0.01,0.01,0.02,0.02,0.02c0.01,0,0.03,0,0.06-0.03
						c0.05-0.06,0.05-0.14,0-0.2c-0.03-0.03-0.05-0.03-0.06-0.03c-0.01,0-0.02,0.01-0.02,0.02c0,0.01,0.01,0.02,0.02,0.02
						c0,0,0.01,0,0.03,0.02c0.04,0.04,0.04,0.1,0,0.14C22.09,37.54,22.08,37.55,22.08,37.55z"/>
				</g>
			</g>
		</g>
	</g>
	<g>
		<g>
			<path class="st6" d="M28.9,41.84c-0.01-0.17-0.1-0.46-0.33-0.3c-0.1,0.08-0.05,0.26-0.15,0.32c-0.23,0.15-0.25-0.19-0.27-0.34
				c-0.06-0.57,0.2-1.12,0.13-1.68c-0.09-0.78-1.04-1.76-1.72-2.02c-0.68-0.26-1.58-0.26-2.28-0.02c-0.7-0.24-1.6-0.25-2.28,0.02
				c-0.69,0.26-1.2,1.24-1.3,2.02c-0.07,0.56,0.19,1.11,0.13,1.68c-0.02,0.15-0.04,0.49-0.27,0.34c-0.09-0.06-0.04-0.25-0.15-0.32
				c-0.39-0.29-0.3,0.54-0.26,0.68c0.16,0.57,0.37,1.26,0.88,1.62c0.15,0.1,0.48,0.16,0.57,0.26c0.23,0.25,0.59,1.67,0.58,2.02
				l-0.09,2.29l2.69,2.47l0.86-0.97l1.47-1.57c0-1.31-0.54-2.93,0.51-4C28.45,43.5,28.96,43.11,28.9,41.84z"/>
			<path class="st7" d="M20.18,41.02c0.06,0.29,0.13,0.6,0.17,0.93c0.13,0.94,0.95,1.5,1.35,2.34c0.19,0.39,0.62,0.83,0.7,1.25
				c0.61-0.21,0.25-0.33,0.74,0.1c0.31,0.27,1.36,0.24,1.74,0.12c0.24-0.08,0.33-0.35,0.61-0.39c0.27-0.04,0.54,0.19,0.83,0.18
				c-0.06,0,0.56-0.12,0.45-0.07c0.8-0.35,1.43-1.73,1.71-2.48c0.18-0.5,0.52-0.91,0.7-1.41c0.18-0.49,0.17-1.09,0.24-1.61
				c0.15-1.2,0.24-2.59-0.43-3.67c-0.74-1.19-2.66-2.46-4.1-2.45c-1.43,0.02-3.64,1.33-4.38,2.54
				C19.67,37.8,19.85,39.51,20.18,41.02z"/>
		</g>
		<g>
			<path class="st12" d="M27.08,47.63l-1.72,0.32c-0.57,0.1-1.15,0.1-1.71-0.01l-1.59-0.31l-0.55,1.6l1.06,3.5h4l1.06-3.5
				L27.08,47.63z"/>
			<path class="st13" d="M34.49,56.9c-1.21,1.22-3.43,2.05-5.48,2.58c-1.34,0.35-2.61,0.57-3.47,0.69
				c-0.63,0.09-1.27,0.09-1.89-0.01c-2.12-0.32-6.97-1.23-8.99-3.26c-0.79-0.79-0.97-2-0.48-3c0.57-1.16,1.51-3.08,1.58-3.13
				c0.07-0.05,2.83-0.89,4.59-1.42c0.66-0.2,1.18-0.35,1.37-0.41c0.05-0.02,0.08-0.03,0.08-0.03h5.53c0,0,0.03,0.01,0.08,0.03
				c0.2,0.06,0.72,0.21,1.37,0.41c1.77,0.54,4.52,1.37,4.6,1.42c0.08,0.05,1.02,1.97,1.58,3.14C35.45,54.9,35.27,56.11,34.49,56.9z"
				/>
		</g>
	</g>
	<g>
		<g>
			<path class="st6" d="M58.98,40.72c-0.01-0.17-0.1-0.46-0.33-0.3c-0.1,0.08-0.05,0.26-0.15,0.32c-0.23,0.15-0.25-0.19-0.27-0.34
				c-0.06-0.57,0.2-1.12,0.13-1.68c-0.09-0.78-1.04-1.76-1.72-2.02c-0.68-0.26-1.58-0.26-2.28-0.02c-0.7-0.24-1.6-0.25-2.28,0.02
				c-0.69,0.26-1.2,1.24-1.3,2.02c-0.07,0.56,0.19,1.11,0.13,1.68c-0.01,0.15-0.04,0.49-0.27,0.34c-0.09-0.06-0.04-0.25-0.15-0.32
				c-0.39-0.29-0.3,0.54-0.26,0.68c0.16,0.57,0.37,1.26,0.88,1.62c0.15,0.1,0.48,0.16,0.57,0.26c0.23,0.25,0.59,1.67,0.58,2.02
				l-0.09,2.29l2.69,2.47l0.86-0.97l1.47-1.57c0-1.31-0.54-2.93,0.51-3.99C58.53,42.38,59.04,41.99,58.98,40.72z"/>
			<path class="st20" d="M50.26,39.9c0.06,0.29,0.13,0.6,0.17,0.93c0.13,0.94,0.95,1.5,1.35,2.34c0.19,0.39,0.62,0.83,0.7,1.25
				c0.61-0.21,0.25-0.33,0.74,0.1c0.31,0.27,1.36,0.24,1.74,0.12c0.24-0.08,0.33-0.35,0.61-0.39c0.27-0.04,0.54,0.19,0.83,0.18
				c-0.06,0,0.56-0.12,0.45-0.07c0.79-0.35,1.43-1.73,1.71-2.48c0.18-0.5,0.52-0.91,0.7-1.41c0.18-0.49,0.17-1.09,0.24-1.61
				c0.32-2.36,0.06-4.69-2.97-5.19c-1.39-0.23-3-0.3-4.32,0.22c-1.12,0.44-1.82,1.59-2.2,2.68C49.62,37.67,50.05,38.95,50.26,39.9z"
				/>
		</g>
		<g>
			<path class="st12" d="M57.16,46.51l-1.73,0.32c-0.57,0.1-1.15,0.1-1.71-0.01l-1.59-0.31l-0.55,1.6l1.06,3.5h4l1.06-3.5
				L57.16,46.51z"/>
			<path class="st13" d="M64.57,55.78c-1.21,1.22-3.43,2.05-5.48,2.58c-1.34,0.35-2.61,0.57-3.47,0.69
				c-0.63,0.09-1.26,0.09-1.89-0.01c-2.12-0.32-6.97-1.24-8.99-3.26c-0.79-0.79-0.97-2-0.48-3c0.57-1.16,1.5-3.08,1.58-3.13
				c0.07-0.05,2.83-0.89,4.59-1.42c0.66-0.2,1.18-0.35,1.37-0.41c0.05-0.02,0.08-0.03,0.08-0.03h5.53c0,0,0.03,0.01,0.08,0.03
				c0.19,0.06,0.71,0.21,1.37,0.41c1.77,0.54,4.52,1.37,4.6,1.42c0.08,0.05,1.02,1.97,1.58,3.14
				C65.53,53.78,65.35,54.99,64.57,55.78z"/>
		</g>
	</g>
	<g>
		<path class="st6" d="M71.53,44.67c-0.01-0.17-0.1-0.45-0.32-0.29c-0.1,0.07-0.05,0.25-0.14,0.31c-0.22,0.15-0.24-0.18-0.26-0.33
			c-0.06-0.55,0.19-1.09,0.13-1.63c-0.09-0.76-1-1.71-1.67-1.96c-0.66-0.25-1.54-0.25-2.21-0.02c-0.68-0.24-1.55-0.24-2.21,0.02
			c-0.67,0.26-1.17,1.21-1.26,1.96c-0.07,0.54,0.18,1.08,0.13,1.63c-0.01,0.15-0.04,0.47-0.26,0.33c-0.09-0.06-0.04-0.24-0.14-0.31
			c-0.38-0.28-0.29,0.52-0.25,0.66c0.15,0.56,0.36,1.23,0.86,1.57c0.14,0.1,0.46,0.16,0.55,0.25c0.22,0.24,0.57,1.62,0.56,1.96
			l-0.08,2.23l2.61,2.4l0.83-0.94l1.42-1.53c0-1.28-0.52-2.85,0.49-3.88C71.1,46.27,71.59,45.89,71.53,44.67z"/>
		<path class="st21" d="M62.99,43.89c0.31,0.88,0.76,1.72,1.38,2.41c0.62,0.67,1.1,1.25,1.16,2.22c1.12,0.04,2.25,0.07,3.37,0.11
			c0.75,0.02,1.48-1.92,1.73-2.43c0.63-1.28,1.27-1.98,1.42-3.44c0.23-2.34-0.24-4.49-2.9-4.93c-1.35-0.22-2.91-0.29-4.2,0.22
			c-1.09,0.43-1.77,1.54-2.14,2.6C62.48,41.62,62.6,42.78,62.99,43.89z"/>
		<g>
			<path class="st12" d="M69.76,50.29l-1.67,0.31c-0.55,0.1-1.11,0.1-1.66-0.01l-1.54-0.3l-0.53,1.56l1.03,3.4h3.89l1.03-3.4
				L69.76,50.29z"/>
			<path class="st9" d="M76.96,59.29c-1.17,1.19-3.33,1.99-5.33,2.51c-1.3,0.34-2.53,0.55-3.37,0.67c-0.61,0.09-1.23,0.09-1.84-0.01
				c-2.06-0.31-6.77-1.2-8.73-3.17c-0.76-0.77-0.94-1.94-0.47-2.91c0.55-1.13,1.46-2.99,1.54-3.04c0.07-0.05,2.75-0.86,4.46-1.38
				c0.64-0.19,1.14-0.34,1.33-0.4c0.05-0.02,0.08-0.02,0.08-0.02h5.37c0,0,0.03,0.01,0.08,0.02c0.19,0.06,0.69,0.21,1.33,0.4
				c1.71,0.52,4.39,1.33,4.46,1.38c0.07,0.05,0.99,1.92,1.54,3.05C77.89,57.35,77.72,58.52,76.96,59.29z"/>
		</g>
	</g>
	<g>
		<g>
			<path class="st6" d="M46.23,43.42c-0.01-0.17-0.1-0.45-0.32-0.29c-0.1,0.07-0.05,0.26-0.14,0.32c-0.22,0.15-0.25-0.19-0.26-0.33
				c-0.06-0.56,0.19-1.1,0.13-1.65c-0.09-0.77-1.02-1.73-1.69-1.99c-0.67-0.26-1.55-0.25-2.24-0.02c-0.69-0.24-1.57-0.24-2.24,0.02
				c-0.67,0.26-1.18,1.22-1.28,1.99c-0.07,0.55,0.18,1.09,0.13,1.65c-0.01,0.15-0.04,0.48-0.26,0.33c-0.09-0.06-0.04-0.24-0.14-0.32
				c-0.39-0.29-0.29,0.53-0.25,0.66c0.15,0.56,0.36,1.24,0.86,1.59c0.15,0.1,0.47,0.16,0.56,0.25c0.22,0.24,0.58,1.64,0.56,1.98
				l-0.09,2.25l2.64,2.42l0.84-0.95l1.44-1.54c0-1.29-0.53-2.88,0.5-3.92C45.79,45.05,46.29,44.66,46.23,43.42z"/>
			<path class="st21" d="M37.67,42.61c0.06,0.29,0.12,0.59,0.17,0.91c0.12,0.92,0.93,1.47,1.33,2.3c0.18,0.39,0.6,0.82,0.69,1.23
				c0.6-0.21,0.24-0.33,0.73,0.1c0.3,0.27,1.34,0.24,1.71,0.12c0.24-0.08,0.33-0.34,0.6-0.38c0.27-0.04,0.53,0.18,0.81,0.17
				c-0.06,0,0.55-0.12,0.44-0.07c0.78-0.34,1.41-1.7,1.68-2.44c0.18-0.49,0.51-0.89,0.69-1.38c0.18-0.48,0.17-1.07,0.23-1.58
				c0.31-2.31,0.06-4.6-2.92-5.09c-1.36-0.23-2.94-0.3-4.24,0.22c-1.1,0.44-1.79,1.56-2.16,2.63
				C37.05,40.43,37.47,41.68,37.67,42.61z"/>
		</g>
		<g>
			<path class="st12" d="M44.44,49.11l-1.69,0.31c-0.56,0.1-1.12,0.1-1.68-0.01l-1.56-0.3l-0.54,1.57l1.04,3.43h3.93l1.04-3.43
				L44.44,49.11z"/>
			<path class="st22" d="M51.72,58.2c-1.18,1.2-3.37,2.01-5.38,2.53c-1.31,0.34-2.56,0.56-3.41,0.68c-0.62,0.09-1.24,0.09-1.86-0.01
				c-2.09-0.31-6.84-1.21-8.82-3.2c-0.77-0.77-0.95-1.96-0.47-2.94c0.56-1.14,1.48-3.03,1.55-3.08c0.07-0.05,2.78-0.87,4.51-1.4
				c0.65-0.19,1.16-0.35,1.35-0.4c0.05-0.02,0.08-0.03,0.08-0.03h5.43c0,0,0.03,0.01,0.08,0.03c0.19,0.06,0.7,0.21,1.34,0.4
				c1.73,0.53,4.44,1.35,4.51,1.4c0.07,0.05,1,1.94,1.55,3.08C52.66,56.24,52.48,57.42,51.72,58.2z"/>
		</g>
	</g>
	<g>
		<g>
			<path class="st6" d="M35.7,48.27c-0.01-0.19-0.11-0.52-0.37-0.33c-0.11,0.08-0.06,0.29-0.16,0.36c-0.26,0.17-0.28-0.21-0.3-0.38
				c-0.07-0.64,0.22-1.25,0.15-1.88c-0.11-0.88-1.16-1.97-1.93-2.27c-0.76-0.29-1.78-0.29-2.56-0.02c-0.79-0.27-1.8-0.28-2.56,0.02
				c-0.77,0.3-1.35,1.4-1.46,2.27c-0.08,0.63,0.21,1.24,0.15,1.88c-0.02,0.17-0.04,0.55-0.3,0.38c-0.11-0.07-0.05-0.28-0.17-0.36
				c-0.44-0.33-0.33,0.6-0.29,0.76c0.18,0.64,0.41,1.42,0.99,1.82c0.17,0.12,0.54,0.18,0.64,0.29c0.26,0.28,0.66,1.87,0.65,2.26
				l-0.1,2.57l3.02,2.77l0.96-1.09l1.65-1.77c0-1.48-0.6-3.29,0.57-4.49C35.2,50.13,35.78,49.69,35.7,48.27z"/>
			<path class="st21" d="M25.92,47.35c0.32,1.17,1.14,1.98,1.74,2.99c0.39,0.66,0.48,1.62,1.1,2.12c0.4,0.32,0.93,0.42,1.44,0.51
				c0.63,0.11,1.29,0.21,1.91,0.03c1.46-0.42,2.19-2.43,2.77-3.68c0.72-1.54,1.44-5.21,0.54-6.71c-1.06-1.76-3.29-2.12-5.16-2.15
				c-0.83-0.01-2.01,0.13-2.76,0.48c-0.21,0.1-1.64,1.17-1.66,1.14c0.48,0.89,0.09,1.49-0.18,2.32c-0.24,0.74,0.02,1.58,0.14,2.38
				C25.83,46.98,25.87,47.17,25.92,47.35z"/>
		</g>
		<g>
			<path class="st12" d="M33.66,54.77l-1.94,0.36c-0.64,0.12-1.29,0.11-1.92-0.01l-1.78-0.35l-0.61,1.8l1.19,3.93h4.49l1.19-3.93
				L33.66,54.77z"/>
			<path class="st9" d="M41.99,65.17c-2.96,3.01-7.52,3.01-11.41,3.11c-3.78,0.1-8.22-0.28-10.97-3.2
				c-0.82-0.88-0.97-2.19-0.45-3.27c0.63-1.31,1.69-3.47,1.78-3.52c0.08-0.06,3.18-0.99,5.16-1.6c0.74-0.22,1.32-0.4,1.54-0.46
				c0.06-0.02,0.09-0.03,0.09-0.03h6.21c0,0,0.03,0.01,0.09,0.03c0.22,0.07,0.8,0.24,1.54,0.46c1.98,0.6,5.08,1.54,5.16,1.6
				c0.08,0.06,1.14,2.22,1.78,3.52C43.06,62.93,42.86,64.28,41.99,65.17z"/>
		</g>
	</g>
	<g>
		<path class="st6" d="M58.4,48.49c-0.01-0.19-0.12-0.52-0.39-0.33c-0.12,0.08-0.06,0.29-0.17,0.36c-0.27,0.17-0.3-0.21-0.32-0.38
			c-0.07-0.64,0.24-1.25,0.16-1.88c-0.11-0.88-1.24-1.97-2.06-2.27c-0.81-0.29-1.89-0.29-2.72-0.02c-0.83-0.27-1.91-0.28-2.72,0.02
			c-0.82,0.3-1.44,1.39-1.55,2.27c-0.08,0.63,0.22,1.24,0.16,1.88c-0.02,0.17-0.04,0.55-0.32,0.38c-0.11-0.07-0.05-0.28-0.18-0.36
			c-0.47-0.33-0.36,0.6-0.31,0.76c0.19,0.64,0.44,1.41,1.05,1.81c0.18,0.12,0.57,0.18,0.68,0.29c0.27,0.28,0.7,1.87,0.69,2.26
			l-0.1,2.57l3.21,2.77l1.02-1.09l1.75-1.77c0-1.47-0.64-3.29,0.61-4.48C57.87,50.35,58.48,49.91,58.4,48.49z"/>
		<path class="st7" d="M47.99,47.57c0.47,2.04,1.61,3.75,3.73,4.51c1.38,0.5,2.45,0.88,3.67,0.07c2.41-1.59,3.09-4.3,3.37-6.98
			c0.14-1.4,0.22-2.13-0.43-3.38c-0.74-1.43-0.98-1.37-2.43-1.44c-0.81-0.04-1.52-0.43-2.32-0.48c-2.39-0.16-4.37,1.17-5.5,3.19
			C47.22,44.59,47.62,45.95,47.99,47.57z"/>
		<g>
			<path class="st12" d="M56.23,54.98l-2.06,0.36c-0.68,0.12-1.37,0.11-2.04-0.01l-1.89-0.35l-0.65,1.8l1.26,3.92h4.78l1.26-3.92
				L56.23,54.98z"/>
			<path class="st10" d="M65.07,65.37c-3.12,2.96-8.17,3.31-12.23,3.29c-3.86-0.03-8.5-0.51-11.45-3.29
				c-0.94-0.88-1.16-2.24-0.58-3.36c0.68-1.31,1.8-3.46,1.89-3.52c0.09-0.06,3.38-0.99,5.49-1.59c0.79-0.22,1.4-0.4,1.64-0.46
				c0.07-0.02,0.1-0.03,0.1-0.03h6.61c0,0,0.03,0.01,0.1,0.03c0.23,0.07,0.85,0.24,1.63,0.46c2.11,0.6,5.4,1.54,5.49,1.59
				c0.09,0.06,1.21,2.21,1.89,3.52C66.22,63.14,66.01,64.49,65.07,65.37z"/>
		</g>
	</g>
</g>
</svg>
