<?xml version="1.0" encoding="utf-8"?>
<!-- Generator: Adobe Illustrator 28.2.0, SVG Export Plug-In . SVG Version: 6.00 Build 0)  -->
<svg version="1.1" id="Слой_1" xmlns="http://www.w3.org/2000/svg" xmlns:xlink="http://www.w3.org/1999/xlink" x="0px" y="0px"
	 viewBox="0 0 90.85 72.76" style="enable-background:new 0 0 90.85 72.76;" xml:space="preserve">
<style type="text/css">
	.st0{fill:#6C838A;}
	.st1{fill:#5F7578;}
	.st2{fill:#D8AD95;}
	.st3{fill:#030304;}
	.st4{fill:#E2BCA2;}
	.st5{fill:#1D1D1D;}
	.st6{fill:#2D2D2D;}
	.st7{fill:#212020;}
	.st8{fill:#231F20;}
	.st9{fill:#414142;}
	.st10{fill:#0D2230;}
	.st11{fill:#0E2D40;}
	.st12{fill:#162F4E;}
	.st13{fill:#D1D2D4;}
	.st14{fill:#A7A9AB;}
	.st15{fill:#FFFFFF;}
	.st16{fill:#DEB09D;}
	.st17{fill:#5A4B42;}
	.st18{fill:#BDBEC0;}
	.st19{fill:#E7E8E9;}
	.st20{fill:#17405E;}
	.st21{fill:#CCA692;}
	.st22{fill:#22414F;}
	.st23{fill:#27495C;}
	.st24{fill:#29110B;}
	.st25{fill:#2D556F;}
	.st26{fill:#9BA6B1;}
	.st27{fill:#EA6121;}
	.st28{fill:#EF7643;}
	.st29{fill:#24B7EA;}
	.st30{fill:#14A6DC;}
	.st31{fill:#43454D;}
	.st32{fill:#595A5C;}
	.st33{fill:#E8CB37;}
	.st34{fill:#F7DC55;}
	.st35{fill:#D2EAF2;}
	.st36{fill:#EC6667;}
</style>
<g id="_x38_">
	<g>
		<g id="_x31__2_">
			<path class="st0" d="M13.32,33.18c0.91-1.51,1.84-2.24,2.69-0.87c0.13,0.21,0.26,0.9,0.29,1.45c0.21,4.08,0.19,7.73-0.04,10.96
				c-0.03,0.37-0.16,0.79-0.3,0.94c-0.86,0.93-1.61,1.48-2.25,0.73c-0.1-0.13-0.22-0.61-0.26-1.01c-0.32-3.56-0.48-7.16-0.42-10.81
				C13.04,34.06,13.17,33.43,13.32,33.18z"/>
			<rect x="20.88" y="50.07" class="st1" width="4.15" height="2.05"/>
			<path class="st0" d="M30.11,49.96v0.9H15.29v-0.9c0-0.38,0.3-0.68,0.68-0.68h13.46C29.8,49.28,30.11,49.58,30.11,49.96z"/>
			<rect x="22.33" y="51.03" class="st1" width="0.96" height="7.99"/>
			<rect x="21.69" y="54.1" class="st1" width="2.25" height="7.69"/>
			<rect x="20.88" y="61.04" class="st1" width="3.79" height="1.81"/>
			<polygon class="st1" points="23.29,61.95 24,62.28 24.02,61.95 30.82,62.8 31.65,64.61 30.82,64.61 30.11,63.65 26.51,63.43 
				29.06,64.61 29.84,65.83 28.98,66.26 28.34,65.37 22.81,62.85 			"/>
			<path class="st1" d="M21.85,62.15l0.62-0.47l0.66,0.78l-4.76,3.48l-0.55,1.15l-0.93-0.23l0.51-1.36
				C17.4,65.49,21.18,62.87,21.85,62.15L21.85,62.15z"/>
			<path class="st1" d="M15.95,62.8l6.8-0.85l0.02,0.32c-0.81,0.57-1.76,0.62-2.69,0.91l-3.42,0.47l-0.71,0.96h-0.83L15.95,62.8z"/>
			<path class="st1" d="M30.29,64.99c0,0.45,0.37,0.82,0.82,0.82c0.45,0,0.82-0.37,0.82-0.82c0-0.45-0.37-0.82-0.82-0.82
				C30.66,64.17,30.29,64.54,30.29,64.99z"/>
			<circle class="st1" cx="29.35" cy="66.26" r="1.05"/>
			<path class="st1" d="M16.4,67.31c0,0.58,0.47,1.05,1.05,1.05c0.58,0,1.05-0.47,1.05-1.05c0-0.58-0.47-1.05-1.05-1.05
				C16.87,66.26,16.4,66.73,16.4,67.31z"/>
			<circle class="st1" cx="15.85" cy="64.61" r="0.78"/>
		</g>
		<g>
			<path class="st0" d="M77.5,30.26c-2.14-1.73-4.15-2.68-5.97-1.81c-0.27,0.13-0.56,0.67-0.64,1.14
				c-0.62,3.58-0.74,7.17-0.37,10.75c0.05,0.43,0.35,1.01,0.66,1.28c2.1,1.79,4.05,3.12,5.75,2.75c0.28-0.07,0.58-0.57,0.67-1.04
				c0.71-4,0.97-7.88,0.64-11.62C78.2,31.22,77.85,30.56,77.5,30.26z"/>
			<rect x="66.03" y="48.42" class="st1" width="4.15" height="2.05"/>
			<path class="st0" d="M60.95,48.31v0.9h14.82v-0.9c0-0.38-0.3-0.68-0.68-0.68H61.63C61.26,47.63,60.95,47.93,60.95,48.31z"/>
			<rect x="67.77" y="49.38" class="st1" width="0.96" height="8"/>
			<rect x="67.13" y="52.46" class="st1" width="2.25" height="7.7"/>
			<rect x="66.4" y="59.41" class="st1" width="3.79" height="1.81"/>
			<polygon class="st1" points="67.77,60.31 67.06,60.64 67.04,60.31 60.25,61.17 59.42,62.98 60.25,62.98 60.95,62.02 64.55,61.8 
				62.01,62.98 61.22,64.2 62.08,64.63 62.72,63.73 68.25,61.22 			"/>
			<path class="st1" d="M69.21,60.51l-0.62-0.47l-0.66,0.78l4.76,3.48l0.55,1.15l0.93-0.23l-0.51-1.36
				C73.66,63.86,69.88,61.23,69.21,60.51L69.21,60.51z"/>
			<path class="st1" d="M75.11,61.17l-6.79-0.85l-0.02,0.32c0.81,0.57,1.76,0.62,2.69,0.91l3.42,0.47l0.71,0.96h0.83L75.11,61.17z"
				/>
			<path class="st1" d="M60.77,63.36c0,0.45-0.37,0.82-0.82,0.82c-0.45,0-0.82-0.37-0.82-0.82c0-0.45,0.37-0.82,0.82-0.82
				C60.4,62.54,60.77,62.91,60.77,63.36z"/>
			<path class="st1" d="M62.76,64.63c0,0.58-0.47,1.05-1.05,1.05c-0.58,0-1.05-0.47-1.05-1.05c0-0.58,0.47-1.05,1.05-1.05
				C62.29,63.58,62.76,64.05,62.76,64.63z"/>
			<path class="st1" d="M74.65,65.68c0,0.58-0.47,1.05-1.05,1.05c-0.58,0-1.05-0.47-1.05-1.05c0-0.58,0.47-1.05,1.05-1.05
				C74.19,64.63,74.65,65.1,74.65,65.68z"/>
			<path class="st1" d="M75.99,62.98c0,0.43-0.35,0.78-0.78,0.78c-0.43,0-0.78-0.35-0.78-0.78c0-0.43,0.35-0.78,0.78-0.78
				C75.64,62.2,75.99,62.55,75.99,62.98z"/>
		</g>
		<g>
			<g>
				<path class="st2" d="M56.79,45.71l0.41-0.36c-0.41-0.03-0.82-0.12-1.21-0.26c-0.19-0.07-0.41-0.15-0.6-0.06
					c-0.17,0.09-0.23,0.29-0.28,0.48c-0.3,1.18-2.56,11.35-2.78,12.17c-0.28,1.08-0.85,1.98-1.28,2.99
					c-0.41,0.95-0.85,1.97-1.4,2.84c-0.1,0.16-0.3,0.3-0.5,0.43c-0.14,0.09-0.27,0.17-0.38,0.25c0.07,0.1,0.15,0.19,0.24,0.26
					c0.09,0.08,0.2,0.14,0.31,0.18l0.91,0.04c0.01,0,0.01,0,0.02,0c0.41-0.1,0.71-0.39,0.93-0.74c0.23-0.36,0.29-0.8,0.56-1.14
					c0.31-0.38,0.76-0.61,1.14-0.91c0.24-0.19,0.46-0.38,0.73-0.52c0.2-0.1,0.42-0.17,0.61-0.28c0.31-0.17,0.22-0.31,0.2-0.63
					c-0.02-0.26-0.02-0.53,0.01-0.83c0.03-0.36,0.15-0.92,0.28-1.25c0.24-0.61,0.5-1.19,0.9-1.71c0.93-1.19,1.72-2.78,1.99-4.28
					c0.12-0.65,0.15-1.31,0.17-1.97c0.02-0.64-0.07-1.42,0.11-2.04c0.12-0.42,0.4-0.82,0.57-1.23c0.13-0.33,0.27-0.67,0.4-1
					L56.79,45.71z"/>
				<path class="st3" d="M54.65,60.8c-0.01-0.14-0.28-0.74-0.2-0.84c-1.07,1.38-2.86,2.21-3.6,3.83c-0.16,0.34-0.51,0.53-0.9,0.53
					c-0.1,0-0.86-0.35-0.79-0.39c-0.15,0.1-0.31,0.19-0.43,0.28c-0.25,0.18-0.77,0.31-0.91,0.62c-0.21,0.49,1.32,0.33,1.53,0.3
					c0.26-0.03,0.52-0.03,0.77-0.05c0.44-0.04,0.88-0.15,1.31-0.26c0.03-0.01,0.06-0.02,0.08-0.04c0.02-0.02,0.03-0.05,0.04-0.08
					c0.22-0.6,0.26-1.28,0.53-1.87c0.13-0.26,0.59-0.83,0.9-0.84c0.13,0,0.23,0.07,0.3,0.18c0.04,0.06,0.07,0.12,0.09,0.19
					c0.06,0.2,0.06,0.42,0.05,0.63c-0.02,0.42-0.06,0.84-0.12,1.25c-0.02,0.14-0.12,0.42-0.1,0.61l0.32,0.01
					c0.15-0.91,0.18-1.78,0.73-2.58C54.57,61.87,54.69,61.33,54.65,60.8z"/>
			</g>
			<g>
				<path class="st4" d="M57.32,46.52l0.39-0.37c-0.41-0.01-0.82-0.08-1.22-0.21c-0.2-0.06-0.42-0.14-0.6-0.03
					c-0.16,0.1-0.22,0.3-0.25,0.49c-0.24,1.19-2.06,11.46-2.24,12.28c-0.23,1.09-0.76,2.01-1.15,3.04c-0.36,0.97-0.76,2-1.28,2.9
					c-0.09,0.16-0.28,0.31-0.48,0.45c-0.13,0.09-0.26,0.18-0.37,0.26c0.07,0.09,0.16,0.18,0.25,0.25c0.1,0.08,0.21,0.13,0.32,0.17
					h0.91c0.01,0,0.01,0,0.02-0.01c0.41-0.12,0.69-0.42,0.9-0.78c0.21-0.37,0.25-0.82,0.51-1.16c0.29-0.39,0.73-0.65,1.09-0.96
					c0.23-0.2,0.44-0.4,0.71-0.55c0.2-0.11,0.41-0.19,0.6-0.31c0.3-0.18,0.2-0.32,0.17-0.63c-0.03-0.26-0.04-0.53-0.02-0.83
					c0.02-0.36,0.11-0.92,0.23-1.26c0.22-0.62,0.45-1.21,0.83-1.75c0.87-1.23,1.59-2.85,1.8-4.36c0.09-0.65,0.09-1.32,0.08-1.97
					c-0.01-0.64-0.14-1.41,0.02-2.04c0.1-0.42,0.37-0.83,0.51-1.25c0.12-0.34,0.24-0.68,0.36-1.02L57.32,46.52z"/>
				<path class="st5" d="M55.85,61.69c-0.02-0.14-0.31-0.73-0.24-0.83c-0.51,0.72-1.26,1.11-1.9,1.71
					c-0.35,0.33-0.69,0.84-0.98,1.23c-0.17,0.24-0.32,0.49-0.46,0.74c-0.08,0.15-0.2,0.55-0.32,0.64c-0.24,0.17-0.53,0.28-0.82,0.23
					c-0.25-0.04-0.42-0.24-0.65-0.31c-0.26-0.08-1.45,0.35-1.13,0.73c0.13,0.15,0.5,0.15,0.68,0.19c0.38,0.07,0.77,0.11,1.16,0.12
					c0.3,0.01,0.83,0.1,1.1-0.08c0.48-0.31,0.69-0.85,0.88-1.36c0.15-0.39,0.33-0.78,0.61-1.09c0.14-0.15,0.41-0.45,0.64-0.44
					c0.58,0.03-0.04,2.44-0.11,2.96c0.12,0.01,0.24,0.03,0.36,0.05c0.18-1.01,0.34-2.11,0.88-2.98
					C55.81,62.76,55.91,62.21,55.85,61.69z"/>
			</g>
			<g>
				<path class="st6" d="M75.36,42.86c-0.05-0.31-0.54-2.34-0.87-3.01c-0.09,1.24-0.35,2.44-1.11,3.4c-2.54,3.31-7,3.36-10.81,3.53
					c-0.81,0-1.91,0.15-2.23,0.94c0.99-0.01,9.37-0.12,11.41-0.12c0.51,0,2.01,0.28,2.46,0c0.34-0.21,0.63-0.51,0.83-0.95
					C75.55,45.56,75.54,44.05,75.36,42.86z"/>
				<path class="st7" d="M62.58,46.79c3.8-0.17,8.27-0.22,10.81-3.53c0.75-0.97,1.02-2.17,1.11-3.4c-0.07-0.14-0.12-0.21-0.17-0.21
					c-0.01,0-7.73,0.69-7.73,0.69l-10.08,2.4l-1.91,2.74c0.05,0.04,0.11,0.08,0.16,0.12c1.08,0.79,2.2,1.54,3.31,2.28
					c0.33,0.22,0.68,0.41,1.02,0.61c0.15,0.09,0.27,0.22,0.43,0.17c0.31-0.08,0.47-0.92,0.73-0.93c0,0,0.03,0,0.1,0
					C60.67,46.94,61.77,46.79,62.58,46.79z"/>
			</g>
		</g>
		<g>
			<path class="st8" d="M33.95,63.04l0.46-1.27l3.55-0.41l-0.3,0.9l4.56,1.33c0,0,0.32,0.22,0.65,0.61
				c0.16,0.19,0.03,0.47-0.22,0.48l-4.4,0.1c-0.18-0.03-0.36-0.06-0.53-0.09v-0.01l-0.04,0c-0.39-0.07-0.77-0.15-1.14-0.23
				l-0.15,0.26l-2.24,0.05c-0.04-0.01-0.07-0.02-0.11-0.03C33.83,64.65,33.95,63.04,33.95,63.04z"/>
			<path class="st9" d="M29.47,63.46l0.51-1.25l3.57-0.27l-0.33,0.89c0.38,0.36,1.14,0.97,2.29,1.31c0.93,0.27,1.76,0.37,2.25,0.32
				c0.35,0.06,0.51,0.26,0.69,0.49c0.16,0.21-0.11,0.51-0.37,0.5c0,0-4.41,0.53-6.05-0.47l-0.16,0.26l-2.57-0.8
				C29.24,64.43,29.47,63.46,29.47,63.46z"/>
			<path class="st10" d="M39.48,47.73c0-0.6-0.02-1.2-0.13-1.82c-0.21-1.27-1.61-1.56-2.69-1.82c-1.58-0.38-3.16-0.76-4.74-1.15
				c-2.06-0.5-4.11-1-6.17-1.49l-8.39,0.19c2.43-0.05,5.11,0.62,7.38,1.42c1.57,0.56,3.1,1.3,4.4,2.35c0.64,0.52,1.21,1.11,1.7,1.77
				c0.68,0.91,1.54,1.4,2.58,1.82c0.24,0.1,0.49,0.2,0.69,0.37c0.08,0.07,0.14,0.14,0.2,0.22c-0.32,4.53-0.19,13.26-0.19,13.26
				s0.56-0.03,4.73-0.05c0.03-2.86,0.18-5.71,0.36-8.57c0.08-1.26,0.21-2.51,0.19-3.77C39.4,49.54,39.48,48.64,39.48,47.73z"/>
			<path class="st11" d="M38.62,46.06c-0.47-1.03-1.73-1.06-3.04-1.42c-1.38-0.38-2.76-0.76-4.14-1.14
				c-1.76-0.49-3.52-0.97-5.29-1.46c0,0-9.23-0.53-9.23-0.53c-0.33-0.02-0.75,2.03-0.77,2.24c-0.21,1.7-1.09,3.97,0.32,4.9
				c0.58,0.43,2.34,0.71,4.44,0.88h9.96c0,0,1.02,0.08,1.53,0.07c-1.24,4.75-3.02,12.94-3.02,12.94s0.47,0.72,5.5,0.81
				c0.56-2.52,1.21-5.02,1.88-7.51c0.52-1.93,1.17-3.86,1.5-5.84C38.88,48.83,39.11,47.14,38.62,46.06z"/>
			<path class="st12" d="M25.54,39.83c-3.12,0.11-6.1,1.6-9.29,1.93c-0.13,2.08-0.36,4.01-0.64,5.77h10.55
				c-0.03-2.83-0.63-5.19-0.63-6.7C25.53,40.48,25.53,40.15,25.54,39.83z"/>
		</g>
		<g>
			<rect x="24.6" y="41.38" class="st13" width="41.93" height="2.68"/>
			<polygon class="st14" points="32.37,34.12 24.6,41.39 66.53,41.39 58.75,34.12 			"/>
		</g>
		<polygon class="st15" points="46.34,35.35 45.37,39.06 62.21,39.06 58.45,35.46 		"/>
		<polygon class="st15" points="42.43,37.6 42.64,40.87 27.92,40.87 31.21,37.72 		"/>
		<g>
			<path class="st16" d="M24.47,21.85c0,0-0.83,1.84-1.42,2.27c-0.59,0.43-3.8-0.68-3.8-0.68s1.16-2.99,1.01-3.46
				c-0.15-0.47,0.81-0.89,0.81-0.89L24.47,21.85z"/>
			<path class="st4" d="M21.06,19.73c0.31,0.28,0.5,0.75,0.88,0.96c0.2,0.11,0.17,0.19,0.87,0.72c0.2,0.15,0.46,0.2,0.71,0.28
				c0.52,0.16,1.04,0.31,1.56,0.47c0.14,0.04,0.27,0.08,0.41,0.07c0.29-0.02,0.52-0.27,0.68-0.51c0.03-0.04,0.06-0.09,0.07-0.13
				c0.04-0.2-0.22-0.4-0.14-0.59c0.04-0.1,0.14-0.15,0.2-0.23c0.08-0.12,0.03-0.29-0.02-0.43c0.12,0.02,0.22-0.12,0.24-0.24
				c0.02-0.12,0-0.26,0.06-0.37c0.09-0.18,0.32-0.21,0.51-0.29c0.07-0.03,0.11-0.12,0.08-0.19c-0.1-0.27-0.24-0.53-0.41-0.76
				c-0.15-0.21-0.35-0.43-0.32-0.69c0.01-0.16,0.12-0.3,0.16-0.46c0.09-0.34-0.11-0.67-0.18-1.01c-0.05-0.26-0.04-0.52-0.06-0.78
				c-0.02-0.26-0.1-0.53-0.29-0.71c-0.56-0.52-0.81-1.15-1.5-1.48c-1.22-0.58-2.7-0.38-3.89,0.26c-0.36,0.2-0.71,0.44-0.97,0.77
				c-0.2,0.26-0.35,0.56-0.45,0.87c-0.23,0.69-0.28,1.44-0.11,2.15c0.17,0.71,0.58,1.36,1.15,1.8
				C20.56,19.37,20.84,19.52,21.06,19.73z"/>
			<path class="st4" d="M32.76,29.65c-0.01-0.08,0.16-0.31,0.2-0.38c0.13-0.25,0.26-0.51,0.39-0.76c0.26-0.48,0.67-0.86,0.93-1.33
				c0.08-0.14,0.27-0.64,0.44-0.68c0.04-0.01,0.08,0.02,0.11,0.05c0.49,0.44-0.08,1.03-0.32,1.42c-0.09,0.14-0.14,0.33-0.22,0.48
				c0.42-0.27,0.84-0.53,1.26-0.8c0.24-0.15,1.44-0.96,1.62-0.66c0.09,0.15-0.11,0.31-0.21,0.4c-0.43,0.38-0.89,0.72-1.37,1.03
				c0.41-0.25,0.83-0.5,1.24-0.75c0.19-0.12,0.96-0.53,1.12-0.22c0.04,0.09,0.02,0.19-0.06,0.25c-0.53,0.45-1.15,0.78-1.79,1.06
				c0.48-0.23,0.96-0.46,1.43-0.68c0.12-0.06,0.38-0.16,0.51-0.02c0.16,0.16-0.05,0.37-0.17,0.45c-0.51,0.36-0.99,0.64-1.55,0.91
				c0.46-0.08,1.76-0.77,1.63-0.36c-0.04,0.12-0.14,0.19-0.23,0.26c-0.58,0.42-0.91,0.68-1.49,1.1c-0.24,0.17-0.64,0.41-0.91,0.53
				c-0.33,0.15-0.58,0.27-0.9,0.45c-0.44,0.24-0.8,0.24-1.29,0.33L32.76,29.65z"/>
			<path class="st4" d="M36.74,34.39c0.04-0.07,0.32-0.14,0.39-0.18c0.26-0.12,0.52-0.24,0.78-0.35c0.5-0.21,1.06-0.25,1.56-0.45
				c0.15-0.06,0.61-0.33,0.77-0.25c0.04,0.02,0.05,0.06,0.06,0.11c0.11,0.65-0.71,0.76-1.13,0.91c-0.16,0.06-0.32,0.17-0.48,0.24
				c0.5,0.05,0.99,0.11,1.49,0.16c0.29,0.03,1.73,0.15,1.68,0.49c-0.02,0.17-0.28,0.18-0.41,0.18c-0.57,0.02-1.15,0-1.71-0.06
				c0.48,0.06,0.96,0.13,1.44,0.19c0.22,0.03,1.08,0.19,1.01,0.53c-0.02,0.09-0.11,0.16-0.2,0.16c-0.7,0.02-1.39-0.11-2.06-0.29
				c0.52,0.12,1.03,0.24,1.55,0.36c0.13,0.03,0.39,0.11,0.41,0.3c0.02,0.23-0.27,0.26-0.41,0.25c-0.62-0.04-1.17-0.12-1.78-0.25
				c0.41,0.23,1.85,0.5,1.5,0.74c-0.1,0.07-0.23,0.06-0.34,0.06c-0.71-0.03-1.14-0.04-1.85-0.07c-0.29-0.01-0.75-0.08-1.04-0.15
				c-0.35-0.09-0.63-0.15-0.98-0.21c-0.49-0.09-0.77-0.31-1.22-0.55L36.74,34.39z"/>
			<path class="st17" d="M19.98,20.55c-0.09-0.17-0.19-0.33-0.26-0.51c-0.25-0.65-0.46-1.31-0.63-1.98
				c-0.18-0.69-0.32-1.39-0.31-2.1c0.01-0.71,0.19-1.43,0.61-2.01c0.4-0.55,0.99-0.94,1.64-1.15c0.64-0.22,1.33-0.27,2.01-0.23
				c0.51,0.03,1.02,0.1,1.52,0.23c0.22,0.06,0.52,0.11,0.72,0.24c0.2,0.12,0.31,0.3,0.54,0.39c0.28,0.11,0.59,0.17,0.89,0.16
				c0.05,0,0.1,0,0.14,0.03c0.06,0.05,0.04,0.15,0.01,0.23c-0.55,1.36-2.37,1.23-2.86,2.65c-0.11,0.32-0.14,0.67-0.19,1
				c-0.04,0.33-0.17,0.67-0.19,1c-0.01,0.21,0.12,0.48-0.11,0.62c-0.1,0.06-0.51-0.1-0.51-0.15c-0.01-0.3-0.01-0.6-0.09-0.89
				c-0.08-0.29-0.25-0.57-0.51-0.72c-0.26-0.15-0.62-0.14-0.84,0.06c-0.26,0.25-0.24,0.66-0.18,1.02c0.08,0.51,0.35,1.09,0.92,1.19
				c-0.22,0.06-0.35,0.29-0.41,0.51c-0.02,0.05-0.03,0.11-0.08,0.14c-0.04,0.02-0.08,0.02-0.13,0.02c-0.72-0.02-1.01,0.21-1.46,0.73
				C20.13,20.85,20.06,20.69,19.98,20.55z"/>
			<path class="st18" d="M23.9,23.14c0.12,0.37,0.3,0.92,0.49,1.6c0.72,2.55,0.94,4.53,0.99,5.07c0.07,0.64,0.14,1.53,0.15,2.59
				c-1.85-2.46-3.52-3.8-4.45-5.03c-1.2-1.61-2.01-2.94-2.09-3.38c-0.08-0.43,0.01-0.9,0.46-1.33c1.12-1.07,3.57,0.85,3.57,0.85
				L23.9,23.14z"/>
			<path class="st12" d="M19.6,25.4c2.49-1.83,4.5,0.89,5.61,2.81c0.68,1.18,1.37,2.38,2.37,3.31c0.42-0.09,5.42-1.98,5.19-2.42
				c0.52,1.02,1.23,1.71,1.58,2.71c-1.49,1.42-5.57,3.8-7.1,4.42c-1.49,0.6-5.02-4.54-6.52-5.88C19.35,29.1,17.71,26.79,19.6,25.4z"
				/>
			<polygon class="st19" points="19.98,21.37 23.9,23.14 23.12,24.85 19.25,22.9 			"/>
			<path class="st12" d="M24.93,28.29c-1.08-2.13-2.59-3.53-3.65-4.36l-2.04-1.03l-1.83,3.09l-0.68,2.8
				c-0.43,1.76-0.59,3.58-0.48,5.39c0.09,1.4,0.13,2.87,0.11,4.43c-0.01,1.09-0.06,2.14-0.12,3.16c3.19-0.33,6.17-1.81,9.29-1.93
				C25.63,33.15,26.29,30.96,24.93,28.29z"/>
			<path class="st20" d="M19.7,21.9c0,0,4.12,3.73,5.67,7.21c-2.7-2.7-3.79-2.71-3.79-2.71v-1.9l-1.13,0.97l-1.19-2.57L19.7,21.9z"
				/>
			<path class="st20" d="M35.62,33.56c0.34-0.01,0.91-0.01,1.48,0.05c0.02,0.13,0.05,0.27,0.06,0.4c0.14,0.99,0.08,2.21,0.1,3.22
				c-0.93,0.03-2.2-0.24-3.13-0.15c-2.32,0.23-8.5-1.02-9.05-1.44c-1.66-1.27-3.32-2.56-5.02-3.76c-0.95-0.67-2.69-2.08-2.57-3.49
				c0.01-0.11,0.03-0.21,0.06-0.31c0.62-2.12,3.44-1.27,4.7-0.53c1.04,0.61,1.91,1.47,2.78,2.31c1.4,1.37,1.08,2.03,3.05,2.36
				C30.16,32.57,33.52,33.65,35.62,33.56z"/>
		</g>
		<g>
			<path class="st21" d="M69.01,19.63c-0.52,0.53-0.97,0.97-1.35,1.33c-1.43,1.33-1.99,1.6-1.99,1.6c-0.03,0.08,0.68,1.2,0.25,2.82
				C67.56,23.85,68.63,21.83,69.01,19.63z"/>
			<path class="st2" d="M70.83,24.77c-0.19-0.19-0.37-0.38-0.54-0.58c-0.36-0.43-0.65-0.9-0.83-1.43c-0.36-1-0.48-2.09-0.43-3.15
				c-0.01,0.01-0.01,0.01-0.02,0.02c-0.38,2.2-1.45,4.22-3.09,5.75c-0.02,0.07-0.04,0.14-0.06,0.21c-0.55,0.97-1.05,1.71-0.36,2.15
				c0.55,0.35,2.61-0.39,3.41-0.7c0.2-0.08,0.31-0.13,0.31-0.13c0.14-0.06,0.32-0.63,0.39-0.77c0.11-0.21,0.23-0.46,0.41-0.62
				c0.14-0.12,0.27-0.16,0.44-0.19c0.17-0.03,0.54,0.04,0.67-0.05C71.37,25.14,70.99,24.92,70.83,24.77z"/>
			<path class="st22" d="M65.98,25.13l-0.51,0.26c-0.61,0.31-1.09,0.83-1.34,1.47l-2.69,6.78l-7.13,1.21l0.29,1.96l7.04-0.03
				c0.67-0.07,1.26-0.46,1.59-1.04l2.36-2.69L65.98,25.13z"/>
			<path class="st4" d="M64.08,21.56c-0.13,0.03-0.17,0.22-0.12,0.35c0.05,0.13,0.15,0.23,0.19,0.37c0.04,0.14,0,0.29,0.02,0.43
				c0.04,0.31,0.34,0.54,0.65,0.59c0.31,0.05,0.63-0.03,0.93-0.13c1.14-0.37,2.26-0.97,2.94-1.96c0.61-0.89,0.8-2.01,0.93-3.08
				c0.08-0.66,0.14-1.34-0.03-1.99c-0.05-0.19-0.12-0.37-0.21-0.54c-0.81-1.59-2.64-1.78-4.15-1.23c-1.47,0.54-2.36,2.22-2.02,3.72
				c0.04,0.18,0.13,0.34,0.16,0.52c0.06,0.39-0.16,0.74-0.33,1.07c-0.11,0.22-0.45,0.83-0.12,0.99c0.18,0.09,0.36,0,0.53,0.15
				c0.14,0.13,0.21,0.35,0.21,0.54c0,0.03,0,0.06,0.02,0.09C63.71,21.53,64.01,21.57,64.08,21.56z"/>
			<path class="st15" d="M65.28,26.69c0,0,0.96,0.96,3.49,0.08c-0.23,5.14-0.57,7.49-0.57,7.49l-3.02,1.01l-1.04-3.34L65.28,26.69z"
				/>
			<path class="st23" d="M73.68,28.41L73,27.71l-3.91-0.28c0,0-2.84,3.95-3.92,4.31c0.03-0.01-0.01-0.46-0.01-0.51
				c0-0.18,0-0.36,0-0.55c0-0.37,0.01-0.74,0.02-1.11c0.03-0.69,0.08-1.37,0.17-2.05c0.05-0.33,0.1-0.67,0.18-1
				c0.03-0.16,0.06-0.32,0.11-0.47c0.03-0.09,0.08-0.17,0.11-0.25c0.03-0.08,0.07-0.15,0.09-0.23c-0.01,0-0.02,0.01-0.03,0.02
				c-0.06,0.06-0.1,0.11-0.14,0.18c-0.04,0.08-0.09,0.15-0.12,0.23c-0.08,0.19-0.15,0.38-0.23,0.57c-0.13,0.33-0.25,0.66-0.36,1
				c-0.22,0.67-0.42,1.35-0.64,2.02c-0.2,0.6-0.4,1.21-0.58,1.81c-0.09,0.28-0.25,0.62-0.25,0.92c0,0.4,3.11,8.02,3.11,8.02
				s2.55-0.16,7.73-0.69C73.49,36.92,73.68,28.41,73.68,28.41z"/>
			<path class="st24" d="M71.76,19.71c0.06-0.45,0-0.9-0.08-1.35c-0.21-1.16-0.78-2.48-1.63-3.32c-0.92-0.92-2.28-1.39-3.57-1.24
				c-0.77,0.09-1.51,0.4-2.13,0.86c-1.17,0.88-1.48,2.02-1.34,3.43c0.39-0.02,0.78,0,1.17,0.04c-0.06-0.34-0.02-0.7,0.1-1.02
				c0.12,0.38,0.21,0.77,0.27,1.17c0.41,0.03,0.82,0.13,1.19,0.31c0.02,0.01,0.22-0.68,0.42-0.66c0.21,0.03,0.5,0.69,0.58,0.86
				c0.33,0.65,0.51,1.37,0.59,2.09c0.12,1.09,0.07,2.34-0.08,3.28C67.75,23.98,71.38,22.51,71.76,19.71z"/>
			<path class="st2" d="M59.73,37.42l-1.87-0.4l-1.6-0.3c-0.15-0.03-0.31-0.01-0.46,0.05c-0.54,0.22-1.09,0.34-1.6,0.63
				c-0.34,0.19-0.49,0.32-0.08,0.57c0.28,0.17,0.57,0.15,0.84-0.03c-0.1,0.07-0.23,0.16-0.23,0.29c0,0.27,0.28,0.19,0.44,0.17
				c0.34-0.06,0.68-0.12,1.02-0.17c0.21-0.03,0.42,0,0.6,0.1l1.32,0.72c0.16,0.09,0.34,0.13,0.52,0.13l1.23-0.03L59.73,37.42z"/>
			<g>
				<path class="st2" d="M51.18,35.76c-0.12,0.17-0.2,0.38-0.28,0.59c-0.08,0.2-0.21,0.37-0.25,0.59c-0.03,0.14,0.08,0.29,0.24,0.24
					c0.06-0.02,0.11-0.07,0.16-0.11c0.07,0.22,0.23,0.14,0.32-0.01c0.2-0.28,0.25-0.61,0.59-0.64c0.24-0.03,0.5,0,0.74-0.01
					c0.42,0,0.83-0.01,1.25-0.01c-0.01,0-0.13-0.5-0.14-0.53c-0.08-0.29-0.13-0.51-0.46-0.5c-0.4,0.01-0.8,0.01-1.2,0.02
					c-0.2,0-0.41,0.01-0.59,0.07C51.39,35.52,51.27,35.63,51.18,35.76z"/>
				<path class="st4" d="M52.53,35.63c0.08,0.01,0.15,0.04,0.22,0.06c0.07,0.02,0.16,0,0.22,0.02c-0.07-0.03-0.14,0-0.2,0.02
					c-0.14,0.04-0.3,0.02-0.45,0.04c-0.15,0.01-0.65,0.2-0.51,0.42c0.13,0.21,0.45,0.16,0.62,0.13c0.31-0.05,0.64,0.13,0.95,0.23
					c0.81,0.24,1.57-0.05,2.32-0.24l-0.55-1.02l-2.55-0.71c-0.24,0.08-0.49,0.16-0.73,0.24c-0.35,0.11-0.64,0.24-0.93,0.45
					c-0.12,0.09-0.16,0.21-0.23,0.35c-0.08,0.17-0.16,0.33-0.25,0.5c-0.07,0.13-0.35,0.48-0.17,0.65c0.1,0.09,0.28-0.04,0.34-0.11
					c0.18-0.23,0.32-0.66,0.56-0.81C51.54,35.62,52.11,35.58,52.53,35.63z"/>
			</g>
			<path class="st25" d="M70.91,24.79c-0.93-0.18-1.93,1.22-2.15,1.98c-0.29,1.01-0.4,2.1-0.62,3.13c-0.27,1.22-0.72,2.38-0.87,3.63
				c-0.06,0.48-0.06,0.94-0.2,1.41c-0.21,0.7-0.75,0.79-1.4,1.09c-1.72,0.79-6.6,1.18-6.67,1.22l0.75,2.3
				c0.12-0.04,8.75,0.9,10.19-1.31c0.32-0.49,0.56-1.09,0.81-1.61c0.45-0.95,0.9-1.9,1.35-2.85c0.22-0.45,0.43-0.91,0.65-1.36
				c0.14-0.3,0.38-1.18,0.65-1.36c0.07-0.05,0.11-0.08,0.12-0.11C74.48,28.16,72.6,25.11,70.91,24.79z"/>
		</g>
		<g id="_x34__2_">
			<path class="st26" d="M44.02,38.14l-0.01,0.18c0,0.07,0.05,0.13,0.12,0.14l0.19,0.01l0.02-0.31L44.02,38.14z"/>
			<path class="st18" d="M44.17,37.87c-0.07,0-0.14,0.05-0.14,0.12l-0.01,0.15l0.32,0.02l0.01-0.28L44.17,37.87z"/>
			<polygon class="st27" points="50.14,38.79 50.17,38.79 50.17,38.78 			"/>
			<polygon class="st28" points="50.17,38.2 50.2,38.21 50.2,38.2 			"/>
			<polygon class="st27" points="45.07,38.2 44.61,38.17 44.59,38.49 44.92,38.51 50.14,38.79 50.16,38.48 			"/>
			<polygon class="st28" points="44.95,37.92 44.62,37.9 44.61,38.17 45.07,38.2 50.16,38.48 50.17,38.2 			"/>
			<polygon class="st29" points="44.41,37.89 44.36,37.88 44.34,38.16 44.4,38.16 44.61,38.17 44.62,37.9 			"/>
			<polygon class="st30" points="44.4,38.16 44.34,38.16 44.32,38.47 44.38,38.48 44.59,38.49 44.61,38.17 			"/>
			<polygon class="st31" points="50.48,38.49 50.47,38.7 51.04,38.54 50.99,38.52 			"/>
			<polygon class="st32" points="50.48,38.49 50.99,38.52 50.49,38.32 			"/>
			<polygon class="st33" points="50.19,38.48 50.16,38.48 50.14,38.79 50.17,38.78 50.47,38.7 50.48,38.49 			"/>
			<polygon class="st34" points="50.2,38.21 50.17,38.2 50.16,38.48 50.19,38.48 50.48,38.49 50.49,38.32 			"/>
		</g>
		<g id="_x35__1_">
			<path class="st29" d="M51.32,36.73c-0.12,0.01-0.31,0.03-0.65,0.05c0.01-0.15,0.02-0.29,0.03-0.44c0.33,0.08,0.52,0.12,0.64,0.14
				L51.32,36.73z"/>
			<polygon class="st29" points="45.11,35.76 44.44,35.71 44.71,36.55 45.2,36.58 			"/>
			<path class="st9" d="M47.15,36.74l0.06-0.85c0.08,0.01,0.17,0.02,0.25,0.03l-0.06,0.83C47.32,36.74,47.23,36.74,47.15,36.74z"/>
			<path class="st32" d="M47.77,35.95c0.87,0.1,1.72,0.22,2.96,0.37c-0.01,0.16-0.02,0.32-0.03,0.48c-1.26-0.02-2.11-0.02-2.98-0.05
				L47.77,35.95z"/>
			<path class="st32" d="M45.22,35.84c0-0.01-0.02-0.15,0.15-0.25c0.18-0.12,0.51-0.15,0.97-0.1c0.93,0.09,2.1,0.15,2.11,0.15
				c0,0-0.21,0.36-0.68,0.16c-0.33-0.02-1.74-0.07-1.75-0.07c0,0-0.1,0-0.16,0.04c-0.03,0.02-0.07,0.06-0.03,0.16
				c0.03,0.08,0.01,0.12-0.02,0.14c-0.1,0.07-0.46-0.14-0.57-0.2l-0.01-0.01L45.22,35.84z"/>
			<path class="st29" d="M47.4,36.75l0.06-0.83c0.1,0.01,0.2,0.02,0.31,0.03l-0.06,0.81C47.61,36.75,47.51,36.75,47.4,36.75z"/>
			<path class="st32" d="M44.99,36.59c0.02-0.29,0.04-0.57,0.06-0.85c0.86,0.04,1.54,0.09,2.16,0.15l-0.06,0.85
				C46.53,36.71,45.86,36.67,44.99,36.59z"/>
			<path class="st9" d="M51.34,36.48c0.04,0.01,0.09,0.02,0.15,0.04c0.08,0.03,0.15,0.07,0.2,0.11c-0.05,0.02-0.11,0.05-0.19,0.07
				c-0.06,0.02-0.12,0.03-0.17,0.03C51.33,36.64,51.33,36.56,51.34,36.48z"/>
		</g>
		<g id="_x36__1_">
			<path class="st29" d="M39.73,39.74c0.12-0.03,0.3-0.06,0.64-0.13c0.01,0.15,0.02,0.29,0.02,0.44c-0.34-0.03-0.52-0.05-0.65-0.07
				L39.73,39.74z"/>
			<polygon class="st29" points="45.98,39.94 46.65,39.9 46.27,39.11 45.79,39.14 			"/>
			<path class="st9" d="M43.85,39.22l0.04,0.85c-0.08,0-0.17,0-0.25,0l-0.04-0.83C43.68,39.23,43.76,39.23,43.85,39.22z"/>
			<path class="st32" d="M43.33,40.08c-0.87,0.01-1.72-0.01-2.97-0.01c-0.01-0.16-0.02-0.32-0.02-0.48
				c1.24-0.13,2.09-0.24,2.95-0.32L43.33,40.08z"/>
			<path class="st32" d="M45.86,39.87c0,0.01,0.04,0.14-0.11,0.27c-0.17,0.14-0.48,0.21-0.95,0.22c-0.93,0.02-2.09,0.11-2.1,0.11
				c0,0,0.17-0.38,0.65-0.24c0.33-0.02,1.73-0.14,1.74-0.14c0,0,0.1-0.01,0.16-0.06c0.03-0.03,0.06-0.07,0.01-0.16
				c-0.04-0.08-0.03-0.12,0-0.14c0.09-0.08,0.47,0.08,0.59,0.13l0.02,0.01L45.86,39.87z"/>
			<path class="st29" d="M43.6,39.24l0.04,0.83c-0.1,0-0.2,0-0.31,0l-0.04-0.81C43.39,39.26,43.49,39.25,43.6,39.24z"/>
			<path class="st32" d="M45.99,39.11c0.02,0.28,0.03,0.57,0.04,0.85c-0.86,0.06-1.53,0.09-2.15,0.11l-0.04-0.85
				C44.46,39.17,45.13,39.13,45.99,39.11z"/>
			<path class="st9" d="M39.74,39.98c-0.04,0-0.09-0.01-0.15-0.02c-0.09-0.02-0.15-0.05-0.21-0.08c0.05-0.03,0.11-0.06,0.18-0.09
				c0.06-0.02,0.12-0.04,0.17-0.05C39.73,39.82,39.74,39.9,39.74,39.98z"/>
		</g>
	</g>
	<g>
		<path class="st35" d="M43.66,3.92h-8c-1.87,0-3.41,1.35-3.41,3.23v2.67c0,1.02,0.45,1.93,1.16,2.55c0.24,0.21,0.29,0.56,0.14,0.84
			l-1.48,4.81c0,0,5-4.8,5.39-4.8h6.2c1.87,0,3.41-1.53,3.41-3.41V7.14C47.07,5.27,45.53,3.92,43.66,3.92z"/>
		<path class="st36" d="M47.92,6.16h8c1.87,0,3.41,1.35,3.41,3.23v2.67c0,1.02-0.45,1.93-1.16,2.55c-0.24,0.21-0.29,0.56-0.14,0.84
			l0.9,4.75c0,0-4.42-4.74-4.81-4.74h-6.2c-1.87,0-3.41-1.53-3.41-3.41V9.39C44.51,7.51,46.05,6.16,47.92,6.16z"/>
		<g>
			<path class="st29" d="M47.56,10.97h-8c-1.87,0-3.41,1.35-3.41,3.23v2.67c0,1.02,0.45,1.93,1.16,2.55
				c0.24,0.21,0.29,0.56,0.14,0.84l-2.15,5.42c0,0,5.67-5.4,6.05-5.4h6.2c1.87,0,3.41-1.53,3.41-3.41v-2.67
				C50.97,12.32,49.44,10.97,47.56,10.97z"/>
			<g>
				<path class="st20" d="M38.38,13.91h10.26c0.22,0,0.41-0.18,0.41-0.41c0-0.22-0.18-0.41-0.41-0.41H38.38
					c-0.22,0-0.41,0.18-0.41,0.41C37.97,13.73,38.16,13.91,38.38,13.91z"/>
				<path class="st20" d="M48.64,15.13H38.38c-0.22,0-0.41,0.18-0.41,0.41c0,0.22,0.18,0.41,0.41,0.41h10.26
					c0.22,0,0.41-0.18,0.41-0.41C49.05,15.31,48.87,15.13,48.64,15.13z"/>
				<path class="st20" d="M48.64,17.16H38.38c-0.22,0-0.41,0.18-0.41,0.41c0,0.22,0.18,0.41,0.41,0.41h10.26
					c0.22,0,0.41-0.18,0.41-0.41C49.05,17.34,48.87,17.16,48.64,17.16z"/>
			</g>
		</g>
	</g>
</g>
</svg>
