<?xml version="1.0" encoding="utf-8"?>
<!-- Generator: Adobe Illustrator 28.2.0, SVG Export Plug-In . SVG Version: 6.00 Build 0)  -->
<svg version="1.1" id="Слой_1" xmlns="http://www.w3.org/2000/svg" xmlns:xlink="http://www.w3.org/1999/xlink" x="0px" y="0px"
	 viewBox="0 0 90.85 72.76" style="enable-background:new 0 0 90.85 72.76;" xml:space="preserve">
<style type="text/css">
	.st0{fill:#6C838A;}
	.st1{fill:#5F7578;}
	.st2{fill:#324142;}
	.st3{fill:#415557;}
	.st4{fill:#231F20;}
	.st5{fill:#414142;}
	.st6{fill:#0D2230;}
	.st7{fill:#0E2D40;}
	.st8{fill:#162F4E;}
	.st9{fill:#D8AD95;}
	.st10{fill:#212020;}
	.st11{fill:#E2BCA2;}
	.st12{fill:#2D2D2D;}
	.st13{fill:#22414F;}
	.st14{fill:#27495C;}
	.st15{fill:#D1D2D4;}
	.st16{fill:#A7A9AB;}
	.st17{fill:#FFFFFF;}
	.st18{fill:#595A5C;}
	.st19{fill:#869CA1;}
	.st20{fill:#BDBEC0;}
	.st21{fill:#448F81;}
	.st22{fill:#758B8E;}
	.st23{fill:#D5D6D5;}
	.st24{fill:#657D83;}
	.st25{fill:#2B2C2C;}
	.st26{fill:#DEB09D;}
	.st27{fill:#5A4B42;}
	.st28{fill:#E7E8E9;}
	.st29{fill:#17405E;}
	.st30{fill:#CCA692;}
	.st31{fill:#EEC6AB;}
	.st32{fill:#030304;}
	.st33{fill:#24B7EA;}
	.st34{fill:#9ED7E8;}
	.st35{fill:#EC6667;}
</style>
<g id="_x31_4">
	<g id="_x35__6_">
		<g id="_x32__2_">
			<g>
				<g id="_x31__3_">
					<path class="st0" d="M28.17,30c0.9-1.49,1.81-2.21,2.65-0.86c0.12,0.21,0.25,0.89,0.28,1.43c0.21,4.02,0.19,7.63-0.04,10.82
						c-0.03,0.36-0.16,0.78-0.29,0.93c-0.85,0.92-1.59,1.46-2.22,0.72c-0.1-0.12-0.22-0.6-0.26-1c-0.32-3.51-0.48-7.07-0.41-10.67
						C27.9,30.88,28.03,30.25,28.17,30z"/>
					<rect x="35.63" y="46.68" class="st1" width="4.1" height="2.03"/>
					<path class="st0" d="M44.75,46.57v0.89H30.12v-0.89c0-0.37,0.3-0.67,0.67-0.67h13.28C44.45,45.89,44.75,46.19,44.75,46.57z"/>
					<rect x="37.07" y="47.62" class="st1" width="0.95" height="7.89"/>
					<rect x="36.44" y="50.65" class="st1" width="2.22" height="7.59"/>
					<rect x="35.63" y="57.51" class="st1" width="3.74" height="1.79"/>
					<polygon class="st1" points="38.02,58.4 38.72,58.73 38.74,58.4 45.45,59.24 46.27,61.03 45.45,61.03 44.75,60.08 41.2,59.87 
						43.71,61.03 44.49,62.24 43.64,62.66 43.01,61.78 37.55,59.3 					"/>
					<path class="st1" d="M36.6,58.6l0.61-0.46l0.65,0.77l-4.7,3.43l-0.54,1.13l-0.92-0.23l0.5-1.35
						C32.21,61.9,35.93,59.31,36.6,58.6L36.6,58.6z"/>
					<path class="st1" d="M30.78,59.24l6.71-0.84l0.02,0.31c-0.8,0.56-1.74,0.61-2.65,0.9l-3.38,0.47l-0.7,0.95h-0.82L30.78,59.24z"
						/>
					<path class="st1" d="M44.93,61.41c0,0.45,0.36,0.81,0.81,0.81c0.45,0,0.81-0.36,0.81-0.81s-0.36-0.81-0.81-0.81
						C45.29,60.6,44.93,60.96,44.93,61.41z"/>
					<path class="st1" d="M42.97,62.66c0,0.57,0.46,1.03,1.03,1.03c0.57,0,1.03-0.46,1.03-1.03c0-0.57-0.46-1.03-1.03-1.03
						C43.43,61.63,42.97,62.09,42.97,62.66z"/>
					<path class="st1" d="M31.22,63.69c0,0.57,0.46,1.03,1.03,1.03c0.57,0,1.03-0.46,1.03-1.03c0-0.57-0.46-1.03-1.03-1.03
						C31.68,62.66,31.22,63.12,31.22,63.69z"/>
					<path class="st1" d="M29.9,61.03c0,0.42,0.34,0.77,0.77,0.77c0.43,0,0.77-0.34,0.77-0.77c0-0.42-0.34-0.77-0.77-0.77
						C30.25,60.26,29.9,60.61,29.9,61.03z"/>
				</g>
				<g>
					<path class="st1" d="M37.02,62.38c0,0.48,0.39,0.87,0.87,0.87c0.48,0,0.87-0.39,0.87-0.87c0-0.48-0.39-0.87-0.87-0.87
						C37.41,61.51,37.02,61.9,37.02,62.38z"/>
					<rect x="27" y="46.5" class="st2" width="4.42" height="2.18"/>
					<rect x="28.55" y="47.52" class="st2" width="1.02" height="8.51"/>
					<rect x="27" y="58.18" class="st3" width="4.03" height="1.93"/>
					<g>
						<path class="st3" d="M21.76,41.79c0.14-0.16,0.29-0.61,0.32-1c0.25-3.44,0.27-7.33,0.05-11.67c-0.03-0.59-0.17-1.32-0.3-1.54
							c-0.9-1.46-1.89-0.68-2.86,0.93c-0.15,0.27-0.3,0.94-0.31,1.47c-0.07,3.88,0.1,7.72,0.44,11.5c0.04,0.43,0.16,0.94,0.27,1.08
							C20.05,43.37,20.85,42.78,21.76,41.79z"/>
						<path class="st3" d="M21.06,46.38v0.96h15.76v-0.96c0-0.4-0.32-0.72-0.72-0.72H21.79C21.39,45.65,21.06,45.98,21.06,46.38z"/>
						<path class="st3" d="M37.58,61.98h0.88l-0.88-1.93l-7.23-0.91l-0.02,0.35l-0.75-0.35l-0.24,0.46L29,59.2l0-0.06l-0.04,0.01
							l-0.15-0.18h1.45v-8.19h-2.39v8.19h0.68l-0.36,0.27l-6.42,0.81l-0.56,1.23c-0.23,0.15-0.38,0.4-0.38,0.7
							c0,0.46,0.37,0.83,0.83,0.83c0.46,0,0.83-0.37,0.83-0.83c0-0.24-0.1-0.45-0.27-0.61l0.3-0.41l3.64-0.5
							c0.28-0.09,0.56-0.15,0.83-0.22c-1.43,1.11-3.68,2.68-3.68,2.68l-0.33,0.89c-0.42,0.16-0.73,0.56-0.73,1.04
							c0,0.62,0.5,1.11,1.11,1.11c0.61,0,1.11-0.5,1.11-1.11c0-0.35-0.16-0.66-0.41-0.86l0.28-0.59l4.86-3.56l-0.14,0.27l5.88,2.67
							l0.2,0.28c-0.14,0.19-0.23,0.42-0.23,0.68c0,0.61,0.5,1.11,1.11,1.11c0.61,0,1.11-0.5,1.11-1.11c0-0.58-0.45-1.05-1.01-1.1
							l-0.42-0.65L33,60.73l3.83,0.23L37.58,61.98z"/>
					</g>
				</g>
				<g>
					<path class="st4" d="M47.96,59.48l0.45-1.25l3.51-0.41l-0.3,0.89l4.51,1.31c0,0,0.32,0.22,0.64,0.61
						c0.15,0.19,0.03,0.47-0.22,0.47l-4.34,0.1c-0.18-0.03-0.35-0.06-0.53-0.09V61.1l-0.04,0c-0.39-0.07-0.76-0.15-1.12-0.23
						l-0.15,0.26l-2.21,0.05c-0.04-0.01-0.07-0.02-0.11-0.03C47.85,61.07,47.96,59.48,47.96,59.48z"/>
					<path class="st5" d="M43.54,59.9l0.5-1.24l3.52-0.26l-0.33,0.88l4.45,1.49c0,0,0.3,0.22,0.59,0.6c0.16,0.2,0.01,0.5-0.25,0.49
						l-4.31-0.08c-0.18-0.04-0.35-0.07-0.52-0.11v-0.01l-0.04,0c-0.38-0.09-0.76-0.18-1.11-0.27l-0.16,0.25l-2.21-0.04
						c-0.04-0.01-0.07-0.02-0.1-0.04C43.36,61.48,43.54,59.9,43.54,59.9z"/>
					<path class="st6" d="M53.42,44.37c0-0.59-0.02-1.18-0.12-1.79c-0.21-1.25-1.59-1.54-2.66-1.8c-1.56-0.38-3.12-0.75-4.67-1.13
						c-2.03-0.49-4.06-0.98-6.09-1.47l-8.28,0.19c2.4-0.05,5.05,0.61,7.28,1.4c1.55,0.55,3.06,1.28,4.34,2.32
						c0.64,0.51,1.19,1.1,1.68,1.75c0.67,0.9,1.52,1.38,2.55,1.8c0.24,0.1,0.49,0.2,0.68,0.37c0.07,0.06,0.14,0.14,0.2,0.22
						c-0.32,4.47-0.19,13.09-0.19,13.09s0.55-0.03,4.67-0.05c0.03-2.82,0.18-5.64,0.36-8.46c0.08-1.24,0.21-2.48,0.19-3.72
						C53.34,46.16,53.42,45.27,53.42,44.37z"/>
					<path class="st7" d="M52.57,42.72c-0.47-1.02-1.7-1.04-3-1.4c-1.36-0.38-2.73-0.75-4.09-1.13c-1.74-0.48-3.48-0.96-5.22-1.44
						c0,0-9.11-0.52-9.11-0.52c-0.33-0.02-0.74,2-0.76,2.21c-0.2,1.68,0.6,3.12,1.99,4.03c3.13,2.05,7.65,1.98,11.22,1.86
						c0.92-0.03,1.89-0.11,2.83-0.12c-1.23,4.69-2.98,12.77-2.98,12.77s0.46,0.71,5.43,0.8c0.55-2.49,1.19-4.95,1.85-7.41
						c0.51-1.91,1.15-3.81,1.49-5.76C52.82,45.46,53.06,43.78,52.57,42.72z"/>
					<path class="st8" d="M39.66,36.57c-3.08,0.11-6.02,1.58-9.17,1.9c-0.13,2.05-0.36,3.96-0.64,5.7h10.41
						c-0.03-2.79-0.63-5.12-0.62-6.62C39.65,37.21,39.65,36.89,39.66,36.57z"/>
				</g>
				<g>
					<g>
						<path class="st9" d="M41.97,43.7l-0.42-0.37c0.42-0.03,0.84-0.12,1.24-0.27c0.2-0.07,0.43-0.16,0.61-0.06
							c0.17,0.09,0.24,0.3,0.28,0.49c0.31,1.21,2.63,11.67,2.85,12.51c0.29,1.11,0.87,2.03,1.32,3.07c0.42,0.98,0.88,2.02,1.44,2.92
							c0.1,0.16,0.3,0.31,0.51,0.44c0.14,0.09,0.28,0.17,0.39,0.25c-0.07,0.1-0.15,0.19-0.25,0.27c-0.1,0.08-0.21,0.14-0.32,0.19
							l-0.93,0.04c-0.01,0-0.01,0-0.02,0c-0.42-0.1-0.73-0.41-0.96-0.76c-0.24-0.37-0.29-0.83-0.57-1.17
							c-0.32-0.39-0.78-0.63-1.17-0.94c-0.24-0.19-0.47-0.39-0.75-0.53c-0.21-0.11-0.43-0.18-0.63-0.29
							c-0.31-0.17-0.22-0.31-0.2-0.64c0.02-0.27,0.01-0.54-0.01-0.86c-0.03-0.37-0.15-0.94-0.29-1.28
							c-0.25-0.62-0.52-1.22-0.93-1.75c-0.95-1.22-1.76-2.86-2.05-4.4c-0.12-0.67-0.16-1.35-0.18-2.02
							c-0.02-0.66,0.07-1.46-0.11-2.09c-0.12-0.43-0.41-0.84-0.58-1.26c-0.14-0.34-0.28-0.69-0.41-1.03L41.97,43.7z"/>
						<path class="st10" d="M44.17,59.21c0.01-0.15,0.28-0.76,0.21-0.86c0.22,0.28,0.46,0.58,0.74,0.8c0.84,0.67,1.6,1.38,2.31,2.17
							c0.27,0.3,0.59,0.57,0.96,0.74c0.19,0.08,0.38,0.13,0.58,0.15c0.06,0,0.15,0.02,0.21,0c0.08-0.03,0.15-0.15,0.24-0.14
							c0.04,0,0.07,0.03,0.09,0.06c0.17,0.18,0.44,0.27,0.64,0.41c0.24,0.16,1.31,0.73,0.94,1.1c-0.11,0.11-0.36,0.11-0.51,0.11
							c-0.3,0.01-0.61-0.02-0.91-0.05c-0.65-0.07-1.31-0.16-1.95-0.3c-0.71-0.15-0.51-1.36-0.96-1.8c-0.25-0.25-1.15-0.68-1.39-0.23
							c-0.18,0.34,0.1,1.03,0.16,1.39c0.02,0.15,0.12,0.43,0.1,0.62l-0.33,0.01c-0.15-0.94-0.18-1.82-0.75-2.66
							C44.25,60.3,44.13,59.75,44.17,59.21z"/>
					</g>
					<g>
						<path class="st11" d="M43.43,43.03c0.04,0.02,0.09,0.05,0.12,0.08c0.13,0.09,0.25,0.21,0.35,0.33
							c0.71,0.88,0.02,2.25-0.29,3.2c-0.39,1.18-0.68,2.38-1.09,3.55c-0.79,2.29-1.66,4.56-2.36,6.87c-0.34,1.09-0.33,2.19-0.5,3.3
							c-0.16,1.05-0.32,2.18-0.31,3.25c0,0.19,0.1,0.42,0.2,0.64c0.07,0.15,0.15,0.3,0.2,0.42c-0.11,0.05-0.23,0.08-0.35,0.1
							c-0.13,0.02-0.25,0.01-0.37-0.01l-0.82-0.46c-0.01-0.01-0.01-0.01-0.02-0.02c-0.31-0.31-0.41-0.73-0.41-1.15
							c0-0.44,0.19-0.86,0.13-1.3c-0.06-0.5-0.33-0.95-0.5-1.41c-0.11-0.29-0.2-0.58-0.36-0.85c-0.12-0.2-0.27-0.38-0.38-0.58
							c-0.18-0.31-0.02-0.38,0.17-0.65c0.16-0.22,0.3-0.45,0.44-0.74c0.17-0.33,0.37-0.88,0.43-1.24c0.11-0.66,0.21-1.31,0.13-1.98
							c-0.17-1.54,0.01-3.36,0.57-4.82c0.25-0.63,0.58-1.23,0.92-1.81c0.3-0.51,0.89-0.94,0.46-1.53c-0.15-0.2-0.34-0.38-0.46-0.6
							c-0.04-0.08-0.07-0.16-0.07-0.25c0-0.14,0.09-0.26,0.18-0.36c0.34-0.43,0.76-0.79,1.1-1.21c0.13-0.16,0.14-0.25,0.35-0.3
							c0.23-0.06,0.43,0.01,0.68-0.11c0.31-0.16,0.6-0.49,0.94-0.57C42.8,42.78,43.16,42.89,43.43,43.03z"/>
						<path class="st12" d="M36.46,58.54c0.09-0.12,0.64-0.5,0.63-0.62c0.09,0.9,0.58,1.63,0.85,2.49c0.31,0.98-0.17,2.77,1.17,3.01
							c0.09,0.02,0.18,0.02,0.26,0.07c0.11,0.06,0.16,0.19,0.21,0.3c0.15,0.36,0.29,0.68,0.5,1c0.11,0.16,0.5,0.6,0.13,0.73
							c-0.19,0.07-0.52-0.11-0.7-0.17c-0.38-0.13-0.75-0.29-1.1-0.48c-0.28-0.14-0.79-0.33-0.94-0.62
							c-0.37-0.71-0.08-1.43,0.02-2.15c0.06-0.44-0.24-1.21-0.83-1.07c-0.72,0.16-0.82,1.71-1.03,2.27
							c-0.12-0.05-0.23-0.1-0.35-0.14c0.35-0.99,0.76-2.06,0.71-3.12C35.95,59.51,36.14,58.97,36.46,58.54z"/>
					</g>
					<g>
						<path class="st13" d="M24.06,45.66c0.01,0,0.02,0.01,0.02,0.01c0,0,2.43-0.01,2.5-0.01c0.45,0,10.15,0.1,10.15,0.1
							c0.79,0.01,1.36,0.02,1.58,0.02c-0.33-0.82-1.46-0.97-2.29-0.97c-3.91-0.17-8.5-0.23-11.11-3.63
							c-0.77-0.99-1.04-2.23-1.14-3.5c-0.33,0.68-0.84,2.77-0.89,3.09c-0.19,1.22-0.2,2.77,0.33,3.91
							C23.41,45.13,23.71,45.44,24.06,45.66z"/>
						<path class="st14" d="M36.02,44.81c-3.91-0.17-8.5-0.23-11.11-3.63c-0.77-0.99-1.04-2.23-1.14-3.5
							c0.07-0.14,0.13-0.22,0.18-0.22c0.01,0,7.94,0.71,7.94,0.71l10.37,2.47l1.96,2.81c-0.06,0.04-0.11,0.08-0.17,0.12
							c-1.11,0.81-2.26,1.58-3.4,2.35c-0.34,0.23-0.7,0.42-1.05,0.63c-0.16,0.09-0.27,0.22-0.44,0.18
							c-0.32-0.08-0.48-0.95-0.75-0.95c0,0-0.04,0-0.1,0C37.98,44.96,36.85,44.81,36.02,44.81z"/>
					</g>
				</g>
				<g>
					<path class="st15" d="M36.44,40.22v1.44c0,0.69,0.56,1.24,1.24,1.24h35.73c0.69,0,1.24-0.56,1.24-1.24v-1.44H36.44z"/>
					<polygon class="st16" points="66.72,31.65 41.9,31.65 36.44,40.24 74.66,40.24 					"/>
				</g>
				<polygon class="st17" points="49.32,36.72 50.19,38.85 39.58,38.85 40.62,36.65 				"/>
				<g>
					<path class="st18" d="M66.44,27.34c0.02-0.34,0.91-8.9,0.91-8.9s0.69-0.07,0.71,0.74c0.02,0.81-0.29,16.34-0.29,16.34
						c-0.05,0.41-0.36,0.56-0.47,0.56c-0.53-0.03-0.65-0.46-1.79-1.67c-1.3-1.38-1.26-1.19-1.35-1.43
						C63.96,31.24,66.28,30.6,66.44,27.34z"/>
					<path class="st18" d="M66.81,35.7c0,0-0.09,1-0.82,1.27c-0.96,0.03-14.36,0.42-14.36,0.42s-0.94-0.31-1.2-1.14
						C55.62,35.23,66.81,35.7,66.81,35.7z"/>
					<g>
						<path class="st19" d="M64.28,32.83l2.5,2.56c0.21,0.2,0.6,0.31,0.6-0.17l0.24-16.1c0.01-0.49-0.17-0.77-0.38-0.64l-2.79,1.73
							c-0.12,0.07-0.21,0.41-0.22,0.75l-0.15,11.39C64.09,32.69,64.16,32.72,64.28,32.83z"/>
						<polygon class="st18" points="64.27,32.21 67.07,34.55 67.29,19.7 64.41,21.16 						"/>
						<polygon class="st20" points="66.17,19.8 66.52,19.6 66.52,19.31 66.17,19.52 						"/>
						<polygon class="st20" points="64.89,20.63 65.16,20.49 65.16,20.23 64.89,20.38 						"/>
						<polygon class="st20" points="65.19,33.76 65.77,34.29 65.77,33.79 65.2,33.29 						"/>
						<g>
							<polygon class="st21" points="64.37,32.07 67.01,34.29 67.17,19.91 64.5,21.21 							"/>
							<g>
								<path class="st22" d="M63.19,32.92c0.51-0.02,0.95,0,1.03,0.09l2.47,2.67c0.15,0.16-0.31,0.31-1.02,0.33l-0.19,0l-2.48-3.1
									L63.19,32.92z"/>
								<path class="st19" d="M52.77,33.27l10.35-0.37l2.48,3.13L51.4,36.4c-0.65,0.02-1.1-0.1-1.02-0.26l1.44-2.68
									C51.87,33.38,52.29,33.29,52.77,33.27z"/>
								<polygon class="st23" points="52.13,34.95 55.01,34.87 55.1,34.31 52.37,34.4 								"/>
								<polygon class="st17" points="53.68,34.37 53.53,34.9 52.51,34.93 52.72,34.4 								"/>
								<g>
									<polygon class="st23" points="54.9,33.63 54.38,33.65 54.44,33.4 54.95,33.38 									"/>
									<polygon class="st23" points="53.89,33.42 53.82,33.66 53.3,33.68 53.39,33.44 									"/>
								</g>
								<g>
									<polygon class="st23" points="54.73,35.57 54.7,35.72 53.08,35.76 53.13,35.61 									"/>
									<polygon class="st23" points="53.03,35.93 54.67,35.88 54.65,36.04 52.98,36.09 									"/>
								</g>
								<polygon class="st20" points="63.43,35.9 64.9,35.86 62.83,33.06 61.73,33.1 								"/>
								<polygon class="st17" points="64.49,35.58 64.63,35.77 63.58,35.8 63.45,35.6 								"/>
								<g>
									<polygon class="st23" points="62.91,35.7 63.06,35.95 61.95,35.98 61.83,35.73 									"/>
									<polygon class="st23" points="62.72,35.36 62.85,35.6 61.78,35.63 61.67,35.39 									"/>
									<polygon class="st23" points="62.53,35.04 62.66,35.26 61.62,35.29 61.51,35.07 									"/>
									<polygon class="st23" points="62.36,34.74 62.48,34.95 61.47,34.98 61.37,34.77 									"/>
									<polygon class="st23" points="62.2,34.45 62.31,34.65 61.33,34.68 61.24,34.48 									"/>
									<polygon class="st23" points="62.04,34.18 62.15,34.37 61.2,34.4 61.11,34.21 									"/>
									<polygon class="st23" points="61.9,33.93 62,34.11 61.07,34.14 60.99,33.96 									"/>
									<polygon class="st23" points="61.76,33.69 61.86,33.86 60.95,33.89 60.87,33.72 									"/>
									<polygon class="st23" points="61.63,33.46 61.72,33.62 60.84,33.65 60.77,33.49 									"/>
									<polygon class="st23" points="61.5,33.24 61.59,33.4 60.74,33.42 60.66,33.27 									"/>
									<polygon class="st23" points="61.38,33.04 61.47,33.18 60.63,33.21 60.56,33.06 									"/>
								</g>
								<g>
									<polygon class="st23" points="61.54,35.97 60.14,36.01 60.05,35.73 61.41,35.69 									"/>
									<polygon class="st23" points="61.38,35.62 60.03,35.66 59.95,35.39 61.27,35.35 									"/>
									<polygon class="st23" points="61.24,35.29 59.93,35.33 59.85,35.08 61.13,35.04 									"/>
									<polygon class="st23" points="61.1,34.98 59.83,35.02 59.76,34.78 61,34.74 									"/>
									<polygon class="st23" points="60.97,34.69 59.74,34.72 59.67,34.5 60.88,34.46 									"/>
									<polygon class="st23" points="60.85,34.41 59.65,34.45 59.58,34.24 60.76,34.2 									"/>
									<polygon class="st23" points="60.74,34.15 59.57,34.18 59.51,33.98 60.65,33.95 									"/>
									<polygon class="st23" points="60.63,33.9 59.49,33.94 59.43,33.75 60.54,33.71 									"/>
									<polygon class="st23" points="60.52,33.66 59.42,33.7 59.36,33.52 60.45,33.48 									"/>
									<polygon class="st23" points="60.43,33.44 59.35,33.47 59.29,33.3 60.35,33.27 									"/>
									<polygon class="st23" points="60.26,33.06 60.33,33.22 58.49,33.29 58.46,33.12 									"/>
								</g>
								<g>
									<polygon class="st23" points="59.89,36.01 58.51,36.05 58.46,35.77 59.81,35.73 									"/>
									<polygon class="st23" points="59.79,35.66 58.45,35.7 58.41,35.44 59.71,35.4 									"/>
									<polygon class="st23" points="59.69,35.33 58.4,35.37 58.35,35.12 59.62,35.08 									"/>
									<polygon class="st23" points="59.6,35.02 58.34,35.06 58.3,34.82 59.53,34.79 									"/>
									<polygon class="st23" points="59.52,34.73 58.29,34.77 58.25,34.54 59.45,34.51 									"/>
									<polygon class="st23" points="59.44,34.45 58.25,34.49 58.21,34.28 59.37,34.24 									"/>
									<polygon class="st23" points="59.36,34.19 58.2,34.23 58.17,34.03 59.3,33.99 									"/>
									<polygon class="st23" points="59.29,33.94 58.16,33.98 58.13,33.79 59.23,33.75 									"/>
									<polygon class="st23" points="59.22,33.71 58.12,33.74 58.09,33.56 59.17,33.53 									"/>
									<polygon class="st23" points="59.15,33.48 58.08,33.52 58.05,33.35 59.1,33.31 									"/>
									<polygon class="st23" points="59.04,33.1 59.09,33.27 58.04,33.3 58.02,33.14 									"/>
								</g>
								<g>
									<polygon class="st23" points="58.17,36.06 56.8,36.1 56.79,35.81 58.13,35.78 									"/>
									<polygon class="st23" points="58.12,35.71 56.79,35.75 56.79,35.48 58.08,35.44 									"/>
									<polygon class="st23" points="58.07,35.38 56.79,35.42 56.78,35.17 58.04,35.13 									"/>
									<polygon class="st23" points="58.03,35.07 56.78,35.11 56.78,34.87 58,34.83 									"/>
									<polygon class="st23" points="57.99,34.78 56.77,34.81 56.77,34.59 57.96,34.55 									"/>
									<polygon class="st23" points="57.95,34.5 56.77,34.54 56.76,34.32 57.92,34.29 									"/>
									<polygon class="st23" points="57.91,34.24 56.76,34.27 56.76,34.07 57.88,34.04 									"/>
									<polygon class="st23" points="57.88,33.99 56.76,34.02 56.75,33.83 57.85,33.8 									"/>
									<polygon class="st23" points="57.84,33.75 56.75,33.79 56.75,33.61 57.82,33.57 									"/>
									<polygon class="st23" points="57.81,33.53 56.75,33.56 56.75,33.39 57.79,33.35 									"/>
									<polygon class="st23" points="57.76,33.15 57.78,33.31 55.68,33.39 55.69,33.22 									"/>
								</g>
								<g>
									<polygon class="st23" points="56.46,36.11 55.11,36.14 55.14,35.86 56.46,35.82 									"/>
									<polygon class="st23" points="56.46,35.75 55.15,35.79 55.18,35.53 56.47,35.49 									"/>
									<polygon class="st23" points="56.47,35.43 55.19,35.46 55.22,35.21 56.47,35.18 									"/>
									<polygon class="st23" points="56.47,35.11 55.23,35.15 55.26,34.92 56.47,34.88 									"/>
									<polygon class="st23" points="56.47,34.82 55.27,34.86 55.3,34.64 56.47,34.6 									"/>
									<polygon class="st23" points="56.47,34.54 55.3,34.58 55.33,34.37 56.48,34.33 									"/>
									<polygon class="st23" points="56.47,34.76 55.28,34.79 55.39,33.88 56.48,33.84 									"/>
									<polygon class="st23" points="56.48,33.8 55.4,33.83 55.42,33.65 56.48,33.62 									"/>
									<polygon class="st23" points="56.48,33.57 55.43,33.61 55.45,33.44 56.49,33.4 									"/>
									<polygon class="st23" points="56.49,33.19 56.49,33.36 55.46,33.39 55.48,33.23 									"/>
								</g>
							</g>
						</g>
					</g>
					<path class="st18" d="M66.93,25.67c0-0.09,0.07-0.17,0.15-0.16c0.01,0,0.03,0,0.04,0.01v1.94c-0.02,0.01-0.04,0.01-0.06,0.01
						c-0.08,0-0.15-0.08-0.15-0.17L66.93,25.67z"/>
					<path class="st18" d="M64.2,25.64c0-0.06,0.06-0.11,0.13-0.11c0.01,0,0.02,0,0.03,0v1.27c-0.02,0.01-0.04,0.01-0.05,0.01
						c-0.07,0-0.13-0.05-0.13-0.11L64.2,25.64z"/>
					<polygon class="st23" points="66.72,35.33 66.53,35.52 66.24,35.2 66.42,35.02 					"/>
					<polygon class="st23" points="64.53,33.08 64.42,33.21 64.2,33 64.33,32.86 					"/>
					<g>
						<path class="st24" d="M66.66,16.8c-0.01,0.52-0.29,1.06-0.67,1.24c-0.41,0.2-0.81-0.1-0.83-0.72
							c-0.03-0.66,0.36-1.3,0.81-1.39C66.38,15.85,66.67,16.25,66.66,16.8z"/>
						<path class="st25" d="M66.2,16.96c0,0.33-0.18,0.66-0.41,0.76c-0.25,0.11-0.47-0.08-0.48-0.45c-0.01-0.37,0.21-0.75,0.47-0.82
							C66.02,16.4,66.2,16.63,66.2,16.96z"/>
						<polygon class="st24" points="66.26,19.1 65.73,19.45 65.69,17.93 66.27,17.67 						"/>
					</g>
				</g>
				<g>
					<path class="st26" d="M38.6,18.82c0,0-0.82,1.82-1.4,2.25c-0.58,0.43-3.75-0.67-3.75-0.67s1.15-2.95,0.99-3.41
						c-0.15-0.47,0.8-0.87,0.8-0.87L38.6,18.82z"/>
					<path class="st11" d="M35.24,16.73c0.31,0.28,0.5,0.74,0.86,0.94c0.2,0.11,0.17,0.19,0.86,0.71c0.2,0.15,0.46,0.2,0.7,0.27
						c0.51,0.15,1.03,0.31,1.54,0.46c0.13,0.04,0.27,0.08,0.41,0.07c0.29-0.02,0.51-0.26,0.67-0.5c0.03-0.04,0.05-0.08,0.07-0.13
						c0.04-0.2-0.22-0.39-0.14-0.58c0.04-0.09,0.14-0.14,0.2-0.23c0.08-0.12,0.03-0.29-0.02-0.42c0.12,0.02,0.22-0.12,0.24-0.24
						c0.02-0.12,0-0.26,0.06-0.37c0.09-0.18,0.32-0.2,0.5-0.29c0.07-0.03,0.11-0.11,0.08-0.19c-0.1-0.27-0.24-0.52-0.41-0.76
						c-0.15-0.21-0.34-0.42-0.32-0.68c0.02-0.16,0.11-0.3,0.15-0.46c0.08-0.33-0.1-0.66-0.17-1c-0.05-0.25-0.04-0.51-0.06-0.77
						c-0.02-0.26-0.1-0.53-0.28-0.7c-0.55-0.52-0.8-1.13-1.48-1.46c-1.2-0.58-2.67-0.38-3.84,0.26c-0.36,0.2-0.7,0.44-0.96,0.76
						c-0.2,0.26-0.34,0.55-0.45,0.86c-0.23,0.68-0.28,1.43-0.1,2.12c0.17,0.7,0.57,1.34,1.14,1.78
						C34.74,16.37,35.02,16.52,35.24,16.73z"/>
					<path class="st11" d="M46.79,26.53c-0.01-0.08,0.16-0.31,0.19-0.38c0.13-0.25,0.25-0.5,0.38-0.75
						c0.25-0.48,0.66-0.84,0.92-1.31c0.08-0.14,0.26-0.63,0.44-0.67c0.04-0.01,0.08,0.02,0.11,0.05c0.49,0.44-0.08,1.02-0.31,1.4
						c-0.09,0.14-0.14,0.33-0.22,0.48c0.42-0.26,0.83-0.53,1.25-0.79c0.24-0.15,1.42-0.95,1.6-0.65c0.09,0.15-0.1,0.31-0.2,0.39
						c-0.43,0.37-0.88,0.71-1.36,1.01c0.41-0.25,0.82-0.49,1.23-0.74c0.19-0.11,0.95-0.52,1.1-0.22c0.04,0.08,0.02,0.19-0.06,0.25
						c-0.52,0.44-1.14,0.77-1.77,1.05c0.47-0.22,0.94-0.45,1.41-0.68c0.12-0.06,0.37-0.15,0.5-0.02c0.16,0.16-0.05,0.37-0.17,0.45
						c-0.5,0.35-0.97,0.63-1.53,0.9c0.46-0.08,1.74-0.76,1.61-0.36c-0.04,0.11-0.13,0.19-0.23,0.26c-0.57,0.41-0.9,0.67-1.47,1.09
						c-0.23,0.17-0.63,0.4-0.9,0.52c-0.33,0.15-0.57,0.27-0.89,0.44c-0.44,0.24-0.79,0.24-1.28,0.33L46.79,26.53z"/>
					<path class="st11" d="M50.72,31.2c0.04-0.07,0.32-0.14,0.39-0.17c0.26-0.11,0.51-0.23,0.77-0.34c0.49-0.21,1.04-0.25,1.54-0.45
						c0.15-0.06,0.6-0.32,0.76-0.25c0.04,0.02,0.05,0.06,0.06,0.1c0.11,0.65-0.7,0.75-1.12,0.9c-0.16,0.06-0.31,0.16-0.47,0.23
						c0.49,0.05,0.98,0.11,1.47,0.16c0.28,0.03,1.7,0.15,1.66,0.49c-0.02,0.17-0.27,0.18-0.41,0.18c-0.56,0.02-1.13,0-1.69-0.06
						c0.47,0.06,0.95,0.12,1.42,0.19c0.22,0.03,1.06,0.19,1,0.52c-0.02,0.09-0.1,0.16-0.2,0.16c-0.69,0.02-1.37-0.11-2.03-0.29
						c0.51,0.12,1.02,0.24,1.53,0.36c0.13,0.03,0.39,0.11,0.4,0.3c0.02,0.22-0.27,0.25-0.41,0.24c-0.61-0.04-1.16-0.11-1.75-0.25
						c0.41,0.22,1.83,0.49,1.48,0.73c-0.1,0.07-0.22,0.06-0.34,0.06c-0.7-0.03-1.12-0.04-1.83-0.07c-0.29-0.01-0.74-0.08-1.03-0.15
						c-0.35-0.08-0.62-0.15-0.97-0.21c-0.49-0.09-0.76-0.31-1.2-0.54L50.72,31.2z"/>
					<path class="st27" d="M34.17,17.53c-0.09-0.17-0.19-0.32-0.26-0.51c-0.24-0.64-0.45-1.29-0.63-1.95
						C33.1,14.4,32.96,13.7,32.98,13c0.01-0.7,0.19-1.41,0.6-1.98c0.39-0.54,0.98-0.92,1.61-1.14c0.63-0.21,1.31-0.27,1.98-0.23
						c0.5,0.03,1.01,0.1,1.5,0.23c0.22,0.06,0.52,0.11,0.71,0.23c0.19,0.12,0.31,0.3,0.53,0.39c0.28,0.11,0.58,0.17,0.88,0.15
						c0.05,0,0.1,0,0.13,0.03c0.06,0.05,0.04,0.15,0.01,0.22c-0.54,1.34-2.34,1.22-2.83,2.61c-0.11,0.32-0.14,0.66-0.19,0.99
						c-0.04,0.33-0.17,0.66-0.19,0.99c-0.01,0.21,0.12,0.48-0.11,0.61c-0.1,0.06-0.51-0.1-0.51-0.15c-0.01-0.3-0.01-0.6-0.09-0.88
						c-0.08-0.29-0.25-0.56-0.5-0.71c-0.26-0.15-0.61-0.14-0.83,0.06c-0.26,0.24-0.24,0.65-0.18,1c0.08,0.51,0.35,1.07,0.91,1.18
						c-0.22,0.06-0.34,0.28-0.41,0.5c-0.02,0.05-0.03,0.11-0.08,0.14c-0.04,0.02-0.08,0.02-0.13,0.02
						c-0.71-0.02-0.99,0.21-1.44,0.72C34.32,17.83,34.25,17.68,34.17,17.53z"/>
					<path class="st20" d="M38.04,20.1c0.12,0.36,0.3,0.91,0.49,1.58c0.71,2.52,0.92,4.47,0.98,5.01c0.07,0.63,0.13,1.51,0.14,2.56
						c-1.83-2.43-3.48-3.75-4.39-4.97c-1.18-1.58-1.98-2.9-2.06-3.33c-0.08-0.43,0.01-0.89,0.45-1.31c1.1-1.06,3.52,0.84,3.52,0.84
						L38.04,20.1z"/>
					<path class="st8" d="M33.79,22.32c2.45-1.81,4.45,0.87,5.54,2.77c0.67,1.17,1.36,2.35,2.34,3.27c0.41-0.08,5.35-1.95,5.13-2.39
						c0.52,1.01,1.21,1.68,1.56,2.68c-1.47,1.4-5.49,3.75-7.01,4.36c-1.48,0.59-4.96-4.48-6.43-5.8
						C33.55,25.98,31.93,23.7,33.79,22.32z"/>
					<polygon class="st28" points="34.17,18.35 38.04,20.1 37.27,21.79 33.45,19.85 					"/>
					<path class="st8" d="M39.06,25.17c-1.07-2.1-2.56-3.49-3.6-4.3l-2.01-1.02l-1.81,3.05l-0.68,2.76
						c-0.43,1.74-0.58,3.53-0.47,5.32c0.09,1.38,0.13,2.84,0.11,4.37c-0.01,1.08-0.05,2.12-0.12,3.12c3.15-0.33,6.09-1.79,9.17-1.9
						C39.75,29.98,40.4,27.81,39.06,25.17z"/>
					<path class="st29" d="M33.89,18.87c0,0,4.07,3.69,5.59,7.12c-2.67-2.67-3.74-2.67-3.74-2.67v-1.88l-1.12,0.95l-1.18-2.53
						L33.89,18.87z"/>
					<path class="st29" d="M49.61,30.38c0.33-0.01,0.9-0.01,1.46,0.05c0.02,0.13,0.04,0.26,0.06,0.4c0.14,0.98,0.08,2.18,0.1,3.17
						c-0.91,0.03-2.18-0.24-3.09-0.15c-2.29,0.22-8.39-1-8.94-1.42c-1.64-1.26-3.28-2.52-4.95-3.71c-0.94-0.66-2.66-2.05-2.53-3.45
						c0.01-0.11,0.03-0.21,0.06-0.31c0.62-2.1,3.4-1.26,4.64-0.53c1.03,0.6,1.89,1.45,2.74,2.28c1.38,1.35,1.07,2.01,3.01,2.33
						C44.22,29.4,47.54,30.47,49.61,30.38z"/>
				</g>
				<g>
					<path class="st30" d="M29.41,16.89c0.53,0.54,1,0.99,1.39,1.36c1.47,1.37,2.04,1.65,2.04,1.65c0.03,0.08-0.7,1.23-0.26,2.9
						C30.9,21.23,29.8,19.15,29.41,16.89z"/>
					<g>
						<path class="st9" d="M47.74,33.46c0.12,0.17,0.2,0.39,0.29,0.61c0.08,0.21,0.21,0.38,0.26,0.6c0.03,0.15-0.08,0.3-0.25,0.24
							c-0.06-0.02-0.12-0.07-0.17-0.11c-0.07,0.22-0.23,0.14-0.33-0.01c-0.2-0.29-0.25-0.62-0.6-0.66c-0.25-0.03-0.51,0-0.76-0.01
							c-0.43,0-0.85-0.01-1.28-0.01c0.01,0,0.13-0.51,0.14-0.55c0.08-0.3,0.14-0.52,0.47-0.52c0.41,0.01,0.83,0.01,1.24,0.02
							c0.21,0,0.42,0.01,0.61,0.08C47.52,33.22,47.64,33.33,47.74,33.46z"/>
						<path class="st11" d="M46.35,33.33c-0.08,0.01-0.15,0.04-0.23,0.06c-0.07,0.02-0.17,0-0.23,0.02c0.07-0.03,0.14,0,0.21,0.02
							c0.15,0.04,0.31,0.02,0.46,0.04c0.15,0.01,0.67,0.2,0.52,0.44c-0.14,0.21-0.46,0.16-0.63,0.13c-0.32-0.05-0.66,0.14-0.98,0.23
							c-0.83,0.25-1.62-0.06-2.38-0.24l0.57-1.05l2.62-0.73c0.25,0.08,0.5,0.16,0.75,0.24c0.35,0.11,0.66,0.25,0.96,0.46
							c0.12,0.09,0.17,0.22,0.23,0.36c0.08,0.17,0.17,0.34,0.26,0.51c0.07,0.13,0.36,0.5,0.17,0.67c-0.1,0.09-0.29-0.04-0.35-0.11
							c-0.18-0.24-0.33-0.68-0.57-0.83C47.36,33.32,46.78,33.28,46.35,33.33z"/>
						<path class="st11" d="M46.35,33.33c-0.08,0.01-0.15,0.04-0.23,0.06c-0.07,0.02-0.17,0-0.23,0.02c0.07-0.03,0.14,0,0.21,0.02
							c0.15,0.04,0.31,0.02,0.46,0.04c0.15,0.01,0.67,0.2,0.52,0.44c-0.14,0.21-0.46,0.16-0.63,0.13c-0.32-0.05-0.66,0.14-0.98,0.23
							c-0.83,0.25-1.62-0.06-2.38-0.24l0.57-1.05l2.62-0.73c0.25,0.08,0.5,0.16,0.75,0.24c0.35,0.11,0.66,0.25,0.96,0.46
							c0.12,0.09,0.17,0.22,0.23,0.36c0.08,0.17,0.17,0.34,0.26,0.51c0.07,0.13,0.36,0.5,0.17,0.67c-0.1,0.09-0.29-0.04-0.35-0.11
							c-0.18-0.24-0.33-0.68-0.57-0.83C47.36,33.32,46.78,33.28,46.35,33.33z"/>
					</g>
					<path class="st15" d="M32.52,22.54l0.52,0.26c0.63,0.32,1.12,0.86,1.38,1.51l2.77,6.97l7.33,1.25l-0.3,2.01l-7.23-0.03
						c-0.68-0.07-1.29-0.47-1.63-1.07l-2.43-2.77L32.52,22.54z"/>
					<path class="st31" d="M34.48,18.88c0.14,0.03,0.17,0.22,0.12,0.35c-0.05,0.13-0.15,0.24-0.19,0.38c-0.04,0.14,0,0.3-0.02,0.45
						c-0.04,0.32-0.35,0.55-0.67,0.61c-0.32,0.05-0.64-0.03-0.95-0.13c-1.17-0.38-2.32-1-3.02-2.01c-0.63-0.92-0.83-2.06-0.96-3.17
						c-0.08-0.68-0.14-1.38,0.03-2.05c0.05-0.19,0.12-0.38,0.21-0.56c0.84-1.64,2.72-1.83,4.26-1.26c1.51,0.56,2.42,2.28,2.08,3.83
						c-0.04,0.18-0.13,0.35-0.16,0.54c-0.06,0.4,0.17,0.76,0.34,1.1c0.11,0.22,0.46,0.85,0.12,1.02c-0.18,0.09-0.37,0-0.54,0.16
						c-0.14,0.14-0.21,0.36-0.22,0.55c0,0.03,0,0.07-0.02,0.09C34.86,18.84,34.55,18.88,34.48,18.88z"/>
					<path class="st9" d="M27.53,22.17c0.19-0.19,0.38-0.39,0.55-0.6c0.37-0.44,0.67-0.93,0.86-1.47c0.37-1.03,0.49-2.15,0.44-3.24
						c0.01,0.01,0.01,0.01,0.02,0.02c0.39,2.26,1.49,4.34,3.18,5.91c0.02,0.07,0.04,0.14,0.06,0.21c0.57,0.99,1.08,1.76,0.37,2.21
						c-0.57,0.36-2.69-0.4-3.5-0.72c-0.2-0.08-0.32-0.13-0.32-0.13c-0.15-0.06-0.33-0.65-0.4-0.79c-0.11-0.22-0.24-0.48-0.42-0.64
						c-0.14-0.12-0.28-0.16-0.46-0.19c-0.17-0.03-0.55,0.04-0.69-0.05C26.98,22.55,27.37,22.33,27.53,22.17z"/>
					<path class="st15" d="M33.25,24.14c0,0-0.98,0.98-3.58,0.08c0.23,5.28,0.59,7.7,0.59,7.7l3.11,1.04l1.07-3.43L33.25,24.14z"/>
					<path class="st14" d="M35.09,29.93c0,0.35-2.37,6.21-3.03,7.83c-0.05,0.11-0.08,0.21-0.11,0.27c-0.04,0.09-0.06,0.14-0.06,0.14
						s0,0-0.01,0c-0.2-0.01-2.81-0.19-7.9-0.7c-0.01,0-0.02,0-0.04,0c0.02-0.08,0.05-0.16,0.07-0.24c0.07-0.26,0.13-0.56,0.18-0.88
						c0.57-3.5,0.42-10.43,0.42-10.43l0.7-0.72l4.02-0.29c0,0,2.92,4.06,4.03,4.43c-0.03-0.01,0.01-0.48,0.01-0.53
						c0-0.19,0-0.38,0-0.56c0-0.38-0.01-0.76-0.02-1.14c-0.03-0.71-0.08-1.41-0.18-2.11c-0.05-0.34-0.11-0.69-0.18-1.02
						c-0.03-0.16-0.06-0.33-0.11-0.49c-0.03-0.09-0.08-0.17-0.11-0.26c-0.03-0.08-0.07-0.15-0.1-0.23c0.01,0,0.02,0.01,0.03,0.02
						c0.06,0.06,0.11,0.11,0.15,0.18c0.04,0.08,0.09,0.15,0.13,0.24c0.08,0.19,0.15,0.39,0.23,0.58c0.14,0.34,0.26,0.68,0.37,1.02
						c0.23,0.69,0.43,1.38,0.66,2.07c0.2,0.62,0.41,1.24,0.6,1.87C34.92,29.27,35.09,29.62,35.09,29.93z"/>
					<path class="st32" d="M32.06,37.76c-0.05,0.11-0.08,0.21-0.11,0.27l-7.94-0.81c0.07-0.26,0.13-0.56,0.18-0.88
						C25.66,36.56,30.53,37.54,32.06,37.76z"/>
					<path class="st12" d="M31.34,15.58c-0.03-0.09-0.06-0.18-0.1-0.27c-0.14-0.27-0.4-0.5-0.7-0.51c-0.43-0.01-0.76,0.43-0.78,0.86
						c-0.03,0.43,0.16,0.84,0.34,1.22c-0.22,0.5-0.45,0.99-0.68,1.49c-0.21,0-0.68-0.72-0.8-0.88c-0.55-0.75-1.2-1.93-1.3-2.87
						c-0.01-0.08-0.02-0.17-0.1-0.19c-0.03-0.01-0.07,0-0.1,0c-0.24,0.02-0.43-0.17-0.6-0.34c-0.06-0.06-0.11-0.12-0.15-0.19
						c-0.36-0.64,0.13-1.91,0.62-2.37c0.44-0.41,1.07-0.62,1.68-0.58c0.27,0.02,0.5,0.19,0.75,0.21c0.3,0.02,0.61-0.2,0.89-0.31
						c1.28-0.49,2.73-0.16,3.77,0.69c0.55,0.46,0.96,0.87,1.16,1.59c0.15-0.04,0.31,0.02,0.41,0.14c0.1,0.11,0.15,0.26,0.19,0.41
						c0.13,0.49,0.14,1.01,0.02,1.5c-0.02,0.07-1.28,0.22-1.44,0.27c0.15-0.39-0.11-1-0.45-1.22c-0.58-0.37-1.01,0.29-1.4,0.62
						c-0.26,0.21-1.17,0.98-1.14,1.35C31.41,15.99,31.39,15.78,31.34,15.58z"/>
					<path class="st9" d="M38.45,36.86l1.96,0.16l1.67,0.17c0.16,0.02,0.31,0.08,0.44,0.18c0.47,0.37,0.98,0.65,1.4,1.09
						c0.28,0.29,0.39,0.46-0.09,0.58c-0.32,0.08-0.61-0.02-0.82-0.27c0.08,0.1,0.18,0.22,0.14,0.36c-0.08,0.26-0.33,0.11-0.48,0.04
						c-0.32-0.16-0.64-0.31-0.95-0.47c-0.19-0.1-0.41-0.12-0.62-0.08l-1.51,0.33c-0.18,0.04-0.37,0.03-0.55-0.03l-1.2-0.39
						L38.45,36.86z"/>
					<path class="st15" d="M27.45,22.19c0.95-0.18,1.98,1.25,2.21,2.04c0.3,1.04,0.41,2.16,0.64,3.22c0.28,1.25,0.74,2.45,0.89,3.73
						c0.06,0.49,0.06,0.96,0.21,1.44c0.22,0.72,0.77,0.81,1.44,1.12c1.76,0.81,6.36,3.11,6.43,3.14l-0.88,2.11
						c-0.12-0.04-0.24-0.08-0.35-0.11c-0.9-0.22-1.8-0.44-2.7-0.66c-1.53-0.37-2.9-1.01-4.44-1.37c-0.76-0.18-1.84-0.31-2.45-0.85
						c-0.45-0.39-0.58-1.13-0.83-1.65c-0.46-0.98-0.93-1.95-1.39-2.93c-0.22-0.47-0.44-0.93-0.67-1.4c-0.15-0.31-0.39-1.21-0.67-1.4
						c-0.07-0.05-0.12-0.09-0.13-0.11C23.79,25.65,25.72,22.52,27.45,22.19z"/>
				</g>
			</g>
		</g>
		<g id="_x36__2_">
			<path class="st33" d="M57.39,38.19c-0.12,0.03-0.3,0.07-0.63,0.15c-0.01-0.15-0.02-0.29-0.03-0.44c0.34,0.02,0.53,0.04,0.65,0.05
				L57.39,38.19z"/>
			<polygon class="st33" points="51.14,38.15 50.47,38.21 50.87,38.99 51.35,38.95 			"/>
			<path class="st5" d="M53.29,38.81l-0.07-0.84c0.08,0,0.17-0.01,0.25-0.01l0.07,0.83C53.46,38.8,53.38,38.8,53.29,38.81z"/>
			<path class="st18" d="M53.78,37.94c0.87-0.03,1.72-0.04,2.96-0.07c0.01,0.16,0.03,0.32,0.04,0.48c-1.24,0.16-2.08,0.29-2.94,0.4
				L53.78,37.94z"/>
			<path class="st18" d="M51.26,38.22c0-0.01-0.04-0.14,0.11-0.27c0.16-0.15,0.48-0.23,0.94-0.24c0.93-0.05,2.09-0.16,2.1-0.17
				c0,0-0.16,0.39-0.65,0.26c-0.33,0.03-1.72,0.19-1.73,0.19c0,0-0.1,0.01-0.16,0.06c-0.03,0.03-0.06,0.07,0,0.16
				c0.05,0.08,0.03,0.12,0.01,0.14c-0.09,0.08-0.48-0.07-0.59-0.11l-0.01-0.01L51.26,38.22z"/>
			<path class="st33" d="M53.54,38.79l-0.07-0.83c0.1,0,0.2-0.01,0.3-0.01l0.06,0.81C53.74,38.76,53.64,38.77,53.54,38.79z"/>
			<path class="st18" d="M51.15,38.98c-0.02-0.28-0.04-0.57-0.07-0.85c0.86-0.09,1.52-0.14,2.14-0.17l0.07,0.84
				C52.68,38.88,52.01,38.94,51.15,38.98z"/>
			<path class="st5" d="M57.37,37.94c0.04,0,0.09,0.01,0.15,0.02c0.09,0.02,0.16,0.05,0.21,0.07c-0.05,0.03-0.1,0.06-0.17,0.09
				c-0.06,0.03-0.12,0.04-0.17,0.05C57.38,38.11,57.37,38.03,57.37,37.94z"/>
		</g>
		<rect x="66.66" y="42.89" class="st16" width="2.23" height="14.4"/>
	</g>
	<path class="st24" d="M42.97,28.1c0.03-0.03,0.07-0.06,0.1-0.08c0.16-0.13,0.48-0.06,0.66,0.11c0.44,0.44,0.75,0.79,1.16,1.28
		c0.11,0.13,0.16,0.32,0.14,0.46l1.22,1.41c0.42,0.48,0.65,1.1,0.67,1.74c0.11,0.04,0.18,0.15,0.18,0.27v2.11
		c0,0.04-0.01,0.08-0.03,0.12c0.31,0.09,0.56,0.31,0.69,0.6h-2.02c0.13-0.28,0.37-0.5,0.68-0.59c-0.02-0.04-0.03-0.08-0.03-0.13
		v-2.11c0-0.12,0.08-0.23,0.19-0.27c-0.02-0.55-0.22-1.09-0.59-1.51l-1.17-1.35c-0.16,0.11-0.47,0.05-0.65-0.12
		c-0.44-0.44-0.75-0.79-1.16-1.28C42.86,28.55,42.82,28.23,42.97,28.1z"/>
	<path class="st34" d="M57.75,14.38c2.71,0,4.91,1.72,4.91,3.83c0,0.79-0.31,1.53-0.84,2.14c-0.5,0.57-1.18,1.04-1.99,1.33l1.2,3.06
		l-2.99-2.71c-0.09,0-0.19,0.01-0.28,0.01c-2.71,0-4.91-1.72-4.91-3.83C52.84,16.1,55.04,14.38,57.75,14.38z"/>
	<path class="st35" d="M49.59,8.57c-2.93-0.53-5.61,0.68-5.98,2.71c-0.14,0.76,0.07,1.53,0.53,2.22c0.44,0.65,1.1,1.23,1.92,1.67
		l-1.83,2.7l3.71-2.01c0.1,0.02,0.2,0.04,0.31,0.06c2.93,0.53,5.61-0.68,5.98-2.71C54.6,11.18,52.52,9.1,49.59,8.57z"/>
</g>
</svg>
