<?xml version="1.0" encoding="utf-8"?>
<!-- Generator: Adobe Illustrator 28.2.0, SVG Export Plug-In . SVG Version: 6.00 Build 0)  -->
<svg version="1.1" id="Слой_1" xmlns="http://www.w3.org/2000/svg" xmlns:xlink="http://www.w3.org/1999/xlink" x="0px" y="0px"
	 viewBox="0 0 90.85 72.76" style="enable-background:new 0 0 90.85 72.76;" xml:space="preserve">
<style type="text/css">
	.st0{fill:#E2BCA2;}
	.st1{fill:#E4F4FE;}
	.st2{fill:#2B2C2C;}
	.st3{fill:#5E7478;}
	.st4{fill:#677F84;}
	.st5{fill:#CCA692;}
	.st6{fill:#FAD0B4;}
	.st7{fill:#605D55;}
	.st8{fill:#BAD1DD;}
	.st9{fill:#3E5973;}
	.st10{fill:#728D95;}
	.st11{fill:#657D83;}
	.st12{fill:#5F7578;}
	.st13{fill:#6C838A;}
	.st14{fill:#939599;}
	.st15{fill:#FFFFFF;}
	.st16{fill:#F0C433;}
	.st17{fill:#08AEB3;}
	.st18{fill:#E5423A;}
</style>
<g id="_x31_0">
	<g>
		<path class="st0" d="M34.32,22.27c0.02,0,0.07-0.02,0.09-0.02l0.17-0.05c0.17-0.05,0.16,0.02,0.33-0.03
			c0.35-0.1,0.68-0.25,1.02-0.34c0.32-0.08,0.38-0.33,0.48-0.62c0.16-0.47,0.5-0.97,0.45-1.48c-0.02-0.2-0.02-0.43-0.08-0.62
			c-0.05-0.16-0.12-0.3-0.14-0.47c-0.02-0.16,0.03-0.5-0.23-0.38c-0.07,0.03-0.17,0.09-0.21,0.15c-0.08,0.11-0.1,0.29-0.09,0.42
			c0.01,0.11,0.07,0.2,0.08,0.3c0.01,0.13-0.02,0.28-0.06,0.41c-0.15-0.31-0.23-0.59-0.32-0.91c-0.08-0.27-0.17-0.53-0.25-0.8
			c-0.07-0.23-0.3-1.68-0.83-1.43c-0.25,0.12-0.06,0.5-0.03,0.68c0.04,0.31,0.15,0.59,0.24,0.9c0.03,0.09,0.05,0.31,0.05,0.4
			c-0.21-0.09-0.37-0.11-0.62,0.02c-0.08,0.04-0.03,0.15-0.1,0.19c-0.12,0.08-0.16,0.04-0.27,0.03c-0.1-0.01-0.21,0.04-0.28,0.11
			c-0.05,0.05-0.09,0.11-0.12,0.17c-0.02,0.05-0.02,0.13-0.05,0.17c-0.06,0.08-0.18,0.07-0.26,0.12c-0.08,0.05-0.11,0.15-0.14,0.23
			c-0.08,0.21-0.14,0.12-0.08,0.34c0.08,0.34,0.3,0.62,0.43,0.93c0.08,0.18,0.16,0.38,0.27,0.54c0.1,0.15,0.27,0.24,0.35,0.39
			c0.07,0.13,0.1,0.3,0.14,0.43c0.02,0.07,0.04,0.13,0.05,0.16C34.3,22.24,34.31,22.27,34.32,22.27z"/>
		<polygon class="st1" points="34.02,22.15 36.5,21.41 36.82,22 34.24,22.69 		"/>
	</g>
	<g id="_x34_">
		<path class="st2" d="M48.19,62.31l-0.42,1.13v0.8c0,0.29-0.13,0.73,0.15,0.79l1.96,0.08l1.67,0.5c0.09,0.04,1.26,0.38,1.36,0.38
			h2.69c0.08,0,0.15-0.07,0.15-0.15V65.5c0-0.23-0.12-0.44-0.31-0.56l-2.85-1.5l-0.58-1.02l0.18-1.05L48.19,62.31z"/>
		<path class="st2" d="M38.1,62.25l-0.31,1.3l-1.06,1.77c-0.12,0.24-0.09,0.52,0.1,0.72l0.43,0.47c0.13,0.14,0.32,0.22,0.52,0.22
			h1.71c0.16,0,0.31-0.05,0.43-0.15l1-0.78c0.17-0.13,0.27-0.34,0.25-0.55c-0.06-0.79-0.18-2.81,0.03-4.11
			C41.47,59.49,38.1,62.25,38.1,62.25z"/>
		<path class="st3" d="M39.95,37l-0.23,12.04L37.46,62.8h4.43l5.02-20.08v-6.69C44.59,36.35,42.27,36.67,39.95,37z"/>
		<path class="st4" d="M52.66,39.62c-0.08-1.5-0.2-2.95-0.35-4.35c-0.24,0.03-0.49,0.07-0.73,0.1c-1.56,0.22-3.12,0.43-4.68,0.65
			v6.69l0.06-0.25c0,0,0.89,11.56,0.89,20.27c0.63,0.05,1.17,0.08,1.63,0.09c2.82,0.05,2.82-0.6,2.82-0.6l0.39-13.45
			C52.83,45.94,52.84,42.87,52.66,39.62z"/>
		<g>
			<g>
				<polygon class="st5" points="43.88,16.39 43.87,16.56 43.8,18.01 45.87,19.88 46.59,19.22 47.77,18.15 47.87,16.37 				"/>
				<path class="st0" d="M46.19,10.89c-0.53-0.2-1.23-0.24-1.76-0.07c-0.54,0.16-1.12,0.51-1.22,1.06c-0.07,0.4,0.1,0.8,0.04,1.2
					c-0.02,0.11-0.05,0.35-0.22,0.23c-0.07-0.05-0.03-0.18-0.1-0.24c-0.17-0.13-0.25,0.08-0.26,0.2c-0.05,0.44-0.01,0.92,0.18,1.32
					c0.11,0.24,0.28,0.31,0.44,0.48c0.18,0.19,0.13,0.55,0.19,0.79c0.04,0.16,0.1,0.3,0.2,0.43c0.2,0.28,0.55,0.42,0.78,0.67
					c0.21,0.24,0.41,0.47,0.71,0.63c0.18,0.1,0.44,0.11,0.68,0.11c0.03,0,0.06,0.01,0.09,0.01l0.37-6.86
					C46.25,10.88,46.22,10.88,46.19,10.89z"/>
				<path class="st6" d="M49.45,13.6c0-0.12-0.06-0.33-0.24-0.22c-0.08,0.05-0.05,0.18-0.12,0.22c-0.18,0.1-0.19-0.14-0.19-0.25
					c-0.02-0.41,0.2-0.79,0.16-1.19c-0.04-0.56-0.59-0.96-1.11-1.18c-0.49-0.2-1.13-0.24-1.66-0.12l-0.37,6.86
					c0.21,0.02,0.43,0.02,0.59-0.05c0.32-0.13,0.53-0.35,0.77-0.56c0.25-0.23,0.62-0.34,0.84-0.59c0.1-0.12,0.18-0.26,0.24-0.41
					c0.08-0.23,0.07-0.59,0.27-0.76c0.18-0.16,0.35-0.22,0.49-0.44C49.36,14.51,49.45,14.04,49.45,13.6z"/>
				<path class="st7" d="M42.92,12.74c0.06,0.23,0.06,0.4,0.04,0.63c0,0.03-0.01,0.08-0.01,0.13l0.32,0.02
					c0.01-0.06,0.01-0.12,0.01-0.16c0-0.17,0.01-0.3,0.03-0.47c0.02-0.22,0.01-0.46,0.04-0.68c0.1-0.58,0.66-0.97,1.27-0.99
					c0.45-0.01,0.89,0.09,1.33,0.12c0.55,0.03,0.81-0.2,1.26-0.43c0.12-0.06,0.05-0.07,0.17-0.04c0.08,0.02,0.17,0.13,0.24,0.17
					c0.4,0.25,1.13,0.52,1.22,1.01c0.07,0.39,0.03,0.78,0,1.17c0,0.06-0.07,0.35-0.07,0.55L49,13.79c0.09-0.23,0.21-0.55,0.25-0.67
					c0.13-0.49,0.12-0.71,0.15-0.92c0.13-0.75,0.21-1.46-0.25-2.12c-0.5-0.7-1.28-1.13-1.7-1.1c-0.02,0-0.31,0.01-0.28,0.04
					c-0.14-0.13-0.41-0.16-0.59-0.21c-0.99-0.27-2.28,0.24-3.03,0.82c-0.8,0.61-0.73,1.44-0.69,2.25
					C42.87,12.16,42.85,12.47,42.92,12.74z"/>
			</g>
			<g>
				<path class="st8" d="M44.34,21.34c0-0.09,0.02-0.19,0.06-0.3c0.1-0.3,1.13-1.69,1.49-1.69c0.43-0.08,1.04,0.83,1.35,1.11
					c0.72,0.65,0.89,1.38,1.09,2.31c0.52,2.39,0.53,4.83,0.59,7.26c0.03,1.21,0.07,2.43,0.21,3.64c0.09,0.84,0.65,1.92,0.53,2.73
					c-0.31,0.07-3.8,0.52-3.81,0.42c-0.43-3.98-0.83-8.05-1.16-12.08c-0.07-0.84-0.1-1.69-0.21-2.53
					C44.44,21.83,44.33,21.61,44.34,21.34z"/>
				<path class="st9" d="M47.27,23.64l-0.84-2.91c-0.03-0.09-0.02-0.19,0.02-0.27l0.21-0.45c0.01-0.03,0-0.06-0.02-0.08
					c-0.1-0.1-0.2-0.21-0.3-0.31c-0.07-0.07-0.15-0.14-0.19-0.23c-0.03-0.06-0.11-0.21-0.19-0.15c-0.07,0.05-0.09,0.12-0.13,0.19
					c-0.04,0.06-0.11,0.12-0.16,0.17c-0.08,0.08-0.15,0.16-0.23,0.24c-0.02,0.02-0.02,0.05-0.01,0.08l0.28,0.48
					c0.05,0.09,0.07,0.19,0.06,0.28l-0.37,2.78c0,0.01,0,0.03,0.01,0.04l1.02,2.2c0.02,0.04,0.06,0.06,0.09,0.05
					c0.03,0.02,0.08,0.01,0.09-0.03l0.68-2.04C47.27,23.67,47.27,23.66,47.27,23.64z"/>
				<path class="st10" d="M53.2,38.81c-0.09-0.01-4.53,0.6-4.53,0.55c-0.01,0-0.03,0-0.04,0c-0.53,0.06-1.01,0.1-1.37,0.08
					c-0.23-0.9-0.31-2.12-0.34-3.42c-0.05-2.18,0.04-4.59-0.2-6.14c-0.23-1.47,0.14-3.45-0.37-4.82c0.03,0.07,0.09,0.24,0.09,0.24
					l0-0.04l1-4.07l0.69-2.79c0,0,0.07,0.07,0.07,0.03c0.01-0.13,3.53,0.75,3.85,0.88c1.01,0.41,1.11,1.34,1.37,2.28
					c0.41,1.49,0.68,3.01,0.8,4.55c0.06,0.83-0.09,1.56-0.97,1c-0.82-0.52-1.83-0.67-2.64-1.19c0.37,0.23,1.02,3.49,1.39,7.68
					C52.04,34.1,52.97,37.61,53.2,38.81z"/>
				<path class="st1" d="M47.86,17.46l-1.84,1.72c-0.03,0.03-0.07,0.02-0.1-0.01l-2.09-1.97l-0.86,1.47l1.66,2.69l1.3-2.04
					c0.03-0.04,0.09-0.04,0.13,0.01l1.68,2.3l0.67-2.79L47.86,17.46z"/>
				<path class="st10" d="M47.01,29.5l-0.37-0.69c-0.01,0.15-0.02,0.3-0.03,0.44L47.01,29.5z"/>
				<path class="st11" d="M49.78,19.53c-0.07-0.19-0.1-0.45-0.41-0.72c-0.52-0.45-0.85-0.63-1.28-0.88l-0.74,3.02l-0.13,1.25
					l-0.69,2.9l0.03,3.53l0.09,0.17c0.08-1.03,0.29-2.35,0.81-3.82c0.63-1.77,1.5-3.11,2.18-4.01c-0.35-0.18-0.89-0.61-1.24-0.79
					L49.78,19.53z"/>
			</g>
			<g>
				<path class="st11" d="M47.27,39.31v0.29l-7.99-0.64l1.21-7.67l0.17-1.05l0.05-0.3c0.13-3.24-1.39-10.5-1.39-10.5
					c0.25-0.17,1.27-0.42,3.32-0.92c0.09-0.02,0.49-0.13,1.02-0.26c0.04-0.02,0.06-0.02,0.06-0.02l0.81,2.14
					c0.56,1.48,1.3,2.99,1.71,4.51c0.09,0.35,0.02,0.68,0.02,1.02c0.01,0.55,0.17,1.14,0.25,1.68
					C47.07,31.46,47.28,35.4,47.27,39.31z"/>
				<path class="st12" d="M40.5,31.29l0.17-1.05c0.04-0.12,0.08-0.24,0.12-0.37c0,0,0.3-6.35,0.07-7.74
					C41.27,24.34,41.45,28.49,40.5,31.29z"/>
				<path class="st10" d="M53.96,25.54c0-0.01-0.01-0.03-0.01-0.04c-0.23-1.19-0.46-2.38-0.73-3.56c-0.11-0.48-0.24-0.96-0.38-1.43
					c-0.1-0.33-0.79-0.75-1.17-0.88c-0.68-0.24,0.21,0.92,0.24,1.18c0.08,0.78,0.21,1.57,0.27,2.35c0.09,1.19-1.54,1.23-2.06,2.31
					c-0.38,0.78,0.58,2.65,0.39,3.49c-0.12,0.52-0.06,1.08,0.17,1.56c0.11,0.25,0.29,0.49,0.56,0.56c0.24,0.06,0.49-0.02,0.71-0.12
					c0.98-0.44,1.75-1.29,2.05-2.27C54.32,27.67,54.16,26.57,53.96,25.54z"/>
				<path class="st10" d="M45.2,22.02l-0.67-1.64l-0.93-2.7c-0.15,0.04-0.72,0.75-1.21,0.88c-0.11,0.32-0.45,0.67-0.48,0.85
					l1.69,0.64l-1.29,1.11c1.17,1.35,2.36,2.48,3.37,4.9c0.38,0.91,0.66,1.77,0.87,2.57c0-1.11,0-2.22,0-3.32L45.2,22.02z"/>
				<path class="st11" d="M40.84,28.31c-0.15-1.3-0.26-4.62-0.38-9.24c-0.61,0.07-1.1,0.19-1.58,0.56c-0.4,0.31-0.43,0.74-0.61,1.2
					c-0.13,0.33-0.21,1.6-0.25,2.55c-0.01,0.22-0.02,0.41-0.03,0.58c0.79,2.36,2.11,4.76,2.07,7.37c0.3-0.2,0.44-0.58,0.54-0.94
					C40.93,29.09,40.84,28.31,40.84,28.31z"/>
				<path class="st13" d="M37.95,24.49c-0.02-0.03-0.06-0.09-0.09-0.16c-0.31-0.57-1.1-2.27-1.29-2.59
					c-0.06,0.02-2.75,0.75-2.75,0.75c0.12,0,1.02,4.4,1.53,5.23c0.55,0.9,1.21,1.74,1.96,2.49c0.54,0.53,1.3,1.1,2.09,1.24
					c0.21,0.04,0.39,0.02,0.54-0.05c0.05-0.02,0.08-0.06,0.12-0.08c0.05-2.61-1.28-5.01-2.07-7.37
					C37.97,24.28,37.96,24.49,37.95,24.49z"/>
				<polygon class="st12" points="51.26,27.92 50.62,22.3 50.74,28.09 				"/>
			</g>
			<path class="st12" d="M39.88,29.3c-0.23-0.62-0.81-1.75-1.05-2.37c-0.28-0.73-0.8-1.82-0.98-2.6c0.04,0.08,0.07,0.13,0.09,0.16
				c0.01,0,0.03-0.49,0.07-1.12c0.16,0.47,0.4,1.25,0.45,1.36c0.15,0.3,0.27,0.61,0.38,0.93c0.22,0.62,0.4,1.25,0.53,1.89
				C39.46,27.95,39.86,28.88,39.88,29.3z"/>
		</g>
		<g>
			<g>
				<polygon class="st14" points="49.56,27.38 55.95,26.82 54.03,30.87 47.68,31.11 				"/>
				<polygon class="st15" points="49.86,27.54 55.48,27.09 53.73,30.57 48.28,30.76 				"/>
			</g>
			<polygon class="st14" points="54.9,27.88 55.63,27.77 55.06,28.96 54.25,29.06 			"/>
		</g>
		<path class="st0" d="M49.64,30.25c-0.06-0.01-0.12-0.04-0.2-0.03c-0.11,0.01-0.2,0.11-0.25,0.19c-0.11,0.19-0.03,0.68,0.07,1.1
			c0.09,0.38,0.44,0.65,0.85,0.65c0.57,0.01,1.35-0.01,1.77-0.14c0.39-0.12,0.52-0.58,0.92-0.63c0.17-0.02,0.42-0.12,0.58-0.17
			c0.19-0.06,0.41-0.34,0.34-0.34c-0.29,0.01-1.29,0.05-1.65,0.05c-0.11,0-0.09-0.38-0.11-0.44c-0.04-0.13-0.15-0.29-0.28-0.34
			c-0.16-0.06-0.27,0.04-0.42-0.01c-0.08-0.03-0.16-0.08-0.24-0.09c-0.1-0.01-0.2,0.03-0.3,0.06c-0.14,0.05-0.21,0.04-0.34,0
			c-0.11-0.04-0.25-0.07-0.36-0.03c-0.09,0.03-0.16,0.09-0.24,0.14C49.73,30.25,49.69,30.25,49.64,30.25z"/>
		<g>
			<polygon class="st12" points="40.26,34.26 43.5,34.26 43.04,36.17 39.73,35.73 			"/>
			<path class="st13" d="M52.67,35.38l-0.34,0.07l-1.38,0.28l-0.03-0.09l-0.05-0.16l-0.37-1.21l1.63-0.36
				C52.17,34.38,52.61,34.88,52.67,35.38z"/>
		</g>
		<g>
			<path class="st16" d="M36.68,10.5c-0.17-0.12-0.33-0.22-0.47-0.31c-0.14-0.09-0.31-0.18-0.49-0.28
				c-1.47-0.69-3.11,0.54-3.14,2.31c0.15,1.82-0.24,2.25-0.24,2.25L33.21,15l0.86,0.54c0,0,0.21-0.53,1.91-1.2
				C37.56,13.53,37.94,11.52,36.68,10.5z"/>
			<g>
				<path class="st9" d="M33.54,16.33c-0.16,0.38-0.68,0.39-1.21,0.06c-0.53-0.33-0.75-0.8-0.48-1.11c0.28-0.31,0.79-0.31,1.2-0.05
					C33.46,15.48,33.7,15.95,33.54,16.33z"/>
				<path class="st17" d="M33.52,16.24c-0.58-0.24-1.11-0.58-1.59-0.99c-0.1-0.09-0.1-0.27,0-0.39c0.05-0.06,0.1-0.12,0.15-0.17
					c0.1-0.11,0.25-0.13,0.35-0.05c0.42,0.37,0.9,0.66,1.41,0.88c0.12,0.05,0.17,0.2,0.11,0.34c-0.03,0.07-0.06,0.14-0.09,0.21
					C33.81,16.21,33.65,16.29,33.52,16.24z"/>
				<path class="st9" d="M33.84,15.87c-0.64-0.24-1.22-0.6-1.71-1.07c-0.14-0.13-0.13-0.35,0-0.49l0,0
					c0.13-0.13,0.33-0.14,0.45-0.03c0.44,0.42,0.96,0.74,1.53,0.96c0.16,0.06,0.24,0.24,0.17,0.42l0,0
					C34.22,15.83,34.02,15.93,33.84,15.87z"/>
			</g>
			<g>
				<g>
					<path class="st18" d="M36.38,9.89c-0.08-0.05-0.1-0.16-0.05-0.24l0.4-0.64c0.05-0.09,0.16-0.11,0.24-0.06
						c0.08,0.05,0.1,0.16,0.05,0.24l-0.4,0.64C36.56,9.91,36.46,9.94,36.38,9.89z"/>
				</g>
				<g>
					<path class="st18" d="M37.35,11.05c-0.02-0.01-0.04-0.03-0.06-0.06c-0.05-0.08-0.01-0.19,0.07-0.25l0.62-0.39
						c0.08-0.05,0.19-0.03,0.23,0.06c0.05,0.08,0.01,0.19-0.07,0.25l-0.62,0.39C37.47,11.09,37.4,11.09,37.35,11.05z"/>
				</g>
				<g>
					<path class="st18" d="M37.58,12.67c-0.05-0.03-0.08-0.08-0.08-0.15c0-0.1,0.08-0.18,0.18-0.18l0.67-0.03
						c0.1,0,0.17,0.07,0.17,0.17c0,0.1-0.08,0.18-0.18,0.19l-0.67,0.03C37.63,12.7,37.6,12.69,37.58,12.67z"/>
				</g>
				<g>
					<path class="st18" d="M37.54,14.66l-0.55-0.34c-0.08-0.05-0.1-0.16-0.05-0.24c0.05-0.09,0.16-0.11,0.24-0.06l0.55,0.34
						c0.08,0.05,0.1,0.16,0.05,0.24C37.73,14.68,37.62,14.71,37.54,14.66z"/>
				</g>
				<g>
					<path class="st18" d="M36.03,16.16c-0.03-0.02-0.05-0.04-0.06-0.07l-0.27-0.62c-0.04-0.09,0-0.19,0.09-0.24
						c0.09-0.05,0.19-0.01,0.23,0.08l0.27,0.62c0.04,0.09,0,0.19-0.09,0.24C36.14,16.19,36.08,16.19,36.03,16.16z"/>
				</g>
				<g>
					<path class="st18" d="M30.87,12.88c-0.05-0.03-0.08-0.08-0.08-0.15c0-0.1,0.08-0.18,0.18-0.18l0.67-0.03
						c0.1,0,0.17,0.07,0.17,0.17c0,0.1-0.08,0.18-0.18,0.18l-0.67,0.03C30.92,12.91,30.89,12.9,30.87,12.88z"/>
				</g>
				<g>
					<path class="st18" d="M32.12,11.21l-0.55-0.34c-0.08-0.05-0.1-0.16-0.05-0.24c0.05-0.09,0.16-0.11,0.24-0.06l0.55,0.34
						c0.08,0.05,0.1,0.16,0.05,0.24C32.31,11.23,32.2,11.26,32.12,11.21z"/>
				</g>
				<g>
					<path class="st18" d="M33.36,9.98c-0.03-0.02-0.05-0.04-0.06-0.07L33.02,9.3c-0.04-0.09,0-0.19,0.09-0.24
						c0.09-0.05,0.19-0.01,0.23,0.08l0.27,0.62c0.04,0.09,0,0.19-0.09,0.24C33.47,10.02,33.41,10.01,33.36,9.98z"/>
				</g>
				<g>
					<path class="st18" d="M34.92,9.5c-0.05-0.03-0.08-0.09-0.08-0.16l0.07-0.73c0.01-0.1,0.1-0.17,0.19-0.17
						c0.09,0,0.16,0.09,0.15,0.19l-0.07,0.73c-0.01,0.1-0.1,0.17-0.19,0.17C34.97,9.52,34.94,9.52,34.92,9.5z"/>
				</g>
			</g>
		</g>
	</g>
</g>
</svg>
