<svg width="40" height="40" viewBox="0 0 40 40" fill="none" xmlns="http://www.w3.org/2000/svg">
<g id="skill-icons:linkedin" clip-path="url(#clip0_1225_6433)">
<g id="Group">
<path id="Vector" d="M30.625 0H9.375C4.19733 0 0 4.19733 0 9.375V30.625C0 35.8027 4.19733 40 9.375 40H30.625C35.8027 40 40 35.8027 40 30.625V9.375C40 4.19733 35.8027 0 30.625 0Z" fill="white"/>
<path id="Vector_2" d="M30.625 0H9.375C4.19733 0 0 4.19733 0 9.375V30.625C0 35.8027 4.19733 40 9.375 40H30.625C35.8027 40 40 35.8027 40 30.625V9.375C40 4.19733 35.8027 0 30.625 0Z" fill="#0A66C2"/>
<path id="Vector_3" d="M28.8617 34.0133H33.4352C33.6009 34.0133 33.7598 33.9475 33.877 33.8303C33.9942 33.7131 34.0601 33.5542 34.0602 33.3884L34.0625 23.7256C34.0625 18.6752 32.9742 14.7931 27.0722 14.7931C24.8286 14.7097 22.7128 15.8663 21.5711 17.7975C21.5655 17.8069 21.557 17.8142 21.5469 17.8183C21.5368 17.8224 21.5256 17.8231 21.5151 17.8202C21.5045 17.8173 21.4952 17.8111 21.4885 17.8025C21.4819 17.7938 21.4782 17.7833 21.4781 17.7723V15.8844C21.4781 15.7186 21.4123 15.5596 21.2951 15.4424C21.1779 15.3252 21.0189 15.2594 20.8531 15.2594H16.513C16.3472 15.2594 16.1882 15.3252 16.071 15.4424C15.9538 15.5596 15.888 15.7186 15.888 15.8844V33.3875C15.888 33.5533 15.9538 33.7122 16.071 33.8294C16.1882 33.9467 16.3472 34.0125 16.513 34.0125H21.0861C21.2519 34.0125 21.4108 33.9467 21.528 33.8294C21.6452 33.7122 21.7111 33.5533 21.7111 33.3875V24.7355C21.7111 22.2891 22.1752 19.9198 25.2081 19.9198C28.198 19.9198 28.2367 22.7192 28.2367 24.8939V33.3883C28.2367 33.554 28.3026 33.713 28.4198 33.8302C28.537 33.9474 28.696 34.0133 28.8617 34.0133ZM5.9375 9.31687C5.9375 11.1706 7.46359 12.6959 9.3175 12.6959C11.1709 12.6958 12.6961 11.1695 12.6961 9.31609C12.6958 7.46266 11.1705 5.9375 9.31687 5.9375C7.46281 5.9375 5.9375 7.46312 5.9375 9.31687ZM7.02484 34.0133H11.6041C11.7698 34.0133 11.9288 33.9474 12.046 33.8302C12.1632 33.713 12.2291 33.554 12.2291 33.3883V15.8844C12.2291 15.7186 12.1632 15.5596 12.046 15.4424C11.9288 15.3252 11.7698 15.2594 11.6041 15.2594H7.02484C6.85908 15.2594 6.70011 15.3252 6.5829 15.4424C6.46569 15.5596 6.39984 15.7186 6.39984 15.8844V33.3883C6.39984 33.554 6.46569 33.713 6.5829 33.8302C6.70011 33.9474 6.85908 34.0133 7.02484 34.0133Z" fill="white"/>
</g>
</g>
<defs>
<clipPath id="clip0_1225_6433">
<rect width="40" height="40" fill="white"/>
</clipPath>
</defs>
</svg>
