<?xml version="1.0" encoding="UTF-8"?>
<svg id="_Слой_1" data-name="Слой 1" xmlns="http://www.w3.org/2000/svg" viewBox="0 0 1113.46 483.51">
  <defs>
    <style>
      .cls-1 {
        stroke: #000;
        stroke-miterlimit: 10;
      }

      .cls-1, .cls-2 {
        fill: #fff;
      }

      .cls-3, .cls-2 {
        stroke-width: 0px;
      }
    </style>
  </defs>
  <g>
    <rect class="cls-1" x=".5" y="379.64" width="1112.46" height="103.37" rx="15.9" ry="15.9"/>
    <path class="cls-3" d="m45.58,400.7h18.68v61.25h-18.68v-61.25Zm134.13,0h17.4l22.71,33.89v-33.89h17.57v61.25h-17.57l-22.59-33.63v33.63h-17.53v-61.25Zm167.79,0h56.66v15.12h-19.01v46.12h-18.64v-46.12h-19.01v-15.12Zm167.3,61.25v-61.25h31.06c5.76,0,10.16.5,13.21,1.5,3.04,1,5.5,2.86,7.36,5.58,1.87,2.72,2.8,6.02,2.8,9.92,0,3.4-.71,6.33-2.14,8.79s-3.39,4.46-5.89,6c-1.59.97-3.77,1.78-6.55,2.42,2.22.75,3.84,1.51,4.85,2.26.69.5,1.68,1.57,2.98,3.22,1.3,1.65,2.17,2.91,2.61,3.81l9.03,17.75h-21.06l-9.96-18.72c-1.26-2.42-2.39-4-3.37-4.72-1.34-.95-2.87-1.42-4.57-1.42h-1.65v24.86h-18.72Zm18.72-36.43h7.86c.85,0,2.5-.28,4.94-.84,1.23-.25,2.24-.89,3.02-1.92s1.17-2.21,1.17-3.55c0-1.98-.62-3.5-1.85-4.55s-3.55-1.59-6.95-1.59h-8.19v12.45Zm185.62,26.32h-21.16l-2.94,10.11h-19.03l22.67-61.25h20.33l22.67,61.25h-19.52l-3.02-10.11Zm-3.87-13.24l-6.66-22.02-6.59,22.02h13.24Zm134.53-37.89h27.69c5.46,0,9.87.75,13.23,2.26s6.14,3.66,8.33,6.48,3.79,6.09,4.77,9.82c.99,3.73,1.48,7.69,1.48,11.87,0,6.55-.73,11.62-2.2,15.23-1.47,3.61-3.5,6.63-6.11,9.07s-5.4,4.06-8.39,4.87c-4.09,1.11-7.79,1.67-11.11,1.67h-27.69v-61.25Zm18.64,13.87v33.47h4.57c3.89,0,6.67-.44,8.31-1.32s2.93-2.41,3.87-4.6,1.4-5.73,1.4-10.63c0-6.49-1.04-10.93-3.13-13.33-2.08-2.4-5.54-3.59-10.37-3.59h-4.65Zm148.58-13.87h49.95v13.08h-31.27v9.73h29.01v12.49h-29.01v12.07h32.17v13.87h-50.85v-61.25Z"/>
  </g>
  <g>
    <path class="cls-2" d="m752.45,327.68L620.15,11.14c-2.82-6.75-9.39-11.14-16.66-11.14h-90.4c-7.27,0-13.84,4.39-16.66,11.14l-132.31,316.53c-5.02,12,3.73,25.27,16.66,25.27h73.6c7.46,0,14.15-4.61,16.85-11.62l87.05-225.76,87.05,225.76c2.7,7,9.39,11.62,16.85,11.62h73.6c12.93,0,21.68-13.27,16.66-25.27Z"/>
    <path class="cls-2" d="m1109.23,323.97l-106.63-146.46,96.34-149.39c7.81-12.11-.82-28.12-15.16-28.12h-74.21c-6.18,0-11.93,3.18-15.24,8.42l-53.4,84.37-61.7-84.75c-3.41-4.68-8.82-7.44-14.58-7.44h-68.71c-14.74,0-23.29,16.82-14.66,28.86l106.02,148.06-93.31,147.43c-7.67,12.12.97,27.99,15.24,27.99h70.43c6.12,0,11.83-3.12,15.16-8.29l53.15-82.41,59.54,83.14c3.4,4.75,8.85,7.56,14.66,7.56h72.49c14.81,0,23.34-16.95,14.58-28.97Z"/>
    <path class="cls-2" d="m251.19,0H18.77C8.79,0,.69,8.09.69,18.08v67.41c0,9.98,8.09,18.08,18.08,18.08h203.5c15.97,0,28.92,12.95,28.92,28.92v20.44c0,15.97-12.95,28.92-28.92,28.92H18.77c-9.98,0-18.08,8.09-18.08,18.08v134.85c0,9.98,8.09,18.08,18.08,18.08h92.7c9.98,0,18.08-8.09,18.08-18.08v-43.33c0-9.98,8.09-18.08,18.08-18.08h103.56c71.17,0,128.86-57.69,128.86-128.86v-15.66C380.05,57.69,322.35,0,251.19,0h0Z"/>
  </g>
</svg>