<svg width="400" height="385" viewBox="0 0 400 385" fill="none" xmlns="http://www.w3.org/2000/svg">
<path opacity="0.05" d="M189 384.75C324.724 384.75 434.75 274.724 434.75 139C434.75 3.27602 324.724 -106.75 189 -106.75C53.276 -106.75 -56.75 3.27602 -56.75 139C-56.75 274.724 53.276 384.75 189 384.75Z" stroke="#99BCFE" stroke-width="0.5"/>
<path opacity="0.08" d="M189 315.75C286.616 315.75 365.75 236.616 365.75 139C365.75 41.3837 286.616 -37.75 189 -37.75C91.3837 -37.75 12.25 41.3837 12.25 139C12.25 236.616 91.3837 315.75 189 315.75Z" stroke="#99BCFE" stroke-width="0.5"/>
<path opacity="0.1" d="M189 254.75C252.927 254.75 304.75 202.927 304.75 139C304.75 75.073 252.927 23.25 189 23.25C125.073 23.25 73.25 75.073 73.25 139C73.25 202.927 125.073 254.75 189 254.75Z" stroke="#99BCFE" stroke-width="0.5"/>
<path opacity="0.15" d="M189 206.75C226.417 206.75 256.75 176.417 256.75 139C256.75 101.583 226.417 71.25 189 71.25C151.583 71.25 121.25 101.583 121.25 139C121.25 176.417 151.583 206.75 189 206.75Z" stroke="#99BCFE" stroke-width="0.5"/>
</svg>
