<?xml version="1.0" encoding="UTF-8"?>
<svg id="OBJECTS" xmlns="http://www.w3.org/2000/svg" xmlns:xlink="http://www.w3.org/1999/xlink" viewBox="0 0 51.96 46.25">
  <defs>
    <style>
      .cls-1 {
        fill: url(#_Безымянный_градиент_15-17);
      }

      .cls-1, .cls-2, .cls-3, .cls-4, .cls-5, .cls-6, .cls-7, .cls-8, .cls-9, .cls-10, .cls-11, .cls-12, .cls-13, .cls-14, .cls-15, .cls-16, .cls-17, .cls-18, .cls-19, .cls-20, .cls-21, .cls-22, .cls-23, .cls-24 {
        stroke-width: 0px;
      }

      .cls-2 {
        fill: url(#_Безымянный_градиент_15-18);
      }

      .cls-3 {
        fill: url(#_Безымянный_градиент_15-12);
      }

      .cls-4 {
        fill: url(#_Безымянный_градиент_15-13);
      }

      .cls-5 {
        fill: url(#_Безымянный_градиент_15-14);
      }

      .cls-6 {
        fill: url(#_Безымянный_градиент_15-16);
      }

      .cls-7 {
        fill: url(#_Безымянный_градиент_15-15);
      }

      .cls-8 {
        fill: url(#_Безымянный_градиент_15-11);
      }

      .cls-9 {
        fill: url(#_Безымянный_градиент_15-10);
      }

      .cls-10 {
        fill: url(#_Безымянный_градиент_15-19);
      }

      .cls-11 {
        fill: url(#_Безымянный_градиент_15-24);
      }

      .cls-12 {
        fill: url(#_Безымянный_градиент_15-21);
      }

      .cls-13 {
        fill: url(#_Безымянный_градиент_15-20);
      }

      .cls-14 {
        fill: url(#_Безымянный_градиент_15-22);
      }

      .cls-15 {
        fill: url(#_Безымянный_градиент_15-23);
      }

      .cls-16 {
        fill: url(#_Безымянный_градиент_15-5);
      }

      .cls-17 {
        fill: url(#_Безымянный_градиент_15-3);
      }

      .cls-18 {
        fill: url(#_Безымянный_градиент_15-2);
      }

      .cls-19 {
        fill: url(#_Безымянный_градиент_15-4);
      }

      .cls-20 {
        fill: url(#_Безымянный_градиент_15-6);
      }

      .cls-21 {
        fill: url(#_Безымянный_градиент_15-9);
      }

      .cls-22 {
        fill: url(#_Безымянный_градиент_15-7);
      }

      .cls-23 {
        fill: url(#_Безымянный_градиент_15-8);
      }

      .cls-24 {
        fill: url(#_Безымянный_градиент_15);
      }
    </style>
    <linearGradient id="_Безымянный_градиент_15" data-name="Безымянный градиент 15" x1="23.57" y1="5.48" x2="41.34" y2="5.48" gradientUnits="userSpaceOnUse">
      <stop offset="0" stop-color="#67ffd7"/>
      <stop offset=".54" stop-color="#83d6e2"/>
      <stop offset="1" stop-color="#9fb0ee"/>
    </linearGradient>
    <linearGradient id="_Безымянный_градиент_15-2" data-name="Безымянный градиент 15" x1="22.65" y1="2.69" x2="27.75" y2="2.69" xlink:href="#_Безымянный_градиент_15"/>
    <linearGradient id="_Безымянный_градиент_15-3" data-name="Безымянный градиент 15" x1="7.87" y1="27.72" x2="13.73" y2="27.72" xlink:href="#_Безымянный_градиент_15"/>
    <linearGradient id="_Безымянный_градиент_15-4" data-name="Безымянный градиент 15" x1="9.13" y1="32.44" x2="14.31" y2="32.44" xlink:href="#_Безымянный_градиент_15"/>
    <linearGradient id="_Безымянный_градиент_15-5" data-name="Безымянный градиент 15" x1="40.06" y1="29.2" x2="47" y2="29.2" xlink:href="#_Безымянный_градиент_15"/>
    <linearGradient id="_Безымянный_градиент_15-6" data-name="Безымянный градиент 15" x1="43.58" y1="24.07" x2="48.73" y2="24.07" xlink:href="#_Безымянный_градиент_15"/>
    <linearGradient id="_Безымянный_градиент_15-7" data-name="Безымянный градиент 15" x1="18.55" y1="39.35" x2="36.4" y2="39.35" xlink:href="#_Безымянный_градиент_15"/>
    <linearGradient id="_Безымянный_градиент_15-8" data-name="Безымянный градиент 15" x1="17.8" y1="39.35" x2="37.14" y2="39.35" xlink:href="#_Безымянный_градиент_15"/>
    <linearGradient id="_Безымянный_градиент_15-9" data-name="Безымянный градиент 15" x1="18.55" y1="37.19" x2="36.4" y2="37.19" xlink:href="#_Безымянный_градиент_15"/>
    <linearGradient id="_Безымянный_градиент_15-10" data-name="Безымянный градиент 15" x1="17.8" y1="37.19" x2="37.14" y2="37.19" xlink:href="#_Безымянный_градиент_15"/>
    <linearGradient id="_Безымянный_градиент_15-11" data-name="Безымянный градиент 15" x1="18.55" y1="42.31" x2="25.16" y2="42.31" xlink:href="#_Безымянный_градиент_15"/>
    <linearGradient id="_Безымянный_градиент_15-12" data-name="Безымянный градиент 15" x1="17.8" y1="42.31" x2="25.9" y2="42.31" xlink:href="#_Безымянный_градиент_15"/>
    <linearGradient id="_Безымянный_градиент_15-13" data-name="Безымянный градиент 15" x1="29.79" y1="42.31" x2="36.4" y2="42.31" xlink:href="#_Безымянный_градиент_15"/>
    <linearGradient id="_Безымянный_градиент_15-14" data-name="Безымянный градиент 15" x1="29.04" y1="42.31" x2="37.14" y2="42.31" xlink:href="#_Безымянный_градиент_15"/>
    <linearGradient id="_Безымянный_градиент_15-15" data-name="Безымянный градиент 15" x1="34.34" y1="10.83" x2="51.22" y2="10.83" xlink:href="#_Безымянный_градиент_15"/>
    <linearGradient id="_Безымянный_градиент_15-16" data-name="Безымянный градиент 15" x1="33.59" y1="10.83" x2="51.96" y2="10.83" xlink:href="#_Безымянный_градиент_15"/>
    <linearGradient id="_Безымянный_градиент_15-17" data-name="Безымянный градиент 15" x1="36.76" y1="17.1" x2="38.97" y2="17.1" xlink:href="#_Безымянный_градиент_15"/>
    <linearGradient id="_Безымянный_градиент_15-18" data-name="Безымянный градиент 15" x1="36.01" y1="17.1" x2="39.72" y2="17.1" xlink:href="#_Безымянный_градиент_15"/>
    <linearGradient id="_Безымянный_градиент_15-19" data-name="Безымянный градиент 15" x1="46.21" y1="7.54" x2="48.46" y2="7.54" xlink:href="#_Безымянный_градиент_15"/>
    <linearGradient id="_Безымянный_градиент_15-20" data-name="Безымянный градиент 15" x1="45.46" y1="7.54" x2="49.21" y2="7.54" xlink:href="#_Безымянный_градиент_15"/>
    <linearGradient id="_Безымянный_градиент_15-21" data-name="Безымянный градиент 15" x1="7.56" y1="15.41" x2="11.5" y2="15.41" xlink:href="#_Безымянный_градиент_15"/>
    <linearGradient id="_Безымянный_градиент_15-22" data-name="Безымянный градиент 15" x1="5.59" y1="11.06" x2="13.43" y2="11.06" xlink:href="#_Безымянный_градиент_15"/>
    <linearGradient id="_Безымянный_градиент_15-23" data-name="Безымянный градиент 15" x1="2.94" y1="7.46" x2="16.06" y2="7.46" xlink:href="#_Безымянный_градиент_15"/>
    <linearGradient id="_Безымянный_градиент_15-24" data-name="Безымянный градиент 15" x1="0" y1="3.44" x2="18.97" y2="3.44" xlink:href="#_Безымянный_градиент_15"/>
  </defs>
  <g>
    <path class="cls-24" d="m40.59,8.88c-.19,0-.37-.07-.52-.21-3.4-3.29-7.87-5.1-12.6-5.1-1.02,0-2.04.08-3.03.25-.41.07-.79-.21-.86-.61-.07-.41.21-.79.61-.86,1.08-.18,2.18-.27,3.28-.27,5.12,0,9.96,1.96,13.64,5.52.3.29.3.76.02,1.05-.15.15-.34.23-.54.23Z"/>
    <polygon class="cls-18" points="27.75 4.94 24.75 3 26.7 0 24.6 .45 22.65 3.44 25.65 5.39 27.75 4.94"/>
  </g>
  <g>
    <path class="cls-17" d="m12.99,34.5c-.21,0-.43-.09-.57-.27-2.93-3.51-4.55-7.97-4.55-12.55,0-.41.33-.75.75-.75s.75.33.75.75c0,4.23,1.49,8.35,4.2,11.6.26.32.22.79-.09,1.05-.14.12-.31.17-.48.17Z"/>
    <polygon class="cls-19" points="12.86 29.86 12.7 33.43 9.13 33.26 10.57 34.84 14.14 35.01 14.31 31.44 12.86 29.86"/>
  </g>
  <g>
    <path class="cls-16" d="m40.81,35.76c-.19,0-.38-.07-.53-.22-.29-.29-.29-.76,0-1.05,3-3,4.86-6.97,5.23-11.17.04-.41.4-.71.81-.68.41.04.71.4.68.81-.41,4.55-2.42,8.85-5.66,12.09-.15.15-.34.22-.53.22Z"/>
    <polygon class="cls-20" points="43.58 26.22 46.22 23.82 48.63 26.47 48.73 24.33 46.33 21.68 43.68 24.08 43.58 26.22"/>
  </g>
  <g>
    <g>
      <rect class="cls-22" x="18.55" y="33.19" width="17.85" height="12.31"/>
      <path class="cls-23" d="m36.39,46.25h-17.85c-.41,0-.75-.33-.75-.75v-12.31c0-.41.33-.75.75-.75h17.85c.41,0,.75.33.75.75v12.31c0,.41-.33.75-.75.75Zm-17.1-1.49h16.36v-10.82h-16.36v10.82Z"/>
    </g>
    <g>
      <polygon class="cls-21" points="18.55 33.19 27.47 41.19 36.4 33.19 18.55 33.19"/>
      <path class="cls-9" d="m27.47,41.94c-.18,0-.36-.06-.5-.19l-8.92-8c-.23-.21-.31-.53-.2-.82.11-.29.39-.48.7-.48h17.85c.31,0,.59.19.7.48.11.29.03.61-.2.82l-8.92,8c-.14.13-.32.19-.5.19Zm-6.98-8l6.98,6.25,6.98-6.25h-13.95Z"/>
    </g>
    <g>
      <path class="cls-8" d="m18.55,45.5l6.61-6.38-6.61,6.38Z"/>
      <path class="cls-3" d="m18.55,46.25c-.19,0-.39-.08-.54-.23-.29-.3-.28-.77.02-1.05l6.61-6.38c.3-.29.77-.28,1.05.02.29.3.28.77-.02,1.05l-6.61,6.38c-.14.14-.33.21-.52.21Z"/>
    </g>
    <g>
      <path class="cls-4" d="m36.4,45.5l-6.61-6.38,6.61,6.38Z"/>
      <path class="cls-5" d="m36.39,46.25c-.19,0-.37-.07-.52-.21l-6.61-6.38c-.3-.29-.3-.76-.02-1.05.29-.3.76-.3,1.05-.02l6.61,6.38c.3.29.3.76.02,1.05-.15.15-.34.23-.54.23Z"/>
    </g>
  </g>
  <g>
    <g>
      <path class="cls-7" d="m50.07,4.64h0l-2.27-2.27-3.96,3.96,2.27,2.27h0s2.15,2.15-.68,4.98c-2.57,2.57-4.58,1.04-4.93.73h0l-2.27-2.27-3.91,3.91,2.16,2.27h0s5.99,3.48,11.37-1.99c5.9-5.99,2.2-11.58,2.2-11.58Z"/>
      <path class="cls-6" d="m40.96,20.04c-.3,0-.58-.01-.85-.04-2.31-.2-3.91-1.11-3.98-1.15-.06-.04-.12-.08-.17-.13l-2.16-2.27c-.28-.29-.27-.76.01-1.04l3.91-3.91c.14-.14.33-.22.53-.22h0c.2,0,.39.08.53.22l2.25,2.25c.43.36,1.88,1.3,3.89-.71,2.21-2.21.84-3.76.68-3.93l-2.26-2.26c-.14-.14-.22-.33-.22-.53s.08-.39.22-.53l3.96-3.96c.14-.14.33-.22.53-.22h0c.2,0,.39.08.53.22l2.27,2.27c.13.13,1.13,1.69,1.33,4,.19,2.11-.28,5.33-3.52,8.62-2.61,2.65-5.36,3.3-7.45,3.3Zm-4-2.43c.33.17,1.62.78,3.33.92,2.63.21,5-.75,7.05-2.83,2.26-2.3,3.31-4.78,3.1-7.38-.14-1.72-.8-2.94-.96-3.21l-1.68-1.68-2.9,2.9,1.74,1.74c.07.07.7.73.92,1.81.2.99.09,2.53-1.6,4.23-2.35,2.35-4.67,1.88-5.94.76-.01-.01-.02-.02-.04-.03l-1.74-1.74-2.86,2.86,1.58,1.66Z"/>
    </g>
    <g>
      <path class="cls-1" d="m36.76,18.21l2.21-2.22-2.21,2.22Z"/>
      <path class="cls-2" d="m36.76,18.95c-.19,0-.38-.07-.53-.22-.29-.29-.29-.76,0-1.05l2.21-2.22c.29-.29.76-.29,1.05,0s.29.76,0,1.05l-2.21,2.22c-.15.15-.34.22-.53.22Z"/>
    </g>
    <g>
      <path class="cls-10" d="m46.21,8.68l2.25-2.28-2.25,2.28Z"/>
      <path class="cls-13" d="m46.21,9.43c-.19,0-.38-.07-.52-.22-.29-.29-.3-.76,0-1.05l2.25-2.28c.29-.29.76-.3,1.05,0,.29.29.3.76,0,1.05l-2.25,2.28c-.15.15-.34.22-.53.22Z"/>
    </g>
  </g>
  <g>
    <circle class="cls-12" cx="9.53" cy="15.41" r="1.97"/>
    <path class="cls-14" d="m6.34,12.39c-.21,0-.42-.09-.57-.26-.27-.31-.23-.78.09-1.05,1.02-.87,2.33-1.35,3.67-1.35s2.62.47,3.64,1.32c.32.26.36.73.09,1.05-.26.32-.73.36-1.05.09-.75-.63-1.7-.97-2.68-.97s-1.95.35-2.71.99c-.14.12-.31.18-.48.18Z"/>
    <path class="cls-15" d="m3.69,9.27c-.21,0-.42-.09-.57-.26-.27-.31-.23-.78.09-1.05,1.76-1.5,4-2.32,6.32-2.32s4.51.81,6.26,2.27c.32.26.36.73.09,1.05-.26.32-.73.36-1.05.09-1.48-1.24-3.37-1.92-5.31-1.92s-3.86.7-5.35,1.96c-.14.12-.31.18-.48.18Z"/>
    <path class="cls-11" d="m.75,5.8c-.21,0-.42-.09-.57-.26-.27-.31-.23-.78.09-1.05C2.85,2.29,6.14,1.09,9.53,1.09s6.61,1.18,9.18,3.33c.32.26.36.73.09,1.05-.26.32-.73.36-1.05.09-2.3-1.92-5.22-2.98-8.22-2.98S3.54,3.66,1.23,5.62c-.14.12-.31.18-.48.18Z"/>
  </g>
</svg>