<?xml version="1.0" encoding="UTF-8"?>
<svg id="OBJECTS" xmlns="http://www.w3.org/2000/svg" xmlns:xlink="http://www.w3.org/1999/xlink" viewBox="0 0 82.93 82.9">
  <defs>
    <style>
      .cls-1 {
        fill: url(#_3111-6);
      }

      .cls-1, .cls-2, .cls-3, .cls-4, .cls-5, .cls-6, .cls-7, .cls-8, .cls-9, .cls-10, .cls-11, .cls-12, .cls-13 {
        stroke-width: 0px;
      }

      .cls-2 {
        fill: url(#_3111-5);
      }

      .cls-3 {
        fill: url(#_3111-8);
      }

      .cls-4 {
        fill: url(#_3111-7);
      }

      .cls-5 {
        fill: url(#_3111-9);
      }

      .cls-6 {
        fill: url(#_3111-4);
      }

      .cls-7 {
        fill: url(#_3111-3);
      }

      .cls-8 {
        fill: url(#_3111-2);
      }

      .cls-9 {
        fill: url(#_3111-10);
      }

      .cls-10 {
        fill: url(#_3111-11);
      }

      .cls-11 {
        fill: url(#_3111-13);
      }

      .cls-12 {
        fill: url(#_3111-12);
      }

      .cls-13 {
        fill: url(#_3111);
      }
    </style>
    <linearGradient id="_3111" data-name="3111" x1="79.25" y1="-4.07" x2="84.97" y2="-9.79" gradientTransform="translate(15.92 -11.09) rotate(45)" gradientUnits="userSpaceOnUse">
      <stop offset="0" stop-color="#67ffd7"/>
      <stop offset=".54" stop-color="#83d6e2"/>
      <stop offset="1" stop-color="#9fb0ee"/>
    </linearGradient>
    <linearGradient id="_3111-2" data-name="3111" x1="15.73" y1="5.67" x2="42.66" y2="-21.26" xlink:href="#_3111"/>
    <linearGradient id="_3111-3" data-name="3111" x1="25.47" y1="47.98" x2="31.19" y2="42.26" xlink:href="#_3111"/>
    <linearGradient id="_3111-4" data-name="3111" x1="67.78" y1="59.44" x2="94.7" y2="32.52" xlink:href="#_3111"/>
    <linearGradient id="_3111-5" data-name="3111" x1="24.92" y1="18.12" x2="75.8" y2="18.12" gradientTransform="matrix(1,0,0,1,0,0)" xlink:href="#_3111"/>
    <linearGradient id="_3111-6" data-name="3111" x1="69.84" y1="6.99" x2="82.04" y2="6.99" gradientTransform="matrix(1,0,0,1,0,0)" xlink:href="#_3111"/>
    <linearGradient id="_3111-7" data-name="3111" x1="7.12" y1="64.81" x2="58.01" y2="64.81" gradientTransform="matrix(1,0,0,1,0,0)" xlink:href="#_3111"/>
    <linearGradient id="_3111-8" data-name="3111" x1=".88" y1="75.94" x2="13.09" y2="75.94" gradientTransform="matrix(1,0,0,1,0,0)" xlink:href="#_3111"/>
    <linearGradient id="_3111-9" data-name="3111" x1="7.13" y1="32.57" x2="23.25" y2="32.57" gradientTransform="matrix(1,0,0,1,0,0)" xlink:href="#_3111"/>
    <linearGradient id="_3111-10" data-name="3111" x1=".88" y1="6.99" x2="13.09" y2="6.99" gradientTransform="matrix(1,0,0,1,0,0)" xlink:href="#_3111"/>
    <linearGradient id="_3111-11" data-name="3111" x1="59.67" y1="50.36" x2="75.8" y2="50.36" gradientTransform="matrix(1,0,0,1,0,0)" xlink:href="#_3111"/>
    <linearGradient id="_3111-12" data-name="3111" x1="69.84" y1="75.94" x2="82.04" y2="75.94" gradientTransform="matrix(1,0,0,1,0,0)" xlink:href="#_3111"/>
    <linearGradient id="_3111-13" data-name="3111" x1="18.63" y1="41.46" x2="64.3" y2="41.46" gradientTransform="matrix(1,0,0,1,0,0)" xlink:href="#_3111"/>
  </defs>
  <g>
    <path class="cls-13" d="m75.45,60.5c-.61-.61-.81-1.57-.41-2.39,4.84-10.17,4.9-21.86.16-32.08-.49-1.05-.03-2.31,1.02-2.8,1.05-.49,2.31-.03,2.8,1.02,5.27,11.36,5.2,24.35-.18,35.66-.5,1.05-1.76,1.5-2.81,1-.22-.11-.42-.25-.58-.41Z"/>
    <path class="cls-8" d="m23.65,7.3c-.17-.17-.31-.37-.42-.6-.49-1.05-.03-2.31,1.02-2.8,11.36-5.27,24.35-5.2,35.66.18,1.05.5,1.5,1.76,1,2.81-.5,1.05-1.76,1.5-2.81,1-10.17-4.84-21.86-4.9-32.08-.16-.82.38-1.77.19-2.38-.42Z"/>
    <path class="cls-7" d="m4.33,59.28c-.17-.17-.31-.37-.42-.6-5.27-11.36-5.2-24.35.18-35.66.5-1.05,1.76-1.5,2.81-1,1.05.5,1.5,1.76,1,2.81-4.84,10.17-4.9,21.86-.16,32.08.49,1.05.03,2.31-1.02,2.8-.82.38-1.77.19-2.38-.42Z"/>
    <path class="cls-6" d="m22.43,78.43c-.61-.61-.81-1.57-.41-2.39.5-1.05,1.76-1.5,2.81-1,4.25,2.03,8.81,3.22,13.53,3.56,1.17.08,2.36.11,3.53.09,5.24-.12,10.29-1.29,15.02-3.48,1.05-.49,2.31-.03,2.8,1.02.49,1.05.03,2.31-1.02,2.8-5.26,2.44-10.87,3.74-16.69,3.87-1.31.03-2.63,0-3.93-.09-5.25-.37-10.31-1.7-15.04-3.96-.22-.11-.42-.25-.58-.41Z"/>
  </g>
  <g>
    <path class="cls-2" d="m75.8,10.11l-19,19-2.98-2.98,2.23-2.22,3.63-3.63c-8.94-7.69-21.62-8.8-31.64-3.31-.82.45-1.84.31-2.49-.36-.99-.99-.76-2.67.47-3.34,11.62-6.36,26.35-5.02,36.64,4.02l7.74-7.74,2.43-2.42c.03.75.33,1.49.91,2.07.57.57,1.31.88,2.06.91Z"/>
    <path class="cls-1" d="m80.26,2.67c-2.38-2.38-6.25-2.38-8.63,0-1.86,1.86-2.27,4.62-1.23,6.88.3.64.7,1.23,1.23,1.75s1.12.93,1.75,1.23c2.26,1.04,5.02.63,6.88-1.23,2.38-2.38,2.38-6.25,0-8.63Zm-2.1,6.53c-.65.65-1.51.95-2.35.91-.75-.03-1.5-.34-2.06-.91-.57-.58-.88-1.32-.91-2.07-.04-.85.26-1.71.91-2.35,1.22-1.22,3.2-1.22,4.42,0s1.22,3.2,0,4.42Z"/>
  </g>
  <g>
    <path class="cls-4" d="m56.93,69.67c-4.37,2.4-9.26,3.75-14.35,3.93h-.01s-.87.02-.87.02c-4.49.03-8.85-.85-12.97-2.62-3.09-1.34-5.92-3.14-8.45-5.36l-10.17,10.17c-.03-.75-.33-1.5-.91-2.07-.57-.58-1.32-.88-2.07-.91l2.43-2.42,7.74-7.74,2.98-2.98,3.63-3.63,2.23-2.23.71.71,1.52,1.52.74.74-2.24,2.23-3.62,3.62c2.15,1.85,4.54,3.35,7.14,4.47,3.45,1.49,7.1,2.25,10.86,2.28h.42c4.69-.04,9.21-1.22,13.22-3.43.83-.45,1.85-.32,2.51.35.99.99.76,2.66-.47,3.34Z"/>
    <path class="cls-3" d="m12.53,73.38c-.3-.63-.7-1.23-1.23-1.75-.52-.52-1.12-.93-1.75-1.22-2.25-1.04-5.02-.64-6.88,1.22-2.38,2.38-2.38,6.25,0,8.63s6.25,2.38,8.63,0c1.86-1.86,2.27-4.62,1.23-6.88Zm-3.34,4.78c-1.22,1.22-3.2,1.22-4.42,0-1.22-1.22-1.22-3.2,0-4.42.65-.65,1.51-.95,2.35-.91.75.03,1.5.33,2.07.91.58.57.88,1.32.91,2.07.04.84-.26,1.7-.91,2.35Z"/>
  </g>
  <g>
    <g>
      <path class="cls-5" d="m21.71,21.71c-5.22,5.22-8.13,12.17-8.18,19.56-.03,3.84.76,7.74,2.28,11.27.35.81.73,1.6,1.15,2.36.45.82.31,1.84-.35,2.49-.99,1-2.67.75-3.34-.48-.49-.88-.93-1.78-1.33-2.71-1.77-4.12-2.66-8.49-2.62-12.97.06-7.79,2.87-15.16,7.97-20.97L7.13,10.11c.75-.03,1.5-.34,2.06-.91.58-.58.88-1.32.91-2.07l2.43,2.42,10.72,10.72c-.53.46-1.04.94-1.55,1.44Z"/>
      <path class="cls-9" d="m11.3,2.67C8.92.29,5.05.29,2.67,2.67s-2.38,6.25,0,8.63c1.86,1.86,4.62,2.27,6.88,1.23.63-.3,1.23-.71,1.75-1.23.52-.52.93-1.12,1.23-1.75,1.04-2.26.63-5.02-1.23-6.88Zm-2.11,6.53c-.57.57-1.31.88-2.06.91-.85.04-1.71-.26-2.35-.91-1.22-1.22-1.22-3.2,0-4.42,1.22-1.22,3.2-1.22,4.42,0,.65.65.95,1.51.91,2.35-.03.75-.33,1.49-.91,2.07Z"/>
    </g>
    <g>
      <path class="cls-10" d="m75.8,72.83c-.75.03-1.49.33-2.07.91-.57.57-.88,1.31-.91,2.06l-13.15-13.15c.54-.45,1.05-.93,1.55-1.43,8.98-8.98,10.56-22.58,4.75-33.19-.17-.32-.26-.66-.26-1.01,0-.54.21-1.08.61-1.48.99-.99,2.66-.76,3.33.47,6.37,11.62,5.02,26.36-4.02,36.66l7.74,7.74,2.43,2.43Z"/>
      <path class="cls-12" d="m80.26,71.63c-1.86-1.86-4.62-2.27-6.88-1.23-.63.3-1.23.7-1.75,1.23s-.93,1.12-1.23,1.75c-1.04,2.25-.63,5.02,1.23,6.88,2.38,2.38,6.25,2.38,8.63,0s2.38-6.25,0-8.63Zm-2.1,6.53c-1.22,1.22-3.2,1.22-4.42,0-.65-.65-.95-1.51-.91-2.35.03-.75.34-1.5.91-2.06.58-.58,1.32-.88,2.07-.91.85-.04,1.71.26,2.35.91,1.22,1.22,1.22,3.2,0,4.42Z"/>
    </g>
  </g>
  <path class="cls-11" d="m59.02,26.88c-.89-1.08-1.89-2.08-2.97-2.98-3.96-3.3-9.04-5.28-14.58-5.28-12.59,0-22.84,10.24-22.84,22.84,0,5.38,1.86,10.49,5.27,14.59.41.5.85.98,1.31,1.44.53.54,1.09,1.05,1.66,1.53,1.84,1.53,3.91,2.76,6.17,3.66,2.68,1.07,5.52,1.61,8.43,1.61s5.74-.54,8.42-1.61c2.96-1.17,5.6-2.92,7.84-5.19l.6-.62v-.02c3.86-4.22,5.97-9.65,5.97-15.39s-1.98-10.62-5.28-14.58Zm-10.68,31.9c-2.19.87-4.5,1.31-6.87,1.31s-4.69-.44-6.88-1.31c-1.43-.57-2.79-1.32-4.04-2.23,1.95-4.27,6.17-7.02,10.89-7.02,0,0,.01,0,.02,0h0s.01,0,.02,0c4.72,0,8.95,2.76,10.9,7.03-1.24.9-2.6,1.64-4.04,2.22Zm-10.73-17.32c0-2.13,1.73-3.86,3.86-3.86s3.85,1.73,3.85,3.86c0,1.02-.4,1.98-1.11,2.71l-.06.06c-.36.35-.8.64-1.26.82-.46.18-.94.27-1.43.27s-.97-.09-1.42-.27c-.49-.2-.95-.5-1.32-.88-.71-.73-1.11-1.69-1.11-2.71Zm17.99,12.12s0,0,0,0c-1.79-3.18-4.57-5.62-7.85-7h0s.07-.07.07-.07v-.07c1.11-1.42,1.72-3.15,1.72-4.98,0-4.45-3.62-8.07-8.07-8.07s-8.07,3.62-8.07,8.07c0,1.88.64,3.67,1.82,5.1,0,0,0,0,0,0-3.3,1.38-6.09,3.82-7.88,7.02,0,0,0,0,0,0-2.91-3.38-4.49-7.63-4.49-12.12,0-10.28,8.36-18.63,18.63-18.63s18.62,8.36,18.62,18.63c0,4.49-1.58,8.75-4.49,12.12Z"/>
</svg>