<?xml version="1.0" encoding="UTF-8"?>
<svg id="_Слой_1" data-name="Слой 1" xmlns="http://www.w3.org/2000/svg" viewBox="0 0 57.48 43.88">
  <defs>
    <style>
      .cls-1 {
        fill: none;
        stroke: #7b9cd2;
        stroke-linecap: round;
        stroke-linejoin: round;
        stroke-width: 3.25px;
      }
    </style>
  </defs>
  <circle class="cls-1" cx="28.74" cy="12.41" r="10.78"/>
  <path class="cls-1" d="M22.2,20.96c-1.19.5-2.34,1.15-3.4,1.94-4,2.98-6.23,7.26-6.71,11.68-.24,2.22,1.02,4.37,3.11,5.17,4.21,1.61,8.77,2.5,13.55,2.5s9.34-.89,13.55-2.5c2.08-.8,3.34-2.95,3.11-5.17-.48-4.43-2.71-8.7-6.71-11.68-1.06-.79-2.21-1.44-3.4-1.94"/>
  <path class="cls-1" d="M20.81,19.71c-1.5,1.15-3.37,1.83-5.41,1.83-4.92,0-8.9-3.99-8.9-8.9S10.48,3.73,15.4,3.73c1.92,0,3.71.61,5.16,1.65"/>
  <path class="cls-1" d="M10,19.7c-.99.42-1.93.95-2.81,1.6-3.31,2.46-5.15,5.99-5.54,9.65-.2,1.83.84,3.61,2.57,4.27,2.61,1,5.38,1.66,8.26,1.93"/>
  <path class="cls-1" d="M36.67,19.71c1.5,1.15,3.37,1.83,5.41,1.83,4.92,0,8.9-3.99,8.9-8.9,0-4.92-3.99-8.9-8.9-8.9-1.92,0-3.71.61-5.16,1.65"/>
  <path class="cls-1" d="M47.48,19.7c.99.42,1.93.95,2.81,1.6,3.31,2.46,5.15,5.99,5.54,9.65.2,1.83-.84,3.61-2.57,4.27-2.61,1-5.38,1.66-8.26,1.93"/>
</svg>