<?xml version="1.0" encoding="UTF-8"?>
<svg xmlns="http://www.w3.org/2000/svg" xmlns:xlink="http://www.w3.org/1999/xlink" viewBox="0 0 70.52 70.52">
  <defs>
    <style>
      .cls-1 {
        clip-path: url(#clippath);
      }

      .cls-2 {
        fill: none;
      }

      .cls-2, .cls-3, .cls-4, .cls-5, .cls-6, .cls-7, .cls-8, .cls-9, .cls-10 {
        stroke-width: 0px;
      }

      .cls-3 {
        fill: url(#_Безымянный_градиент_15-3);
      }

      .cls-4 {
        fill: url(#_Безымянный_градиент_15-2);
      }

      .cls-5 {
        fill: url(#_111);
      }

      .cls-6 {
        fill: url(#_Безымянный_градиент_15);
      }

      .cls-11 {
        isolation: isolate;
      }

      .cls-12 {
        fill: #00b7a0;
        font-family: MyriadPro-Regular, 'Myriad Pro';
        font-size: 12px;
      }

      .cls-13 {
        mix-blend-mode: multiply;
        opacity: .3;
      }

      .cls-7 {
        fill: #48bfe3;
      }

      .cls-8 {
        fill: #d1e2ea;
      }

      .cls-9 {
        fill: #a9d1db;
      }

      .cls-10 {
        fill: #fff;
      }
    </style>
    <linearGradient id="_Безымянный_градиент_15" data-name="Безымянный градиент 15" x1="12.84" y1="17.12" x2="23.15" y2="17.12" gradientUnits="userSpaceOnUse">
      <stop offset="0" stop-color="#67ffd7"/>
      <stop offset=".54" stop-color="#83d6e2"/>
      <stop offset="1" stop-color="#9fb0ee"/>
    </linearGradient>
    <linearGradient id="_Безымянный_градиент_15-2" data-name="Безымянный градиент 15" x1="49.09" x2="59.39" xlink:href="#_Безымянный_градиент_15"/>
    <clipPath id="clippath">
      <path class="cls-2" d="m36.12,26.81c-12.85,0-23.27-4.34-23.27-9.68v36.4h0c0,5.35,10.42,9.68,23.27,9.68s23.27-4.34,23.27-9.68h0V17.12c0,5.35-10.42,9.68-23.27,9.68Z"/>
    </clipPath>
    <linearGradient id="_111" data-name="111" x1="6.41" y1="46.47" x2="62.41" y2="46.47" gradientUnits="userSpaceOnUse">
      <stop offset="0" stop-color="#00ffd5"/>
      <stop offset=".18" stop-color="#29ffdb"/>
      <stop offset=".59" stop-color="#91ffec"/>
      <stop offset="1" stop-color="#fff"/>
    </linearGradient>
    <linearGradient id="_Безымянный_градиент_15-3" data-name="Безымянный градиент 15" x1="0" y1="35.26" x2="70.52" y2="35.26" gradientTransform="translate(54.34 -10.81) rotate(67.5)" xlink:href="#_Безымянный_градиент_15"/>
  </defs>
  <g class="cls-11">
    <g id="OBJECTS">
      <g>
        <path class="cls-7" d="m36.12,26.81c-12.85,0-23.27-4.34-23.27-9.68v36.4h0c0,5.35,10.42,9.68,23.27,9.68s23.27-4.34,23.27-9.68h0V17.12c0,5.35-10.42,9.68-23.27,9.68Z"/>
        <g>
          <path class="cls-6" d="m23.15,9.08c-6.22,1.74-10.31,4.69-10.31,8.04s4.09,6.3,10.31,8.04V9.08Z"/>
          <path class="cls-4" d="m49.09,9.08v16.08c6.22-1.74,10.31-4.69,10.31-8.04s-4.09-6.3-10.31-8.04Z"/>
        </g>
        <g class="cls-1">
          <path class="cls-5" d="m6.41,63.65v-19.78h1.98v-.94h-.47v-.84h.47v-.51h-.47v-.84h.47v-.59h-.47v-.84h.47v-.51h-.47v-.84h.47v-2.33h1.75l1.55-1.65,1.55,1.65h2.05v3.84h4.92v6.27h1.96v1.41h1.75v-.92h-.65v-1.1h.69v-1.94l2.86-1.17,2.86,1.17v1.94h.65v1.1h-.65v.84h1.07v-12.28l5.39-4.24,5.39,4.24v6.37h1.31v-10.89h1.53v-.99h.62v.99h1.53v10.89h1.92v1.79h1.43v-2.12h.51v2.12h1.63v1.53h.47v-3.99h.65v-2.68h1.53v-1.74h.51v1.74h1.54v2.68h.65v3.89h.47v-1.53h1.63v-2.12h.51v2.12h1.45v1.53h.98v19.26H6.41Z"/>
        </g>
        <g class="cls-13">
          <path class="cls-7" d="m23.15,25.17c-6.22-1.74-10.31-4.69-10.31-8.04v36.4c0,3.35,4.09,6.3,10.31,8.04V25.17Z"/>
          <path class="cls-7" d="m49.09,25.17v36.4c6.22-1.74,10.31-4.69,10.31-8.04V17.12c0,3.35-4.09,6.3-10.31,8.04Z"/>
        </g>
        <text class="cls-12" transform="translate(26.91 17.38)"><tspan x="0" y="0">360</tspan></text>
      </g>
      <g>
        <circle class="cls-3" cx="35.26" cy="35.26" r="35.26" transform="translate(-10.81 54.34) rotate(-67.5)"/>
        <g>
          <path class="cls-9" d="m18.53,39.53l4.26,13.03c.3.93,1.44,1.26,2.19.64l12.72-10.5s-13.51-5.27-13.51-4.98-5.65,1.82-5.65,1.82Z"/>
          <path class="cls-10" d="m52.08,14.49c-8.31,3.28-35.11,14.27-45.26,18.43-1.34.55-1.26,2.47.12,2.91l11.58,3.69,4.24,12.98c.17.52.6.86,1.08.95.39.07.97-10.51.97-10.51,0,0,12.18,9.03,17.96,13.3,1.42,1.05,3.46.26,3.79-1.48,1.72-8.87,6.02-31.04,7.49-38.63.22-1.14-.9-2.07-1.98-1.65Z"/>
          <path class="cls-8" d="m23.85,53.46c.39.07.97-10.51.97-10.51l20.01-18.79c.14-.13-.03-.34-.19-.25l-26.12,15.62,4.24,12.98c.17.52.6.86,1.08.95Z"/>
        </g>
      </g>
    </g>
  </g>
</svg>