<svg width="40" height="40" viewBox="0 0 40 40" fill="none" xmlns="http://www.w3.org/2000/svg">
<g id="logos:whatsapp-icon" clip-path="url(#clip0_1225_6448)">
<path id="Vector" d="M0.846946 19.7606C0.846016 23.1213 1.72416 26.4029 3.39392 29.2953L0.687256 39.1778L10.8007 36.526C13.598 38.0488 16.7321 38.8467 19.917 38.8469H19.9254C30.4393 38.8469 38.998 30.2914 39.0024 19.7756C39.0045 14.68 37.0218 9.88832 33.4197 6.28336C29.8181 2.67871 25.0282 0.692511 19.9246 0.690186C9.40943 0.690186 0.851442 9.24522 0.847101 19.7606" fill="url(#paint0_linear_1225_6448)"/>
<path id="Vector_2" d="M0.165891 19.7544C0.164806 23.2361 1.07442 26.635 2.80372 29.631L0 39.8678L10.4761 37.1209C13.3626 38.6947 16.6126 39.5245 19.9195 39.5257H19.9281C30.8192 39.5257 39.6853 30.6625 39.6899 19.7702C39.6918 14.4915 37.6378 9.5276 33.907 5.79349C30.1757 2.05984 25.2144 0.00217054 19.9281 0C9.03504 0 0.170233 8.86202 0.165891 19.7544ZM6.40481 29.115L6.01364 28.4941C4.3693 25.8795 3.5014 22.8581 3.50264 19.7557C3.50605 10.7022 10.8741 3.33643 19.9343 3.33643C24.3219 3.33829 28.4453 5.04868 31.5467 8.15194C34.6479 11.2555 36.3544 15.3811 36.3533 19.769C36.3493 28.8225 28.9811 36.1891 19.9281 36.1891H19.9216C16.9738 36.1876 14.0828 35.396 11.5616 33.9L10.9616 33.5442L4.74481 35.1741L6.40481 29.115Z" fill="url(#paint1_linear_1225_6448)"/>
<path id="Vector_3" d="M14.9888 11.4958C14.6189 10.6736 14.2296 10.657 13.8778 10.6426C13.5897 10.6302 13.2604 10.6311 12.9314 10.6311C12.6021 10.6311 12.0671 10.755 11.6148 11.2488C11.1621 11.7431 9.88647 12.9375 9.88647 15.3668C9.88647 17.7962 11.6559 20.144 11.9026 20.4738C12.1496 20.8029 15.3186 25.9477 20.3375 27.9269C24.5086 29.5717 25.3575 29.2446 26.2628 29.1621C27.1682 29.08 29.1843 27.968 29.5956 26.815C30.0072 25.6621 30.0072 24.6739 29.8838 24.4674C29.7604 24.2617 29.4311 24.1381 28.9373 23.8913C28.4434 23.6443 26.0158 22.4497 25.5632 22.2849C25.1105 22.1203 24.7814 22.0381 24.4521 22.5325C24.1228 23.0262 23.1772 24.1381 22.889 24.4674C22.601 24.7975 22.3128 24.8386 21.8192 24.5916C21.3251 24.3438 19.7348 23.8231 17.8482 22.141C16.3803 20.8322 15.3893 19.2159 15.1012 18.7215C14.8131 18.2279 15.0704 17.9603 15.3179 17.7142C15.5398 17.493 15.8119 17.1376 16.059 16.8494C16.3052 16.561 16.3874 16.3553 16.5521 16.026C16.7169 15.6964 16.6344 15.408 16.5111 15.161C16.3874 14.9141 15.4279 12.4721 14.9888 11.4958Z" fill="white"/>
</g>
<defs>
<linearGradient id="paint0_linear_1225_6448" x1="1916.45" y1="3849.45" x2="1916.45" y2="0.690186" gradientUnits="userSpaceOnUse">
<stop stop-color="#1FAF38"/>
<stop offset="1" stop-color="#60D669"/>
</linearGradient>
<linearGradient id="paint1_linear_1225_6448" x1="1984.5" y1="3986.78" x2="1984.5" y2="0" gradientUnits="userSpaceOnUse">
<stop stop-color="#F9F9F9"/>
<stop offset="1" stop-color="white"/>
</linearGradient>
<clipPath id="clip0_1225_6448">
<rect width="39.6899" height="40" fill="white"/>
</clipPath>
</defs>
</svg>
