<?xml version="1.0" encoding="UTF-8"?>
<svg id="x-icon" fill="#00b87c" data-name="Layer 1" xmlns="http://www.w3.org/2000/svg" viewBox="0 0 1187.92 1215.59">
  <path id="x-icon" class="cls-1" d="m1102.6,1091.59l-398.04-578.26-45-65.4L374.83,34.28,351.24,0H1.37l85.33,124,378.58,550.06,45,65.33,304.18,441.96,23.6,34.25h349.87l-85.33-124Zm-222.96,44.86l-316.02-459.15-45-65.36L151.91,79.14h157.74l296.56,430.88,45,65.36,386.17,561.06h-157.74Z"/>
  <polygon class="cls-1" points="518.62 611.93 563.62 677.29 510.27 739.38 100.94 1215.59 0 1215.59 465.27 674.05 518.62 611.93"/>
  <polygon class="cls-1" points="1145.8 0 704.56 513.33 651.21 575.38 606.21 510.02 659.56 447.93 958.45 100.04 1044.86 0 1145.8 0"/>
</svg>