<svg width="40" height="40" viewBox="0 0 40 40" fill="none" xmlns="http://www.w3.org/2000/svg">
<g id="grommet-icons:zoom" clip-path="url(#clip0_1225_6429)">
<g id="Group">
<path id="Vector" d="M0 13.3333C0 9.79711 1.40476 6.40573 3.90524 3.90524C6.40573 1.40476 9.79711 0 13.3333 0L26.6667 0C30.2029 0 33.5943 1.40476 36.0948 3.90524C38.5952 6.40573 40 9.79711 40 13.3333V26.6667C40 30.2029 38.5952 33.5943 36.0948 36.0948C33.5943 38.5952 30.2029 40 26.6667 40H13.3333C9.79711 40 6.40573 38.5952 3.90524 36.0948C1.40476 33.5943 0 30.2029 0 26.6667V13.3333Z" fill="#0B5CFF"/>
<path id="Vector_2" d="M8.33325 14.9999C8.33325 14.5579 8.50885 14.134 8.82141 13.8214C9.13397 13.5088 9.55789 13.3333 9.99992 13.3333H19.9999C21.326 13.3333 22.5978 13.86 23.5355 14.7977C24.4731 15.7354 24.9999 17.0072 24.9999 18.3333V24.9999C24.9999 25.4419 24.8243 25.8659 24.5118 26.1784C24.1992 26.491 23.7753 26.6666 23.3333 26.6666H13.3333C12.0072 26.6666 10.7354 26.1398 9.79772 25.2021C8.86004 24.2644 8.33325 22.9927 8.33325 21.6666V14.9999ZM25.8333 19.5866C25.8329 18.7786 26.1261 17.9979 26.6583 17.3899L29.4749 14.1699C30.2366 13.3033 31.6666 13.8399 31.6666 14.9933V25.0066C31.6666 26.1616 30.2366 26.6983 29.4766 25.8299L26.6583 22.6099C26.1265 22.0023 25.8333 21.2224 25.8333 20.4149V19.5866Z" fill="white"/>
</g>
</g>
<defs>
<clipPath id="clip0_1225_6429">
<rect width="40" height="40" fill="white"/>
</clipPath>
</defs>
</svg>
